SplineFontDB: 3.0
FontName: Lusitana
FullName: Lusitana
FamilyName: Lusitana
Weight: Book
Copyright: Copyright (c) 2011 by Ana Paula Megda (www.anamegda.com|anapbm@gmail.com), with Reserved Font Name Lusitana.
Version: 1.001
ItalicAngle: 0
UnderlinePosition: -50
UnderlineWidth: 50
Ascent: 800
Descent: 200
sfntRevision: 0x00010042
LayerCount: 2
Layer: 0 1 "Back"  1
Layer: 1 1 "Fore"  0
XUID: [1021 168 1230252436 14730912]
FSType: 0
OS2Version: 2
OS2_WeightWidthSlopeOnly: 0
OS2_UseTypoMetrics: 1
CreationTime: 1325880194
ModificationTime: 1325881674
PfmFamily: 81
TTFWeight: 400
TTFWidth: 5
LineGap: 0
VLineGap: 0
Panose: 0 0 0 0 0 0 0 0 0 0
OS2TypoAscent: 156
OS2TypoAOffset: 1
OS2TypoDescent: -141
OS2TypoDOffset: 1
OS2TypoLinegap: 0
OS2WinAscent: 23
OS2WinAOffset: 1
OS2WinDescent: 4
OS2WinDOffset: 1
HheadAscent: 23
HheadAOffset: 1
HheadDescent: -4
HheadDOffset: 1
OS2SubXSize: 700
OS2SubYSize: 650
OS2SubXOff: 0
OS2SubYOff: 140
OS2SupXSize: 700
OS2SupYSize: 650
OS2SupXOff: 0
OS2SupYOff: 477
OS2StrikeYSize: 50
OS2StrikeYPos: 250
OS2Vendor: 'pyrs'
OS2CodePages: 00000001.00000000
OS2UnicodeRanges: 00000023.00000000.00000000.00000000
Lookup: 258 0 0 "'kern' Horizontal Kerning in Latin lookup 0"  {"'kern' Horizontal Kerning in Latin lookup 0 subtable"  } ['kern' ('latn' <'dflt' > ) ]
DEI: 91125
TtTable: prep
PUSHW_1
 511
SCANCTRL
PUSHB_1
 4
SCANTYPE
EndTTInstrs
ShortTable: maxp 16
  1
  0
  214
  78
  5
  0
  0
  2
  0
  1
  1
  0
  64
  0
  0
  0
EndShort
LangName: 1033 "" "" "Regular" "AnaPaulaMegda: Lusitana: 2011" "" "Version 1.001" "" "Lusitana is a trademark of Ana Paula Megda." "Ana Paula Megda" "Ana Paula Megda" "" "" "www.anamegda.com" "This Font Software is licensed under the SIL Open Font License, Version 1.1. This license is available with a FAQ at: http://scripts.sil.org/OFL" "http://scripts.sil.org/OFL" 
GaspTable: 1 65535 15 1
Encoding: UnicodeBmp
UnicodeInterp: none
NameList: Adobe Glyph List
DisplaySize: -24
AntiAlias: 1
FitToEm: 1
BeginChars: 65542 214

StartChar: exclam
Encoding: 33 33 4
Width: 319
GlyphClass: 2
Flags: W
LayerCount: 2
Fore
SplineSet
210 658 m 1,0,-1
 178 214 l 2,1,2
 178 207 178 207 171 207 c 2,3,-1
 141 205 l 2,4,5
 138 205 138 205 138 213 c 2,6,-1
 97 658 l 1,7,8
 106 662 106 662 141.5 674 c 128,-1,9
 177 686 177 686 188 688 c 1,10,11
 203 688 203 688 208 677 c 0,12,13
 210 674 210 674 210 658 c 1,0,-1
122.5 4 m 128,-1,15
 108 18 108 18 108 39 c 128,-1,16
 108 60 108 60 123 75.5 c 128,-1,17
 138 91 138 91 159.5 91 c 128,-1,18
 181 91 181 91 195.5 77.5 c 128,-1,19
 210 64 210 64 210 43 c 128,-1,20
 210 22 210 22 195 6 c 128,-1,21
 180 -10 180 -10 158.5 -10 c 128,-1,14
 137 -10 137 -10 122.5 4 c 128,-1,15
EndSplineSet
EndChar

StartChar: quotedbl
Encoding: 34 34 5
Width: 295
GlyphClass: 2
Flags: W
LayerCount: 2
Fore
SplineSet
111 477 m 1,0,1
 102 466 102 466 91.5 466 c 128,-1,2
 81 466 81 466 74 470 c 1,3,4
 73 493 73 493 68 531.5 c 128,-1,5
 63 570 63 570 57.5 613 c 128,-1,6
 52 656 52 656 50 669 c 1,7,8
 111 715 111 715 132 718 c 0,9,10
 134 718 134 718 136 716 c 1,11,12
 136 692 136 692 125 588 c 128,-1,13
 114 484 114 484 111 477 c 1,0,1
232 481 m 1,14,15
 222 469 222 469 213 469 c 128,-1,16
 204 469 204 469 197 474 c 1,17,18
 197 476 197 476 174 673 c 1,19,20
 235 719 235 719 256 722 c 0,21,22
 258 722 258 722 260 720 c 1,23,24
 260 695 260 695 248 591.5 c 128,-1,25
 236 488 236 488 232 481 c 1,14,15
EndSplineSet
EndChar

StartChar: numbersign
Encoding: 35 35 6
Width: 453
GlyphClass: 2
Flags: W
LayerCount: 2
Fore
SplineSet
387 417 m 0,0,1
 386 417 386 417 376 415 c 1,2,3
 343 415 343 415 308 416 c 1,4,-1
 280 280 l 1,5,6
 316 279 316 279 346 279 c 128,-1,7
 376 279 376 279 384 281 c 1,8,9
 388 275 388 275 388 270 c 0,10,11
 388 252 388 252 344 235 c 0,12,13
 343 235 343 235 333 233 c 1,14,15
 301 233 301 233 270 234 c 1,16,-1
 238 77 l 1,17,18
 235 72 235 72 228.5 72 c 128,-1,19
 222 72 222 72 206 88 c 1,20,-1
 235 234 l 1,21,22
 198 234 198 234 126 236 c 1,23,-1
 93 77 l 1,24,25
 90 72 90 72 83.5 72 c 128,-1,26
 77 72 77 72 61 88 c 1,27,-1
 91 236 l 1,28,29
 -3 238 -3 238 -6.5 241 c 128,-1,30
 -10 244 -10 244 -10 253 c 128,-1,31
 -10 262 -10 262 6 284 c 1,32,-1
 100 283 l 1,33,-1
 128 419 l 1,34,35
 39 421 39 421 36 423.5 c 128,-1,36
 33 426 33 426 33 435 c 128,-1,37
 33 444 33 444 49 465 c 1,38,39
 96 465 96 465 137 464 c 1,40,-1
 168 617 l 1,41,42
 180 624 180 624 189.5 624 c 128,-1,43
 199 624 199 624 206 619 c 1,44,-1
 173 463 l 1,45,46
 211 463 211 463 281 461 c 1,47,-1
 313 617 l 1,48,49
 325 624 325 624 334.5 624 c 128,-1,50
 344 624 344 624 351 619 c 1,51,-1
 318 461 l 1,52,53
 356 460 356 460 387.5 460 c 128,-1,54
 419 460 419 460 427 462 c 1,55,56
 431 457 431 457 431 451 c 0,57,58
 431 434 431 434 387 417 c 0,0,1
272 416 m 1,59,-1
 164 418 l 1,60,-1
 136 282 l 1,61,62
 173 282 173 282 245 280 c 1,63,-1
 272 416 l 1,59,-1
EndSplineSet
EndChar

StartChar: dollar
Encoding: 36 36 7
Width: 549
GlyphClass: 2
Flags: W
LayerCount: 2
Fore
SplineSet
258 -104 m 1,0,-1
 258 -12 l 1,1,2
 159 -8 159 -8 67 29 c 1,3,4
 62 44 62 44 53 103.5 c 128,-1,5
 44 163 44 163 40 204 c 1,6,-1
 86 211 l 1,7,8
 107 121 107 121 150 80 c 128,-1,9
 193 39 193 39 258 38 c 1,10,-1
 258 307 l 1,11,12
 148 354 148 354 122 378 c 0,13,14
 107 392 107 392 90 411 c 0,15,16
 59 446 59 446 59 507 c 0,17,18
 59 593 59 593 116 640 c 128,-1,19
 173 687 173 687 258 691 c 1,20,-1
 258 794 l 1,21,22
 279 811 279 811 312 811 c 1,23,-1
 312 690 l 1,24,25
 413 684 413 684 469 654 c 1,26,27
 476 639 476 639 476 575.5 c 128,-1,28
 476 512 476 512 472 480 c 1,29,-1
 441 482 l 1,30,31
 438 541 438 541 404 585 c 128,-1,32
 370 629 370 629 312 641 c 1,33,-1
 312 399 l 1,34,35
 425 356 425 356 464 308 c 0,36,37
 505 259 505 259 505 186 c 128,-1,38
 505 113 505 113 455 55.5 c 128,-1,39
 405 -2 405 -2 312 -10 c 1,40,-1
 312 -91 l 1,41,42
 301 -104 301 -104 258 -104 c 1,0,-1
178 612 m 128,-1,44
 149 584 149 584 149 540 c 128,-1,45
 149 496 149 496 176.5 470.5 c 128,-1,46
 204 445 204 445 258 421 c 1,47,-1
 258 644 l 1,48,43
 207 640 207 640 178 612 c 128,-1,44
388.5 86 m 128,-1,50
 415 118 415 118 415 161 c 128,-1,51
 415 204 415 204 388.5 231.5 c 128,-1,52
 362 259 362 259 312 283 c 1,53,-1
 312 43 l 1,54,49
 362 54 362 54 388.5 86 c 128,-1,50
EndSplineSet
EndChar

StartChar: percent
Encoding: 37 37 8
Width: 698
GlyphClass: 2
Flags: W
LayerCount: 2
Fore
SplineSet
409.5 56.5 m 128,-1,1
 372 100 372 100 372 167 c 128,-1,2
 372 234 372 234 425 287.5 c 128,-1,3
 478 341 478 341 541 341 c 128,-1,4
 604 341 604 341 641.5 297 c 128,-1,5
 679 253 679 253 679 185.5 c 128,-1,6
 679 118 679 118 625.5 65.5 c 128,-1,7
 572 13 572 13 509.5 13 c 128,-1,0
 447 13 447 13 409.5 56.5 c 128,-1,1
72.5 434.5 m 128,-1,9
 35 478 35 478 35 545 c 128,-1,10
 35 612 35 612 88.5 665.5 c 128,-1,11
 142 719 142 719 204.5 719 c 128,-1,12
 267 719 267 719 304.5 675 c 128,-1,13
 342 631 342 631 342 563.5 c 128,-1,14
 342 496 342 496 288.5 443.5 c 128,-1,15
 235 391 235 391 172.5 391 c 128,-1,8
 110 391 110 391 72.5 434.5 c 128,-1,9
93 -12 m 0,16,17
 87 -12 87 -12 87 -4 c 1,18,19
 198 154 198 154 535 713 c 1,20,21
 541 719 541 719 585 719 c 2,22,-1
 593 719 l 1,23,24
 597 718 597 718 597 711 c 1,25,26
 581 680 581 680 389 371 c 128,-1,27
 197 62 197 62 152 3 c 0,28,29
 149 -2 149 -2 125.5 -7 c 128,-1,30
 102 -12 102 -12 93 -12 c 0,16,17
128.5 470.5 m 128,-1,32
 150 432 150 432 193.5 432 c 128,-1,33
 237 432 237 432 253.5 461 c 128,-1,34
 270 490 270 490 270 547.5 c 128,-1,35
 270 605 270 605 246.5 643 c 128,-1,36
 223 681 223 681 184 681 c 128,-1,37
 145 681 145 681 126 649 c 128,-1,38
 107 617 107 617 107 563 c 128,-1,31
 107 509 107 509 128.5 470.5 c 128,-1,32
465.5 92.5 m 128,-1,40
 487 54 487 54 530.5 54 c 128,-1,41
 574 54 574 54 590.5 83 c 128,-1,42
 607 112 607 112 607 169.5 c 128,-1,43
 607 227 607 227 583.5 265 c 128,-1,44
 560 303 560 303 521 303 c 128,-1,45
 482 303 482 303 463 271 c 128,-1,46
 444 239 444 239 444 185 c 128,-1,39
 444 131 444 131 465.5 92.5 c 128,-1,40
EndSplineSet
EndChar

StartChar: ampersand
Encoding: 38 38 9
Width: 822
GlyphClass: 2
Flags: W
LayerCount: 2
Fore
SplineSet
602 448 m 1,0,-1
 722 451 l 1,1,-1
 730 407 l 1,2,3
 659 407 659 407 637 366 c 0,4,5
 624 341 624 341 606 306 c 0,6,7
 570 233 570 233 549 197 c 1,8,-1
 713 71 l 1,9,10
 766 38 766 38 796 32 c 1,11,-1
 809 -3 l 1,12,13
 728 0 728 0 704.5 0 c 128,-1,14
 681 0 681 0 635 -2 c 1,15,-1
 497 110 l 1,16,17
 386 -12 386 -12 259 -12 c 0,18,19
 164 -12 164 -12 104.5 41.5 c 128,-1,20
 45 95 45 95 45 164 c 128,-1,21
 45 233 45 233 80 282.5 c 128,-1,22
 115 332 115 332 197 383 c 1,23,24
 169 413 169 413 155.5 428.5 c 128,-1,25
 142 444 142 444 126 478 c 0,26,27
 108 514 108 514 108 555 c 0,28,29
 108 624 108 624 160 672.5 c 128,-1,30
 212 721 212 721 281.5 721 c 128,-1,31
 351 721 351 721 391.5 685.5 c 128,-1,32
 432 650 432 650 432 597 c 128,-1,33
 432 544 432 544 402 502.5 c 128,-1,34
 372 461 372 461 304 414 c 1,35,-1
 511 228 l 1,36,37
 557 322 557 322 557 367 c 0,38,39
 557 407 557 407 494 407 c 1,40,-1
 485 451 l 1,41,-1
 602 448 l 1,0,-1
148 202 m 0,42,43
 148 138 148 138 187 95.5 c 128,-1,44
 226 53 226 53 291 53 c 0,45,46
 339 53 339 53 385.5 81.5 c 128,-1,47
 432 110 432 110 458 145 c 1,48,-1
 223 354 l 1,49,50
 191 329 191 329 169.5 286 c 128,-1,51
 148 243 148 243 148 202 c 0,42,43
337.5 649 m 128,-1,53
 317 673 317 673 280.5 673 c 128,-1,54
 244 673 244 673 222 647 c 128,-1,55
 200 621 200 621 200 585 c 0,56,57
 200 506 200 506 276 440 c 1,58,59
 358 509 358 509 358 588 c 0,60,52
 358 625 358 625 337.5 649 c 128,-1,53
EndSplineSet
EndChar

StartChar: quotesingle
Encoding: 39 39 10
Width: 192
GlyphClass: 2
Flags: W
LayerCount: 2
Fore
SplineSet
111 531 m 1,0,1
 102 520 102 520 91.5 520 c 128,-1,2
 81 520 81 520 74 524 c 1,3,4
 73 547 73 547 68 585.5 c 128,-1,5
 63 624 63 624 57.5 667 c 128,-1,6
 52 710 52 710 50 723 c 1,7,8
 111 769 111 769 132 772 c 0,9,10
 134 772 134 772 136 770 c 1,11,12
 136 746 136 746 125 642 c 128,-1,13
 114 538 114 538 111 531 c 1,0,1
EndSplineSet
EndChar

StartChar: parenleft
Encoding: 40 40 11
Width: 361
GlyphClass: 2
Flags: W
LayerCount: 2
Fore
SplineSet
60 287 m 0,0,1
 60 426 60 426 118.5 551.5 c 128,-1,2
 177 677 177 677 282 770 c 0,3,4
 285 772 285 772 292.5 772 c 128,-1,5
 300 772 300 772 320.5 765 c 128,-1,6
 341 758 341 758 341 753 c 1,7,8
 240 658 240 658 192.5 545.5 c 128,-1,9
 145 433 145 433 145 289 c 128,-1,10
 145 145 145 145 194 33 c 128,-1,11
 243 -79 243 -79 341 -179 c 1,12,13
 341 -184 341 -184 320.5 -191 c 128,-1,14
 300 -198 300 -198 292.5 -198 c 128,-1,15
 285 -198 285 -198 282 -196 c 0,16,17
 60 3 60 3 60 287 c 0,0,1
EndSplineSet
EndChar

StartChar: parenright
Encoding: 41 41 12
Width: 361
GlyphClass: 2
Flags: W
LayerCount: 2
Fore
SplineSet
301 287 m 0,0,1
 301 3 301 3 79 -196 c 0,2,3
 76 -198 76 -198 68.5 -198 c 128,-1,4
 61 -198 61 -198 40.5 -191 c 128,-1,5
 20 -184 20 -184 20 -179 c 1,6,7
 118 -79 118 -79 167 33 c 128,-1,8
 216 145 216 145 216 289 c 128,-1,9
 216 433 216 433 168.5 545.5 c 128,-1,10
 121 658 121 658 20 753 c 1,11,12
 20 758 20 758 40.5 765 c 128,-1,13
 61 772 61 772 68.5 772 c 128,-1,14
 76 772 76 772 79 770 c 0,15,16
 184 677 184 677 242.5 551.5 c 128,-1,17
 301 426 301 426 301 287 c 0,0,1
EndSplineSet
EndChar

StartChar: asterisk
Encoding: 42 42 13
Width: 362
GlyphClass: 2
Flags: W
LayerCount: 2
Fore
SplineSet
195 660 m 1,0,1
 220 676 220 676 227 676 c 128,-1,2
 234 676 234 676 236 673 c 1,3,4
 236 668 236 668 212 544 c 1,5,6
 315 573 315 573 332 580 c 1,7,8
 334 573 334 573 334 569.5 c 128,-1,9
 334 566 334 566 333 562 c 128,-1,10
 332 558 332 558 325.5 547.5 c 128,-1,11
 319 537 319 537 317.5 535 c 128,-1,12
 316 533 316 533 225 506 c 1,13,-1
 330 422 l 1,14,15
 330 417 330 417 312 412.5 c 128,-1,16
 294 408 294 408 287.5 408 c 128,-1,17
 281 408 281 408 198 476 c 1,18,19
 175 365 175 365 175 352 c 1,20,21
 163 352 163 352 156.5 358.5 c 128,-1,22
 150 365 150 365 144 371.5 c 128,-1,23
 138 378 138 378 136 380 c 1,24,-1
 159 487 l 1,25,-1
 29 448 l 1,26,27
 25 451 25 451 25 458 c 128,-1,28
 25 465 25 465 27 471 c 0,29,30
 33 489 33 489 36 495 c 1,31,32
 51 499 51 499 84 508.5 c 128,-1,33
 117 518 117 518 139 524 c 1,34,-1
 49 597 l 1,35,36
 49 607 49 607 69 612 c 128,-1,37
 89 617 89 617 92 618 c 1,38,-1
 173 550 l 1,39,40
 194 648 194 648 195 660 c 1,0,1
EndSplineSet
EndChar

StartChar: plus
Encoding: 43 43 14
Width: 568
GlyphClass: 2
Flags: W
LayerCount: 2
Fore
SplineSet
252 -5 m 1,0,1
 252 -5 252 -5 254 223 c 1,2,-1
 49 221 l 1,3,4
 37 231 37 231 37 249 c 128,-1,5
 37 267 37 267 39 275 c 1,6,-1
 254 273 l 1,7,-1
 252 457 l 1,8,9
 259 464 259 464 277 469.5 c 128,-1,10
 295 475 295 475 307 475 c 1,11,-1
 305 273 l 1,12,-1
 501 275 l 1,13,14
 519 257 519 257 519 221 c 1,15,-1
 305 223 l 1,16,-1
 307 5 l 1,17,18
 297 -7 297 -7 278.5 -7 c 128,-1,19
 260 -7 260 -7 252 -5 c 1,0,1
EndSplineSet
EndChar

StartChar: comma
Encoding: 44 44 15
Width: 242
GlyphClass: 2
Flags: W
LayerCount: 2
Fore
SplineSet
33 6 m 1,0,1
 20 17 20 17 20 70 c 0,2,3
 20 89 20 89 25 91 c 1,4,5
 44 110 44 110 79.5 110 c 128,-1,6
 115 110 115 110 134.5 86 c 128,-1,7
 154 62 154 62 154 21 c 128,-1,8
 154 -20 154 -20 126.5 -75.5 c 128,-1,9
 99 -131 99 -131 46 -180 c 1,10,11
 44 -180 44 -180 39.5 -180 c 128,-1,12
 35 -180 35 -180 21 -174.5 c 128,-1,13
 7 -169 7 -169 2 -162 c 1,14,15
 85 -79 85 -79 85 -25 c 0,16,17
 85 -6 85 -6 75 2 c 128,-1,18
 65 10 65 10 53.5 8 c 128,-1,19
 42 6 42 6 33 6 c 1,0,1
EndSplineSet
EndChar

StartChar: hyphen
Encoding: 45 45 16
Width: 375
GlyphClass: 2
Flags: W
LayerCount: 2
Fore
SplineSet
67 243 m 1,0,1
 67 243 67 243 200 242 c 1,2,-1
 296 243 l 1,3,4
 304 234 304 234 310 215 c 128,-1,5
 316 196 316 196 316 183 c 1,6,-1
 199 184 l 1,7,-1
 78 183 l 1,8,9
 64 197 64 197 64 215.5 c 128,-1,10
 64 234 64 234 67 243 c 1,0,1
EndSplineSet
EndChar

StartChar: period
Encoding: 46 46 17
Width: 230
GlyphClass: 2
Flags: W
LayerCount: 2
Fore
SplineSet
73 10.5 m 128,-1,1
 57 26 57 26 57 50 c 128,-1,2
 57 74 57 74 74 91.5 c 128,-1,3
 91 109 91 109 116 109 c 128,-1,4
 141 109 141 109 156.5 94.5 c 128,-1,5
 172 80 172 80 172 55.5 c 128,-1,6
 172 31 172 31 155 13 c 128,-1,7
 138 -5 138 -5 113.5 -5 c 128,-1,0
 89 -5 89 -5 73 10.5 c 128,-1,1
EndSplineSet
EndChar

StartChar: slash
Encoding: 47 47 18
Width: 452
GlyphClass: 2
Flags: W
LayerCount: 2
Fore
SplineSet
347 734 m 1,0,1
 364 740 364 740 383 740 c 128,-1,2
 402 740 402 740 412 736 c 1,3,-1
 113 -43 l 1,4,5
 105 -54 105 -54 66 -54 c 0,6,7
 55 -54 55 -54 48 -52 c 1,8,-1
 347 734 l 1,0,1
EndSplineSet
EndChar

StartChar: zero
Encoding: 48 48 19
Width: 593
GlyphClass: 2
Flags: W
LayerCount: 2
Fore
SplineSet
35 335 m 0,0,1
 35 426 35 426 65 506.5 c 128,-1,2
 95 587 95 587 155.5 640 c 128,-1,3
 216 693 216 693 294 693 c 0,4,5
 410 693 410 693 484 593.5 c 128,-1,6
 558 494 558 494 558 346.5 c 128,-1,7
 558 199 558 199 486 93.5 c 128,-1,8
 414 -12 414 -12 297 -12 c 128,-1,9
 180 -12 180 -12 107.5 84.5 c 128,-1,10
 35 181 35 181 35 335 c 0,0,1
315 38 m 0,11,12
 352 38 352 38 379.5 61 c 128,-1,13
 407 84 407 84 422 124 c 0,14,15
 453 204 453 204 453 315 c 0,16,17
 453 440 453 440 420 536 c 0,18,19
 403 587 403 587 368 616.5 c 128,-1,20
 333 646 333 646 285 646 c 128,-1,21
 237 646 237 646 204 604 c 0,22,23
 140 524 140 524 140 373 c 0,24,25
 140 38 140 38 315 38 c 0,11,12
EndSplineSet
EndChar

StartChar: one
Encoding: 49 49 20
Width: 340
GlyphClass: 2
Flags: W
LayerCount: 2
Fore
SplineSet
310 -3 m 1,0,-1
 183 0 l 2,1,2
 179 0 179 0 47 -3 c 1,3,-1
 39 41 l 1,4,5
 102 47 102 47 116 52.5 c 128,-1,6
 130 58 130 58 130 80 c 2,7,-1
 130 568 l 2,8,9
 130 595 130 595 115.5 606.5 c 128,-1,10
 101 618 101 618 75 618 c 128,-1,11
 49 618 49 618 42 617 c 1,12,-1
 33 646 l 1,13,14
 74 646 74 646 137 669 c 2,15,-1
 204 693 l 1,16,17
 217 693 217 693 220.5 690.5 c 128,-1,18
 224 688 224 688 224 677 c 2,19,-1
 225 80 l 2,20,21
 225 59 225 59 239 52 c 128,-1,22
 253 45 253 45 301 41 c 1,23,-1
 310 -3 l 1,0,-1
EndSplineSet
EndChar

StartChar: two
Encoding: 50 50 21
Width: 513
GlyphClass: 2
Flags: W
LayerCount: 2
Fore
SplineSet
305 589 m 128,-1,1
 269 624 269 624 217.5 624 c 128,-1,2
 166 624 166 624 133 600.5 c 128,-1,3
 100 577 100 577 65 527 c 1,4,5
 57 527 57 527 47 532.5 c 128,-1,6
 37 538 37 538 42 548 c 0,7,8
 69 611 69 611 126 651.5 c 128,-1,9
 183 692 183 692 259 692 c 128,-1,10
 335 692 335 692 388.5 644.5 c 128,-1,11
 442 597 442 597 442 522 c 0,12,13
 442 398 442 398 317 252 c 0,14,15
 245 167 245 167 168 86 c 1,16,17
 168 81 168 81 172 81 c 2,18,-1
 334 81 l 2,19,20
 383 81 383 81 404 102.5 c 128,-1,21
 425 124 425 124 442 180 c 1,22,-1
 468 165 l 1,23,24
 468 97 468 97 437 -10 c 1,25,26
 406 1 406 1 284 1 c 2,27,-1
 211 1 l 2,28,29
 89 1 89 1 25 -4 c 1,30,31
 20 8 20 8 20 21 c 1,32,33
 30 30 30 30 68 62 c 0,34,35
 144 124 144 124 215 211 c 0,36,37
 341 367 341 367 341 494 c 0,38,0
 341 554 341 554 305 589 c 128,-1,1
EndSplineSet
EndChar

StartChar: three
Encoding: 51 51 22
Width: 439
GlyphClass: 2
Flags: W
LayerCount: 2
Fore
SplineSet
264 598.5 m 128,-1,1
 234 624 234 624 189 624 c 128,-1,2
 144 624 144 624 103.5 599.5 c 128,-1,3
 63 575 63 575 38 543 c 1,4,5
 32 543 32 543 23.5 551.5 c 128,-1,6
 15 560 15 560 15 568 c 1,7,8
 42 614 42 614 95 653 c 128,-1,9
 148 692 148 692 217 692 c 128,-1,10
 286 692 286 692 332.5 653 c 128,-1,11
 379 614 379 614 379 559 c 0,12,13
 379 528 379 528 370 510.5 c 128,-1,14
 361 493 361 493 356 483.5 c 128,-1,15
 351 474 351 474 339 462.5 c 128,-1,16
 327 451 327 451 320.5 444.5 c 128,-1,17
 314 438 314 438 298 426.5 c 128,-1,18
 282 415 282 415 276 410 c 0,19,20
 255 395 255 395 227 378 c 1,21,-1
 232 374 l 1,22,23
 303 355 303 355 353.5 312.5 c 128,-1,24
 404 270 404 270 404 204.5 c 128,-1,25
 404 139 404 139 358 89 c 128,-1,26
 312 39 312 39 247.5 13.5 c 128,-1,27
 183 -12 183 -12 110 -12 c 128,-1,28
 37 -12 37 -12 21 2 c 1,29,30
 15 5 15 5 17 18.5 c 128,-1,31
 19 32 19 32 21 32 c 0,32,33
 67 30 67 30 82 30 c 0,34,35
 178 30 178 30 240.5 78.5 c 128,-1,36
 303 127 303 127 303 200 c 0,37,38
 303 255 303 255 258 288.5 c 128,-1,39
 213 322 213 322 162.5 322 c 128,-1,40
 112 322 112 322 90 316 c 1,41,42
 85 324 85 324 85 345 c 1,43,44
 202 399 202 399 237 426 c 0,45,46
 293 471 293 471 293.5 522 c 128,-1,0
 294 573 294 573 264 598.5 c 128,-1,1
EndSplineSet
EndChar

StartChar: four
Encoding: 52 52 23
Width: 577
GlyphClass: 2
Flags: W
LayerCount: 2
Fore
SplineSet
419 236 m 2,0,-1
 415 236 l 1,1,-1
 415 -12 l 1,2,3
 407 -11 407 -11 390 -10 c 128,-1,4
 373 -9 373 -9 365 -8 c 0,5,6
 343 -7 343 -7 329 1 c 1,7,-1
 329 236 l 1,8,-1
 46 236 l 2,9,10
 39 236 39 236 32 242 c 128,-1,11
 25 248 25 248 25 253 c 128,-1,12
 25 258 25 258 28 263 c 2,13,-1
 373 679 l 1,14,15
 381 691 381 691 423 693 c 1,16,17
 430 684 430 684 430 677 c 1,18,-1
 429 674 l 1,19,20
 415 651 415 651 415 572 c 2,21,-1
 415 304 l 1,22,-1
 457 304 l 2,23,24
 495 304 495 304 501.5 305.5 c 128,-1,25
 508 307 508 307 518.5 311 c 128,-1,26
 529 315 529 315 542 319 c 1,27,28
 547 311 547 311 547 292 c 128,-1,29
 547 273 547 273 543.5 261 c 128,-1,30
 540 249 540 249 526 225 c 1,31,32
 492 236 492 236 419 236 c 2,0,-1
333 304 m 1,33,-1
 333 558 l 1,34,-1
 126 304 l 1,35,-1
 333 304 l 1,33,-1
EndSplineSet
EndChar

StartChar: five
Encoding: 53 53 24
Width: 440
GlyphClass: 2
Flags: W
LayerCount: 2
Fore
SplineSet
197 679 m 2,0,-1
 281 679 l 2,1,2
 323 679 323 679 341.5 690.5 c 128,-1,3
 360 702 360 702 375 742 c 1,4,-1
 400 728 l 1,5,6
 400 711 400 711 392 665 c 0,7,8
 391 660 391 660 370 593 c 1,9,10
 334 602 334 602 141 602 c 1,11,-1
 107 480 l 1,12,13
 251 467 251 467 317.5 410 c 128,-1,14
 384 353 384 353 384 274 c 128,-1,15
 384 195 384 195 334 131 c 128,-1,16
 284 67 284 67 212.5 34.5 c 128,-1,17
 141 2 141 2 67 0 c 0,18,19
 60 0 60 0 60 16.5 c 128,-1,20
 60 33 60 33 65 33 c 0,21,22
 163 49 163 49 231 102.5 c 128,-1,23
 299 156 299 156 299 244 c 0,24,25
 299 318 299 318 223 361 c 128,-1,26
 147 404 147 404 40 404 c 1,27,-1
 107 665 l 2,28,29
 110 679 110 679 119 688 c 1,30,31
 154 679 154 679 197 679 c 2,0,-1
EndSplineSet
EndChar

StartChar: six
Encoding: 54 54 25
Width: 518
GlyphClass: 2
Flags: W
LayerCount: 2
Fore
SplineSet
285 406 m 0,0,1
 358 406 358 406 418 350.5 c 128,-1,2
 478 295 478 295 478 208 c 128,-1,3
 478 121 478 121 419.5 54.5 c 128,-1,4
 361 -12 361 -12 257 -12 c 128,-1,5
 153 -12 153 -12 94 51.5 c 128,-1,6
 35 115 35 115 35 228 c 128,-1,7
 35 341 35 341 126.5 475.5 c 128,-1,8
 218 610 218 610 349 693 c 1,9,10
 358 690 358 690 370.5 679.5 c 128,-1,11
 383 669 383 669 378 664 c 0,12,13
 294 589 294 589 230 507 c 128,-1,14
 166 425 166 425 158 368 c 1,15,16
 171 381 171 381 208.5 393.5 c 128,-1,17
 246 406 246 406 285 406 c 0,0,1
151 314 m 0,18,19
 130 286 130 286 130 207.5 c 128,-1,20
 130 129 130 129 167 83.5 c 128,-1,21
 204 38 204 38 264.5 38 c 128,-1,22
 325 38 325 38 354 81.5 c 128,-1,23
 383 125 383 125 383 193 c 128,-1,24
 383 261 383 261 348 311.5 c 128,-1,25
 313 362 313 362 254 362 c 0,26,27
 225 362 225 362 195 348 c 128,-1,28
 165 334 165 334 151 314 c 0,18,19
EndSplineSet
EndChar

StartChar: seven
Encoding: 55 55 26
Width: 514
GlyphClass: 2
Flags: W
LayerCount: 2
Fore
SplineSet
376 681 m 2,0,1
 471 681 471 681 503 689 c 1,2,3
 508 681 508 681 508 670 c 1,4,-1
 208 -12 l 1,5,6
 199 -11 199 -11 193 -9 c 128,-1,7
 187 -7 187 -7 177 -6 c 128,-1,8
 167 -5 167 -5 163.5 -3.5 c 128,-1,9
 160 -2 160 -2 161 1 c 2,10,-1
 400 586 l 2,11,12
 402 590 402 590 399.5 593.5 c 128,-1,13
 397 597 397 597 393 597 c 2,14,-1
 152 597 l 2,15,16
 109 597 109 597 87.5 580.5 c 128,-1,17
 66 564 66 564 50 520 c 1,18,-1
 25 534 l 1,19,20
 25 598 25 598 46 654 c 0,21,22
 56 678 56 678 60 690 c 1,23,24
 85 683 85 683 216 681 c 1,25,-1
 376 681 l 2,0,1
EndSplineSet
EndChar

StartChar: eight
Encoding: 56 56 27
Width: 508
GlyphClass: 2
Flags: W
LayerCount: 2
Fore
SplineSet
41 168 m 0,0,1
 41 232 41 232 76.5 275.5 c 128,-1,2
 112 319 112 319 169 354 c 1,3,4
 55 421 55 421 55 515 c 0,5,6
 55 589 55 589 111.5 640.5 c 128,-1,7
 168 692 168 692 255.5 692 c 128,-1,8
 343 692 343 692 392 647.5 c 128,-1,9
 441 603 441 603 441 545 c 0,10,11
 441 444 441 444 327 361 c 1,12,13
 394 328 394 328 431 285 c 128,-1,14
 468 242 468 242 468 167.5 c 128,-1,15
 468 93 468 93 408 40.5 c 128,-1,16
 348 -12 348 -12 256.5 -12 c 128,-1,17
 165 -12 165 -12 103 36.5 c 128,-1,18
 41 85 41 85 41 168 c 0,0,1
383 161 m 0,19,20
 383 191 383 191 372.5 207 c 128,-1,21
 362 223 362 223 355.5 232.5 c 128,-1,22
 349 242 349 242 335 252.5 c 128,-1,23
 321 263 321 263 312.5 270 c 128,-1,24
 304 277 304 277 286 287.5 c 128,-1,25
 268 298 268 298 259 303 c 0,26,27
 214 328 214 328 200 335 c 1,28,29
 169 307 169 307 147.5 265.5 c 128,-1,30
 126 224 126 224 126 170.5 c 128,-1,31
 126 117 126 117 162 77.5 c 128,-1,32
 198 38 198 38 256 38 c 128,-1,33
 314 38 314 38 348.5 72 c 128,-1,34
 383 106 383 106 383 161 c 0,19,20
168 612.5 m 128,-1,36
 140 578 140 578 140 542 c 128,-1,37
 140 506 140 506 151 482 c 128,-1,38
 162 458 162 458 188 438 c 128,-1,39
 214 418 214 418 232.5 408 c 128,-1,40
 251 398 251 398 291 378 c 1,41,42
 356 451 356 451 356 532 c 0,43,44
 356 581 356 581 326.5 614 c 128,-1,45
 297 647 297 647 246.5 647 c 128,-1,35
 196 647 196 647 168 612.5 c 128,-1,36
EndSplineSet
EndChar

StartChar: nine
Encoding: 57 57 28
Width: 518
GlyphClass: 2
Flags: W
LayerCount: 2
Fore
SplineSet
233 274 m 0,0,1
 160 274 160 274 100 329.5 c 128,-1,2
 40 385 40 385 40 472 c 128,-1,3
 40 559 40 559 98.5 625.5 c 128,-1,4
 157 692 157 692 261 692 c 128,-1,5
 365 692 365 692 424 628.5 c 128,-1,6
 483 565 483 565 483 451 c 128,-1,7
 483 337 483 337 404 205.5 c 128,-1,8
 325 74 325 74 199 -13 c 1,9,10
 192 -11 192 -11 183.5 0 c 128,-1,11
 175 11 175 11 180 16 c 0,12,13
 254 84 254 84 302 166 c 128,-1,14
 350 248 350 248 356 312 c 1,15,16
 342 298 342 298 307 286 c 128,-1,17
 272 274 272 274 233 274 c 0,0,1
367 366 m 0,18,19
 388 394 388 394 388 472.5 c 128,-1,20
 388 551 388 551 350 599.5 c 128,-1,21
 312 648 312 648 253 648 c 128,-1,22
 194 648 194 648 164.5 602 c 128,-1,23
 135 556 135 556 135 487.5 c 128,-1,24
 135 419 135 419 170 371.5 c 128,-1,25
 205 324 205 324 264 324 c 0,26,27
 295 324 295 324 324 335.5 c 128,-1,28
 353 347 353 347 367 366 c 0,18,19
EndSplineSet
EndChar

StartChar: colon
Encoding: 58 58 29
Width: 243
GlyphClass: 2
Flags: W
LayerCount: 2
Fore
SplineSet
76 52 m 128,-1,1
 76 78 76 78 94 97 c 128,-1,2
 112 116 112 116 139.5 116 c 128,-1,3
 167 116 167 116 184 100.5 c 128,-1,4
 201 85 201 85 201 58 c 128,-1,5
 201 31 201 31 182 11.5 c 128,-1,6
 163 -8 163 -8 137 -8 c 128,-1,7
 111 -8 111 -8 93.5 9 c 128,-1,0
 76 26 76 26 76 52 c 128,-1,1
76 322 m 128,-1,9
 76 348 76 348 94 367 c 128,-1,10
 112 386 112 386 139.5 386 c 128,-1,11
 167 386 167 386 184 370.5 c 128,-1,12
 201 355 201 355 201 328 c 128,-1,13
 201 301 201 301 182 281.5 c 128,-1,14
 163 262 163 262 137 262 c 128,-1,15
 111 262 111 262 93.5 279 c 128,-1,8
 76 296 76 296 76 322 c 128,-1,9
EndSplineSet
EndChar

StartChar: semicolon
Encoding: 59 59 30
Width: 298
GlyphClass: 2
Flags: W
LayerCount: 2
Fore
SplineSet
111 6 m 1,0,1
 98 17 98 17 98 70 c 0,2,3
 98 89 98 89 103 91 c 1,4,5
 122 110 122 110 157.5 110 c 128,-1,6
 193 110 193 110 212.5 86 c 128,-1,7
 232 62 232 62 232 21 c 128,-1,8
 232 -20 232 -20 204.5 -75.5 c 128,-1,9
 177 -131 177 -131 124 -180 c 1,10,11
 122 -180 122 -180 117.5 -180 c 128,-1,12
 113 -180 113 -180 99 -174.5 c 128,-1,13
 85 -169 85 -169 80 -162 c 1,14,15
 163 -79 163 -79 163 -25 c 0,16,17
 163 -6 163 -6 153 2 c 128,-1,18
 143 10 143 10 131.5 8 c 128,-1,19
 120 6 120 6 111 6 c 1,0,1
79 322 m 128,-1,21
 79 348 79 348 97 367 c 128,-1,22
 115 386 115 386 142.5 386 c 128,-1,23
 170 386 170 386 187 370.5 c 128,-1,24
 204 355 204 355 204 328 c 128,-1,25
 204 301 204 301 185 281.5 c 128,-1,26
 166 262 166 262 140 262 c 128,-1,27
 114 262 114 262 96.5 279 c 128,-1,20
 79 296 79 296 79 322 c 128,-1,21
EndSplineSet
EndChar

StartChar: less
Encoding: 60 60 31
Width: 500
GlyphClass: 2
Flags: W
LayerCount: 2
Fore
SplineSet
471 491.5 m 128,-1,1
 471 464 471 464 467 452 c 1,2,-1
 156 275 l 1,3,-1
 156 271 l 1,4,-1
 467 93 l 1,5,6
 472 65 472 65 472 46.5 c 128,-1,7
 472 28 472 28 467 20 c 1,8,-1
 78 233 l 1,9,10
 73 238 73 238 68.5 262 c 128,-1,11
 64 286 64 286 64 293.5 c 128,-1,12
 64 301 64 301 65 303 c 1,13,-1
 467 524 l 1,14,0
 471 519 471 519 471 491.5 c 128,-1,1
EndSplineSet
EndChar

StartChar: equal
Encoding: 61 61 32
Width: 527
GlyphClass: 2
Flags: W
LayerCount: 2
Fore
SplineSet
47 203 m 1,0,1
 47 203 47 203 262 201 c 1,2,-1
 459 203 l 1,3,4
 467 194 467 194 473 175 c 128,-1,5
 479 156 479 156 479 143 c 1,6,-1
 261 145 l 1,7,-1
 58 143 l 1,8,9
 44 157 44 157 44 175.5 c 128,-1,10
 44 194 44 194 47 203 c 1,0,1
47 351 m 1,11,-1
 262 349 l 1,12,-1
 459 351 l 1,13,14
 467 342 467 342 473 323 c 128,-1,15
 479 304 479 304 479 291 c 1,16,-1
 261 293 l 1,17,-1
 58 291 l 1,18,19
 44 305 44 305 44 323.5 c 128,-1,20
 44 342 44 342 47 351 c 1,11,-1
EndSplineSet
EndChar

StartChar: greater
Encoding: 62 62 33
Width: 547
GlyphClass: 2
Flags: W
LayerCount: 2
Fore
SplineSet
469 303 m 1,0,1
 470 300 470 300 470 293 c 128,-1,2
 470 286 470 286 466 262.5 c 128,-1,3
 462 239 462 239 456 233 c 1,4,-1
 67 20 l 1,5,6
 62 28 62 28 62 46.5 c 128,-1,7
 62 65 62 65 67 93 c 1,8,-1
 378 271 l 1,9,-1
 378 275 l 1,10,-1
 67 452 l 1,11,12
 63 464 63 464 63 491.5 c 128,-1,13
 63 519 63 519 67 524 c 1,14,-1
 469 303 l 1,0,1
EndSplineSet
EndChar

StartChar: question
Encoding: 63 63 34
Width: 380
GlyphClass: 2
Flags: W
LayerCount: 2
Fore
SplineSet
187 596 m 1,0,-1
 116 590 l 1,1,2
 103 596 103 596 103 666 c 0,3,4
 103 679 103 679 110.5 685 c 128,-1,5
 118 691 118 691 147 691 c 128,-1,6
 176 691 176 691 206 678 c 0,7,8
 271 650 271 650 306.5 600 c 128,-1,9
 342 550 342 550 342 500.5 c 128,-1,10
 342 451 342 451 324 419 c 128,-1,11
 306 387 306 387 259 356.5 c 128,-1,12
 212 326 212 326 193.5 304 c 128,-1,13
 175 282 175 282 175 253 c 128,-1,14
 175 224 175 224 191 207 c 1,15,16
 185 194 185 194 177 194 c 0,17,18
 171 194 171 194 139 214 c 0,19,20
 129 221 129 221 115 241.5 c 128,-1,21
 101 262 101 262 101 289 c 0,22,23
 101 357 101 357 168 398 c 0,24,25
 251 448 251 448 269 465 c 128,-1,26
 287 482 287 482 287 515 c 128,-1,27
 287 548 287 548 259 572 c 128,-1,28
 231 596 231 596 187 596 c 1,0,-1
129.5 4 m 128,-1,30
 115 18 115 18 115 39 c 128,-1,31
 115 60 115 60 130 75.5 c 128,-1,32
 145 91 145 91 166.5 91 c 128,-1,33
 188 91 188 91 202.5 77.5 c 128,-1,34
 217 64 217 64 217 43 c 128,-1,35
 217 22 217 22 202 6 c 128,-1,36
 187 -10 187 -10 165.5 -10 c 128,-1,29
 144 -10 144 -10 129.5 4 c 128,-1,30
EndSplineSet
EndChar

StartChar: at
Encoding: 64 64 35
Width: 843
GlyphClass: 2
Flags: W
LayerCount: 2
Fore
SplineSet
387.5 26 m 128,-1,1
 350 -8 350 -8 317 -8 c 128,-1,2
 284 -8 284 -8 262.5 14.5 c 128,-1,3
 241 37 241 37 241 76 c 128,-1,4
 241 115 241 115 253 164 c 128,-1,5
 265 213 265 213 279 244 c 0,6,7
 308 307 308 307 358 354.5 c 128,-1,8
 408 402 408 402 472 402 c 0,9,10
 501 402 501 402 534 372 c 1,11,-1
 546 411 l 1,12,13
 574 424 574 424 607 424 c 1,14,15
 543 73 543 73 543 66.5 c 128,-1,16
 543 60 543 60 553 60 c 0,17,18
 597 60 597 60 655.5 141 c 128,-1,19
 714 222 714 222 714 342 c 0,20,21
 714 438 714 438 661.5 485.5 c 128,-1,22
 609 533 609 533 518 533 c 0,23,24
 432 533 432 533 340 472 c 0,25,26
 290 440 290 440 250.5 394 c 128,-1,27
 211 348 211 348 185 275.5 c 128,-1,28
 159 203 159 203 159 118 c 0,29,30
 159 -8 159 -8 224.5 -84.5 c 128,-1,31
 290 -161 290 -161 396 -161 c 1,32,33
 397 -162 397 -162 397 -166 c 0,34,35
 397 -188 397 -188 347 -188 c 0,36,37
 274 -188 274 -188 203 -142 c 0,38,39
 119 -88 119 -88 86 4 c 0,40,41
 67 57 67 57 67 131 c 128,-1,42
 67 205 67 205 105.5 288.5 c 128,-1,43
 144 372 144 372 208.5 436 c 128,-1,44
 273 500 273 500 362 540 c 128,-1,45
 451 580 451 580 546 580 c 0,46,47
 668 580 668 580 734.5 514.5 c 128,-1,48
 801 449 801 449 801 352 c 0,49,50
 801 286 801 286 769 218 c 128,-1,51
 737 150 737 150 690 100.5 c 128,-1,52
 643 51 643 51 588 19.5 c 128,-1,53
 533 -12 533 -12 487 -12 c 0,54,55
 458 -12 458 -12 458 21 c 0,56,57
 458 44 458 44 487 155 c 1,58,59
 470 125 470 125 447.5 92.5 c 128,-1,0
 425 60 425 60 387.5 26 c 128,-1,1
513 309 m 2,60,61
 513 330 513 330 501 345 c 128,-1,62
 489 360 489 360 468 360 c 0,63,64
 413 360 413 360 368.5 281.5 c 128,-1,65
 324 203 324 203 324 119 c 0,66,67
 324 65 324 65 354.5 65 c 128,-1,68
 385 65 385 65 458 159 c 0,69,70
 505 221 505 221 513 301 c 1,71,-1
 513 309 l 2,60,61
EndSplineSet
EndChar

StartChar: A
Encoding: 65 65 36
Width: 726
GlyphClass: 2
Flags: W
LayerCount: 2
Fore
SplineSet
119 4 m 1,0,-1
 15 0 l 1,1,-1
 5 46 l 1,2,-1
 11 46 l 1,3,4
 57 51 57 51 81.5 71.5 c 128,-1,5
 106 92 106 92 123 139 c 2,6,-1
 335 710 l 1,7,-1
 383 710 l 1,8,-1
 619 123 l 1,9,10
 640 74 640 74 656.5 59 c 128,-1,11
 673 44 673 44 710 44 c 1,12,-1
 721 0 l 1,13,14
 643 5 643 5 580.5 5 c 128,-1,15
 518 5 518 5 459 0 c 1,16,-1
 450 43 l 1,17,-1
 454 43 l 1,18,19
 533 44 533 44 533 71 c 0,20,21
 533 84 533 84 461 249 c 1,22,-1
 212 249 l 1,23,-1
 163 113 l 1,24,25
 160 101 160 101 160 92 c 0,26,27
 160 71 160 71 179 60 c 128,-1,28
 198 49 198 49 244 46 c 1,29,-1
 256 0 l 1,30,-1
 119 4 l 1,0,-1
327 565 m 1,31,-1
 231 301 l 1,32,-1
 438 301 l 1,33,-1
 327 565 l 1,31,-1
EndSplineSet
EndChar

StartChar: B
Encoding: 66 66 37
Width: 621
GlyphClass: 2
Flags: W
LayerCount: 2
Fore
SplineSet
30 713 m 1,0,-1
 153 710 l 1,1,-1
 318 714 l 1,2,3
 534 714 534 714 534 555 c 0,4,5
 534 440 534 440 412 389 c 0,6,7
 410 389 410 389 410 387 c 128,-1,8
 410 385 410 385 412 385 c 0,9,10
 474 378 474 378 530 329 c 128,-1,11
 586 280 586 280 586 207 c 0,12,13
 586 106 586 106 517.5 51 c 128,-1,14
 449 -4 449 -4 317 -4 c 1,15,-1
 154 0 l 1,16,-1
 43 -3 l 1,17,-1
 35 41 l 1,18,19
 91 47 91 47 103.5 52.5 c 128,-1,20
 116 58 116 58 116 80 c 2,21,-1
 116 630 l 2,22,23
 116 650 116 650 101.5 657.5 c 128,-1,24
 87 665 87 665 39 669 c 1,25,-1
 30 713 l 1,0,-1
215.5 661.5 m 128,-1,27
 207 656 207 656 207 650 c 2,28,-1
 207 399 l 2,29,30
 207 389 207 389 217 388 c 1,31,-1
 275 388 l 2,32,33
 351 388 351 388 390 427 c 128,-1,34
 429 466 429 466 429 534.5 c 128,-1,35
 429 603 429 603 390.5 635 c 128,-1,36
 352 667 352 667 288 667 c 128,-1,26
 224 667 224 667 215.5 661.5 c 128,-1,27
207 108 m 2,37,38
 207 41 207 41 300.5 41 c 128,-1,39
 394 41 394 41 434.5 84.5 c 128,-1,40
 475 128 475 128 475 190 c 0,41,42
 475 276 475 276 423 309 c 128,-1,43
 371 342 371 342 286 342 c 2,44,-1
 217 342 l 2,45,46
 207 342 207 342 207 331 c 2,47,-1
 207 108 l 2,37,38
EndSplineSet
EndChar

StartChar: C
Encoding: 67 67 38
Width: 762
GlyphClass: 2
Flags: W
LayerCount: 2
Fore
SplineSet
226.5 587.5 m 128,-1,1
 157 501 157 501 157 364.5 c 128,-1,2
 157 228 157 228 238 133 c 128,-1,3
 319 38 319 38 448 38 c 0,4,5
 625 38 625 38 688 191 c 1,6,-1
 717 185 l 1,7,8
 717 174 717 174 697.5 109.5 c 128,-1,9
 678 45 678 45 669 45 c 1,10,11
 568 -12 568 -12 428 -12 c 0,12,13
 261 -12 261 -12 156.5 87 c 128,-1,14
 52 186 52 186 52 341 c 0,15,16
 52 517 52 517 160.5 619.5 c 128,-1,17
 269 722 269 722 441 722 c 0,18,19
 504 722 504 722 590.5 704.5 c 128,-1,20
 677 687 677 687 686 686 c 1,21,22
 693 671 693 671 693 619 c 128,-1,23
 693 567 693 567 688 512 c 1,24,-1
 660 515 l 1,25,26
 652 573 652 573 627 605 c 0,27,28
 573 674 573 674 434.5 674 c 128,-1,0
 296 674 296 674 226.5 587.5 c 128,-1,1
EndSplineSet
EndChar

StartChar: D
Encoding: 68 68 39
Width: 803
GlyphClass: 2
Flags: W
LayerCount: 2
Fore
SplineSet
152 0 m 1,0,-1
 41 -3 l 1,1,-1
 33 41 l 1,2,3
 89 47 89 47 101.5 52.5 c 128,-1,4
 114 58 114 58 114 80 c 2,5,-1
 114 629 l 2,6,7
 114 649 114 649 99.5 656.5 c 128,-1,8
 85 664 85 664 37 668 c 1,9,-1
 28 712 l 1,10,-1
 151 709 l 1,11,-1
 358 711 l 1,12,13
 549 711 549 711 656 620 c 128,-1,14
 763 529 763 529 763 365 c 128,-1,15
 763 201 763 201 653 99 c 128,-1,16
 543 -3 543 -3 341 -3 c 1,17,18
 341 -3 341 -3 152 0 c 1,0,-1
583.5 126.5 m 128,-1,20
 658 205 658 205 658 352.5 c 128,-1,21
 658 500 658 500 573.5 582 c 128,-1,22
 489 664 489 664 333 664 c 2,23,-1
 256 664 l 2,24,25
 205 664 205 664 205 644 c 2,26,-1
 205 129 l 2,27,28
 205 109 205 109 206.5 100 c 128,-1,29
 208 91 208 91 215.5 78.5 c 128,-1,30
 223 66 223 66 240 61 c 0,31,32
 284 48 284 48 369 48 c 0,33,19
 509 48 509 48 583.5 126.5 c 128,-1,20
EndSplineSet
EndChar

StartChar: E
Encoding: 69 69 40
Width: 649
GlyphClass: 2
Flags: W
LayerCount: 2
Fore
SplineSet
392 666 m 2,0,-1
 279 665 l 1,1,2
 209 662 209 662 209 649 c 2,3,-1
 209 399 l 2,4,5
 209 389 209 389 219 389 c 2,6,-1
 378 389 l 2,7,8
 402 389 402 389 410.5 411.5 c 128,-1,9
 419 434 419 434 419 495 c 1,10,-1
 452 500 l 1,11,-1
 450 367 l 1,12,-1
 452 244 l 1,13,-1
 419 239 l 1,14,15
 419 298 419 298 412 315 c 128,-1,16
 405 332 405 332 378 332 c 2,17,-1
 219 332 l 2,18,19
 209 332 209 332 209 323 c 2,20,-1
 209 113 l 2,21,22
 209 69 209 69 227 57.5 c 128,-1,23
 245 46 245 46 306 46 c 2,24,-1
 403 46 l 2,25,26
 479 46 479 46 522 81.5 c 128,-1,27
 565 117 565 117 590 191 c 1,28,-1
 624 185 l 1,29,30
 624 167 624 167 598 83.5 c 128,-1,31
 572 0 572 0 561 0 c 2,32,-1
 306 -2 l 2,33,34
 280 -2 280 -2 154 0 c 1,35,-1
 43 -3 l 1,36,-1
 35 41 l 1,37,38
 91 47 91 47 103.5 52.5 c 128,-1,39
 116 58 116 58 118 80 c 1,40,-1
 118 630 l 2,41,42
 118 651 118 651 104 658 c 128,-1,43
 90 665 90 665 39 669 c 1,44,-1
 30 713 l 1,45,-1
 155 710 l 1,46,-1
 316 710 l 1,47,-1
 563 709 l 1,48,49
 570 694 570 694 570 642 c 128,-1,50
 570 590 570 590 565 535 c 1,51,-1
 533 538 l 1,52,53
 521 609 521 609 489 637.5 c 128,-1,54
 457 666 457 666 392 666 c 2,0,-1
EndSplineSet
EndChar

StartChar: F
Encoding: 70 70 41
Width: 575
GlyphClass: 2
Flags: W
LayerCount: 2
Fore
SplineSet
382 666 m 2,0,-1
 279 665 l 1,1,2
 209 662 209 662 209 649 c 2,3,-1
 209 399 l 2,4,5
 209 389 209 389 219 389 c 2,6,-1
 368 389 l 2,7,8
 392 389 392 389 400.5 411.5 c 128,-1,9
 409 434 409 434 409 495 c 1,10,-1
 442 500 l 1,11,-1
 440 367 l 1,12,-1
 442 244 l 1,13,-1
 409 239 l 1,14,15
 409 298 409 298 402 315 c 128,-1,16
 395 332 395 332 368 332 c 2,17,-1
 219 332 l 2,18,19
 209 332 209 332 209 323 c 2,20,-1
 209 89 l 2,21,22
 209 59 209 59 229.5 50 c 128,-1,23
 250 41 250 41 316 41 c 1,24,-1
 326 -2 l 1,25,-1
 188 0 l 2,26,27
 175 0 175 0 43 -3 c 1,28,-1
 35 41 l 1,29,30
 91 47 91 47 103.5 52.5 c 128,-1,31
 116 58 116 58 118 80 c 1,32,-1
 118 630 l 2,33,34
 118 651 118 651 104 658 c 128,-1,35
 90 665 90 665 39 669 c 1,36,-1
 30 713 l 1,37,-1
 155 710 l 1,38,-1
 306 710 l 1,39,-1
 553 709 l 1,40,41
 560 694 560 694 560 642 c 128,-1,42
 560 590 560 590 555 535 c 1,43,-1
 523 538 l 1,44,45
 511 609 511 609 479 637.5 c 128,-1,46
 447 666 447 666 382 666 c 2,0,-1
EndSplineSet
EndChar

StartChar: G
Encoding: 71 71 42
Width: 808
GlyphClass: 2
Flags: W
LayerCount: 2
Fore
SplineSet
427 675 m 0,0,1
 299 675 299 675 227 587.5 c 128,-1,2
 155 500 155 500 155 373 c 0,3,4
 155 224 155 224 230 131 c 128,-1,5
 305 38 305 38 441 38 c 0,6,7
 534 38 534 38 580 74 c 0,8,9
 608 96 608 96 608 131 c 2,10,-1
 608 209 l 2,11,12
 608 252 608 252 586 264.5 c 128,-1,13
 564 277 564 277 481 277 c 1,14,-1
 472 321 l 1,15,16
 529 317 529 317 617.5 317 c 128,-1,17
 706 317 706 317 765 321 c 1,18,-1
 773 277 l 1,19,20
 724 277 724 277 711 264.5 c 128,-1,21
 698 252 698 252 698 209 c 2,22,-1
 698 130 l 2,23,24
 698 53 698 53 692 53 c 1,25,26
 577 -12 577 -12 427 -12 c 0,27,28
 251 -12 251 -12 150.5 85.5 c 128,-1,29
 50 183 50 183 50 349.5 c 128,-1,30
 50 516 50 516 161 619 c 128,-1,31
 272 722 272 722 441 722 c 0,32,33
 501 722 501 722 585 704.5 c 128,-1,34
 669 687 669 687 681 686 c 1,35,36
 688 671 688 671 688 619 c 128,-1,37
 688 567 688 567 683 512 c 1,38,-1
 655 515 l 1,39,40
 647 573 647 573 622 605 c 128,-1,41
 597 637 597 637 546.5 656 c 128,-1,42
 496 675 496 675 427 675 c 0,0,1
EndSplineSet
EndChar

StartChar: H
Encoding: 72 72 43
Width: 787
GlyphClass: 2
Flags: W
LayerCount: 2
Fore
SplineSet
154 710 m 1,0,-1
 274 713 l 1,1,-1
 282 669 l 1,2,3
 226 663 226 663 214 657.5 c 128,-1,4
 202 652 202 652 202 630 c 2,5,-1
 202 388 l 1,6,-1
 582 388 l 1,7,-1
 582 630 l 2,8,9
 582 649 582 649 568.5 657 c 128,-1,10
 555 665 555 665 515 669 c 1,11,-1
 506 713 l 1,12,-1
 626 710 l 1,13,-1
 749 713 l 1,14,-1
 757 669 l 1,15,16
 700 663 700 663 686.5 657.5 c 128,-1,17
 673 652 673 652 673 630 c 2,18,-1
 673 80 l 2,19,20
 673 60 673 60 686.5 52.5 c 128,-1,21
 700 45 700 45 741 41 c 1,22,-1
 750 -3 l 1,23,-1
 632 0 l 1,24,-1
 507 -3 l 1,25,-1
 499 41 l 1,26,27
 565 49 565 49 573.5 55.5 c 128,-1,28
 582 62 582 62 582 77 c 2,29,-1
 582 333 l 1,30,-1
 202 333 l 1,31,-1
 202 80 l 2,32,33
 202 60 202 60 215 52.5 c 128,-1,34
 228 45 228 45 269 41 c 1,35,-1
 278 -3 l 1,36,-1
 161 0 l 1,37,-1
 38 -3 l 1,38,-1
 30 41 l 1,39,40
 86 47 86 47 98.5 52.5 c 128,-1,41
 111 58 111 58 111 80 c 2,42,-1
 111 630 l 2,43,44
 111 649 111 649 98.5 657 c 128,-1,45
 86 665 86 665 46 669 c 1,46,-1
 37 713 l 1,47,-1
 154 710 l 1,0,-1
EndSplineSet
EndChar

StartChar: I
Encoding: 73 73 44
Width: 353
GlyphClass: 2
Flags: W
LayerCount: 2
Fore
SplineSet
46 713 m 1,0,-1
 172 710 l 2,1,2
 173 710 173 710 305 713 c 1,3,-1
 313 669 l 1,4,5
 250 663 250 663 236 657.5 c 128,-1,6
 222 652 222 652 222 630 c 2,7,-1
 222 80 l 2,8,9
 222 59 222 59 236 52 c 128,-1,10
 250 45 250 45 298 41 c 1,11,-1
 307 -3 l 1,12,-1
 181 0 l 2,13,14
 180 0 180 0 48 -3 c 1,15,-1
 40 41 l 1,16,17
 103 47 103 47 117 52.5 c 128,-1,18
 131 58 131 58 131 80 c 2,19,-1
 131 630 l 2,20,21
 131 651 131 651 117 658 c 128,-1,22
 103 665 103 665 55 669 c 1,23,-1
 46 713 l 1,0,-1
EndSplineSet
EndChar

StartChar: J
Encoding: 74 74 45
Width: 332
GlyphClass: 2
Flags: W
LayerCount: 2
Fore
SplineSet
50 713 m 1,0,-1
 176 710 l 2,1,2
 177 710 177 710 309 713 c 1,3,-1
 317 669 l 1,4,5
 254 663 254 663 240 657.5 c 128,-1,6
 226 652 226 652 226 630 c 2,7,-1
 226 56 l 2,8,9
 226 -50 226 -50 172.5 -131.5 c 128,-1,10
 119 -213 119 -213 25 -256 c 1,11,12
 17 -256 17 -256 11 -249 c 0,13,14
 0 -235 0 -235 0 -232 c 128,-1,15
 0 -229 0 -229 4 -226 c 0,16,17
 84 -169 84 -169 109.5 -112.5 c 128,-1,18
 135 -56 135 -56 135 71 c 2,19,-1
 135 630 l 2,20,21
 135 651 135 651 121 658 c 128,-1,22
 107 665 107 665 59 669 c 1,23,-1
 50 713 l 1,0,-1
EndSplineSet
EndChar

StartChar: K
Encoding: 75 75 46
Width: 702
GlyphClass: 2
Flags: W
LayerCount: 2
Fore
SplineSet
628 -1 m 2,0,-1
 528 -3 l 1,1,-1
 272 284 l 1,2,3
 232 331 232 331 202 337 c 1,4,-1
 202 80 l 2,5,6
 202 60 202 60 215 52.5 c 128,-1,7
 228 45 228 45 269 41 c 1,8,-1
 278 -3 l 1,9,-1
 161 0 l 1,10,-1
 38 -3 l 1,11,-1
 30 41 l 1,12,13
 86 47 86 47 98.5 52.5 c 128,-1,14
 111 58 111 58 111 80 c 2,15,-1
 111 630 l 2,16,17
 111 649 111 649 98.5 657 c 128,-1,18
 86 665 86 665 46 669 c 1,19,-1
 37 713 l 1,20,-1
 154 710 l 1,21,-1
 274 713 l 1,22,-1
 282 669 l 1,23,24
 226 663 226 663 214 657.5 c 128,-1,25
 202 652 202 652 202 630 c 2,26,-1
 202 356 l 1,27,28
 255 399 255 399 354.5 504.5 c 128,-1,29
 454 610 454 610 466 622 c 1,30,31
 480 639 480 639 480 645 c 0,32,33
 480 667 480 667 422 671 c 1,34,-1
 410 714 l 1,35,-1
 547 710 l 1,36,-1
 651 714 l 1,37,-1
 661 671 l 1,38,-1
 655 671 l 2,39,40
 622 671 622 671 587 658.5 c 128,-1,41
 552 646 552 646 531 623 c 2,42,-1
 311 389 l 1,43,-1
 606 70 l 1,44,45
 644 35 644 35 689 31 c 1,46,-1
 702 -3 l 1,47,48
 648 -1 648 -1 628 -1 c 2,0,-1
EndSplineSet
EndChar

StartChar: L
Encoding: 76 76 47
Width: 614
GlyphClass: 2
Flags: W
LayerCount: 2
Fore
SplineSet
158 709 m 1,0,-1
 282 712 l 1,1,-1
 290 668 l 1,2,3
 234 662 234 662 221.5 656.5 c 128,-1,4
 209 651 209 651 209 629 c 2,5,-1
 209 113 l 2,6,7
 209 72 209 72 226 59 c 128,-1,8
 243 46 243 46 276 46 c 2,9,-1
 373 46 l 2,10,11
 449 46 449 46 492 81.5 c 128,-1,12
 535 117 535 117 560 191 c 1,13,-1
 594 185 l 1,14,15
 594 167 594 167 568 83.5 c 128,-1,16
 542 0 542 0 531 0 c 2,17,-1
 276 -2 l 1,18,-1
 154 0 l 1,19,-1
 43 -3 l 1,20,-1
 35 41 l 1,21,22
 92 47 92 47 105 53 c 128,-1,23
 118 59 118 59 118 80 c 2,24,-1
 118 629 l 2,25,26
 118 650 118 650 104 657 c 128,-1,27
 90 664 90 664 39 668 c 1,28,-1
 30 712 l 1,29,-1
 158 709 l 1,0,-1
EndSplineSet
EndChar

StartChar: M
Encoding: 77 77 48
Width: 984
GlyphClass: 2
Flags: W
LayerCount: 2
Fore
SplineSet
30 713 m 1,0,-1
 153 710 l 1,1,2
 207 710 207 710 226 713 c 1,3,4
 236 685 236 685 294.5 563 c 128,-1,5
 353 441 353 441 363.5 415.5 c 128,-1,6
 374 390 374 390 429 285 c 128,-1,7
 484 180 484 180 502 153 c 1,8,9
 511 170 511 170 563.5 290 c 128,-1,10
 616 410 616 410 624 429 c 1,11,12
 650 480 650 480 700.5 589.5 c 128,-1,13
 751 699 751 699 751 712 c 1,14,15
 770 710 770 710 797.5 710 c 128,-1,16
 825 710 825 710 945 713 c 1,17,-1
 954 671 l 1,18,19
 859 665 859 665 859 622 c 2,20,-1
 859 80 l 2,21,22
 859 59 859 59 874.5 52 c 128,-1,23
 890 45 890 45 945 41 c 1,24,-1
 954 -3 l 1,25,26
 825 0 825 0 806 0 c 2,27,-1
 693 -3 l 1,28,-1
 685 41 l 1,29,30
 742 47 742 47 755 53 c 128,-1,31
 768 59 768 59 768 80 c 2,32,-1
 768 606 l 1,33,-1
 482 0 l 1,34,-1
 468 -3 l 1,35,-1
 176 602 l 1,36,-1
 176 87 l 2,37,38
 176 65 176 65 192.5 55 c 128,-1,39
 209 45 209 45 262 41 c 1,40,-1
 271 -3 l 1,41,-1
 154 0 l 1,42,-1
 41 -3 l 1,43,-1
 33 41 l 1,44,45
 86 47 86 47 101 55.5 c 128,-1,46
 116 64 116 64 116 87 c 2,47,-1
 116 631 l 2,48,49
 116 651 116 651 101.5 658.5 c 128,-1,50
 87 666 87 666 39 670 c 1,51,-1
 30 713 l 1,0,-1
EndSplineSet
EndChar

StartChar: N
Encoding: 78 78 49
Width: 795
GlyphClass: 2
Flags: W
LayerCount: 2
Fore
SplineSet
644 711 m 1,0,-1
 757 714 l 1,1,-1
 765 670 l 1,2,3
 708 664 708 664 695 658 c 128,-1,4
 682 652 682 652 682 631 c 2,5,-1
 683 -3 l 1,6,7
 676 -2 676 -2 657 -2 c 128,-1,8
 638 -2 638 -2 631 -3 c 1,9,-1
 176 584 l 1,10,-1
 176 79 l 2,11,12
 176 58 176 58 191 51 c 128,-1,13
 206 44 206 44 261 40 c 1,14,-1
 270 -4 l 1,15,-1
 154 -1 l 1,16,-1
 41 -4 l 1,17,-1
 33 40 l 1,18,19
 90 46 90 46 103 52 c 128,-1,20
 116 58 116 58 116 79 c 2,21,-1
 116 631 l 2,22,23
 116 651 116 651 101.5 658.5 c 128,-1,24
 87 666 87 666 39 670 c 1,25,-1
 30 714 l 1,26,27
 30 714 30 714 153 711 c 0,28,29
 180 711 180 711 209 714 c 1,30,31
 209 698 209 698 416 439 c 1,32,33
 581 237 581 237 622 172 c 1,34,-1
 622 631 l 2,35,36
 622 652 622 652 606.5 659 c 128,-1,37
 591 666 591 666 536 670 c 1,38,-1
 527 714 l 1,39,40
 527 714 527 714 644 711 c 1,0,-1
EndSplineSet
EndChar

StartChar: O
Encoding: 79 79 50
Width: 813
GlyphClass: 2
Flags: W
LayerCount: 2
Fore
SplineSet
142 86 m 128,-1,1
 40 184 40 184 40 342 c 128,-1,2
 40 500 40 500 148.5 611 c 128,-1,3
 257 722 257 722 415 722 c 128,-1,4
 573 722 573 722 673 622.5 c 128,-1,5
 773 523 773 523 773 364 c 128,-1,6
 773 205 773 205 667 96.5 c 128,-1,7
 561 -12 561 -12 402.5 -12 c 128,-1,0
 244 -12 244 -12 142 86 c 128,-1,1
430 38 m 0,8,9
 541 38 541 38 604.5 119.5 c 128,-1,10
 668 201 668 201 668 325 c 0,11,12
 668 532 668 532 544 626 c 0,13,14
 480 675 480 675 388 675 c 0,15,16
 277 675 277 675 211 591 c 128,-1,17
 145 507 145 507 145 384 c 0,18,19
 145 246 145 246 212 146 c 0,20,21
 245 96 245 96 301.5 67 c 128,-1,22
 358 38 358 38 430 38 c 0,8,9
EndSplineSet
EndChar

StartChar: P
Encoding: 80 80 51
Width: 560
GlyphClass: 2
Flags: W
LayerCount: 2
Fore
SplineSet
30 713 m 1,0,-1
 153 710 l 1,1,2
 285 714 285 714 303 714 c 0,3,4
 416 714 416 714 484.5 669 c 128,-1,5
 553 624 553 624 553 522 c 128,-1,6
 553 420 553 420 478 369.5 c 128,-1,7
 403 319 403 319 285 319 c 0,8,9
 257 319 257 319 242 324 c 1,10,11
 230 334 230 334 230 358 c 0,12,13
 230 364 230 364 233 367 c 1,14,15
 242 364 242 364 272 364 c 0,16,17
 358 364 358 364 408 407 c 128,-1,18
 458 450 458 450 458 524.5 c 128,-1,19
 458 599 458 599 412 633 c 128,-1,20
 366 667 366 667 289 667 c 0,21,22
 224 667 224 667 215.5 661.5 c 128,-1,23
 207 656 207 656 207 650 c 2,24,-1
 207 89 l 2,25,26
 207 59 207 59 227.5 50 c 128,-1,27
 248 41 248 41 314 41 c 1,28,-1
 324 -2 l 1,29,-1
 186 0 l 2,30,31
 173 0 173 0 41 -3 c 1,32,-1
 33 41 l 1,33,34
 89 47 89 47 101.5 52.5 c 128,-1,35
 114 58 114 58 116 80 c 1,36,-1
 116 630 l 2,37,38
 116 650 116 650 101.5 657.5 c 128,-1,39
 87 665 87 665 39 669 c 1,40,-1
 30 713 l 1,0,-1
EndSplineSet
EndChar

StartChar: Q
Encoding: 81 81 52
Width: 842
GlyphClass: 2
Flags: W
LayerCount: 2
Fore
SplineSet
40 345 m 0,0,1
 40 500 40 500 148.5 611 c 128,-1,2
 257 722 257 722 415 722 c 128,-1,3
 573 722 573 722 673 622.5 c 128,-1,4
 773 523 773 523 773 361 c 0,5,6
 773 236 773 236 702.5 139 c 128,-1,7
 632 42 632 42 519 5 c 0,8,9
 506 1 506 1 483 -1 c 1,10,11
 594 -23 594 -23 700 -79 c 0,12,13
 737 -99 737 -99 792.5 -114 c 128,-1,14
 848 -129 848 -129 890 -129 c 0,15,16
 972 -129 972 -129 1031 -105 c 0,17,18
 1032 -104 1032 -104 1034.5 -104 c 128,-1,19
 1037 -104 1037 -104 1039 -106 c 2,20,-1
 1059 -131 l 1,21,22
 961 -193 961 -193 836 -193 c 0,23,24
 776 -193 776 -193 719 -178.5 c 128,-1,25
 662 -164 662 -164 628 -147.5 c 128,-1,26
 594 -131 594 -131 543 -103 c 128,-1,27
 492 -75 492 -75 440.5 -51 c 128,-1,28
 389 -27 389 -27 279.5 6 c 128,-1,29
 170 39 170 39 105 128.5 c 128,-1,30
 40 218 40 218 40 345 c 0,0,1
430 38 m 0,31,32
 541 38 541 38 604.5 119.5 c 128,-1,33
 668 201 668 201 668 325 c 0,34,35
 668 532 668 532 544 626 c 0,36,37
 480 675 480 675 388 675 c 0,38,39
 277 675 277 675 211 591 c 128,-1,40
 145 507 145 507 145 384 c 0,41,42
 145 246 145 246 212 146 c 0,43,44
 245 96 245 96 301.5 67 c 128,-1,45
 358 38 358 38 430 38 c 0,31,32
EndSplineSet
EndChar

StartChar: R
Encoding: 82 82 53
Width: 698
GlyphClass: 2
Flags: W
LayerCount: 2
Fore
SplineSet
30 713 m 1,0,-1
 150 710 l 1,1,-1
 303 714 l 1,2,3
 413 714 413 714 483 667 c 128,-1,4
 553 620 553 620 553 523 c 0,5,6
 553 380 553 380 408 330 c 1,7,8
 429 302 429 302 474 240 c 1,9,10
 571 102 571 102 605.5 70 c 128,-1,11
 640 38 640 38 685 34 c 1,12,-1
 698 -1 l 1,13,-1
 624 2 l 1,14,-1
 524 0 l 1,15,16
 505 26 505 26 423.5 150 c 128,-1,17
 342 274 342 274 314 308 c 0,18,19
 310 312 310 312 303 312 c 2,20,-1
 207 312 l 1,21,-1
 207 80 l 2,22,23
 207 60 207 60 225 52.5 c 128,-1,24
 243 45 243 45 294 41 c 1,25,-1
 303 -3 l 1,26,27
 174 0 174 0 171 0 c 2,28,-1
 43 -3 l 1,29,-1
 35 41 l 1,30,31
 91 47 91 47 103.5 52.5 c 128,-1,32
 116 58 116 58 116 80 c 2,33,-1
 116 630 l 2,34,35
 116 650 116 650 101.5 657.5 c 128,-1,36
 87 665 87 665 39 669 c 1,37,-1
 30 713 l 1,0,-1
207 650 m 2,38,-1
 207 360 l 1,39,40
 230 357 230 357 273 357 c 0,41,42
 458 357 458 357 458 522 c 0,43,44
 458 594 458 594 411 630.5 c 128,-1,45
 364 667 364 667 289 667 c 0,46,47
 224 667 224 667 215.5 661.5 c 128,-1,48
 207 656 207 656 207 650 c 2,38,-1
EndSplineSet
EndChar

StartChar: S
Encoding: 83 83 54
Width: 549
GlyphClass: 2
Flags: W
LayerCount: 2
Fore
SplineSet
271 38 m 0,0,1
 340 38 340 38 377.5 73 c 128,-1,2
 415 108 415 108 415 158 c 128,-1,3
 415 208 415 208 378.5 243.5 c 128,-1,4
 342 279 342 279 289.5 305 c 128,-1,5
 237 331 237 331 184.5 359 c 128,-1,6
 132 387 132 387 95.5 433.5 c 128,-1,7
 59 480 59 480 59 542 c 0,8,9
 59 631 59 631 123 676.5 c 128,-1,10
 187 722 187 722 275 722 c 0,11,12
 388 722 388 722 469 684 c 1,13,14
 476 669 476 669 476 605.5 c 128,-1,15
 476 542 476 542 472 510 c 1,16,-1
 441 512 l 1,17,18
 437 582 437 582 392.5 628.5 c 128,-1,19
 348 675 348 675 272 675 c 0,20,21
 218 675 218 675 183.5 647.5 c 128,-1,22
 149 620 149 620 149 571 c 0,23,24
 149 513 149 513 220 470 c 0,25,26
 251 451 251 451 289 432 c 128,-1,27
 327 413 327 413 365 391.5 c 128,-1,28
 403 370 403 370 434 344 c 0,29,30
 505 286 505 286 505 196.5 c 128,-1,31
 505 107 505 107 443 47.5 c 128,-1,32
 381 -12 381 -12 279 -12 c 128,-1,33
 177 -12 177 -12 67 29 c 1,34,35
 62 44 62 44 53 103.5 c 128,-1,36
 44 163 44 163 40 204 c 1,37,-1
 86 211 l 1,38,39
 126 38 126 38 271 38 c 0,0,1
EndSplineSet
EndChar

StartChar: T
Encoding: 84 84 55
Width: 682
GlyphClass: 2
Flags: W
LayerCount: 2
Fore
SplineSet
463 665 m 2,0,-1
 383 665 l 1,1,-1
 383 82 l 2,2,3
 383 61 383 61 399.5 54 c 128,-1,4
 416 47 416 47 475 43 c 1,5,-1
 484 -1 l 1,6,7
 355 2 355 2 346 2 c 128,-1,8
 337 2 337 2 205 -1 c 1,9,-1
 197 43 l 1,10,11
 264 49 264 49 278 54.5 c 128,-1,12
 292 60 292 60 292 82 c 2,13,-1
 292 665 l 1,14,-1
 230 665 l 2,15,16
 180 665 180 665 156 660 c 0,17,18
 87 646 87 646 68 537 c 1,19,-1
 40 535 l 1,20,21
 33 570 33 570 33 631.5 c 128,-1,22
 33 693 33 693 40 717 c 1,23,24
 62 710 62 710 119 710 c 2,25,-1
 568 710 l 2,26,27
 626 710 626 710 646 717 c 1,28,29
 650 674 650 674 650 625 c 128,-1,30
 650 576 650 576 642 535 c 1,31,-1
 612 538 l 1,32,33
 603 608 603 608 570 636.5 c 128,-1,34
 537 665 537 665 463 665 c 2,0,-1
EndSplineSet
EndChar

StartChar: U
Encoding: 85 85 56
Width: 754
GlyphClass: 2
Flags: W
LayerCount: 2
Fore
SplineSet
610 709 m 1,0,-1
 723 712 l 1,1,-1
 731 668 l 1,2,3
 674 662 674 662 661 656 c 128,-1,4
 648 650 648 650 648 629 c 2,5,-1
 648 257 l 2,6,7
 648 -12 648 -12 393 -12 c 0,8,9
 247 -12 247 -12 171.5 50.5 c 128,-1,10
 96 113 96 113 96 250 c 2,11,-1
 96 630 l 2,12,13
 96 650 96 650 84 657.5 c 128,-1,14
 72 665 72 665 32 669 c 1,15,-1
 23 713 l 1,16,-1
 140 710 l 1,17,-1
 260 713 l 1,18,-1
 268 669 l 1,19,20
 212 663 212 663 199.5 657.5 c 128,-1,21
 187 652 187 652 187 630 c 2,22,-1
 187 262 l 2,23,24
 187 38 187 38 412 38 c 0,25,26
 500 38 500 38 544 93 c 128,-1,27
 588 148 588 148 588 247 c 2,28,-1
 588 629 l 2,29,30
 588 650 588 650 572.5 657 c 128,-1,31
 557 664 557 664 502 668 c 1,32,-1
 493 712 l 1,33,-1
 610 709 l 1,0,-1
EndSplineSet
EndChar

StartChar: V
Encoding: 86 86 57
Width: 720
GlyphClass: 2
Flags: W
LayerCount: 2
Fore
SplineSet
594 706 m 1,0,-1
 698 710 l 1,1,-1
 708 667 l 1,2,-1
 702 667 l 1,3,4
 657 662 657 662 632 640.5 c 128,-1,5
 607 619 607 619 590 571 c 2,6,-1
 378 0 l 1,7,-1
 330 0 l 1,8,-1
 114 587 l 1,9,10
 91 636 91 636 75 651 c 128,-1,11
 59 666 59 666 23 666 c 1,12,-1
 12 710 l 1,13,14
 90 705 90 705 152.5 705 c 128,-1,15
 215 705 215 705 274 710 c 1,16,-1
 283 667 l 1,17,-1
 279 667 l 1,18,19
 200 666 200 666 200 639 c 0,20,21
 200 629 200 629 207 614 c 1,22,-1
 386 145 l 1,23,-1
 550 597 l 1,24,25
 553 609 553 609 553 618 c 0,26,27
 553 662 553 662 469 667 c 1,28,-1
 457 710 l 1,29,-1
 594 706 l 1,0,-1
EndSplineSet
EndChar

StartChar: W
Encoding: 87 87 58
Width: 1058
GlyphClass: 2
Flags: W
LayerCount: 2
Fore
SplineSet
932 706 m 1,0,-1
 1036 710 l 1,1,-1
 1046 664 l 1,2,-1
 1040 664 l 1,3,4
 994 659 994 659 969.5 638.5 c 128,-1,5
 945 618 945 618 928 571 c 2,6,-1
 716 0 l 1,7,-1
 668 0 l 1,8,-1
 524 391 l 1,9,-1
 378 0 l 1,10,-1
 330 0 l 1,11,-1
 114 587 l 1,12,13
 91 636 91 636 75 651 c 128,-1,14
 59 666 59 666 23 666 c 1,15,-1
 12 710 l 1,16,17
 90 705 90 705 152.5 705 c 128,-1,18
 215 705 215 705 274 710 c 1,19,-1
 283 667 l 1,20,-1
 279 667 l 1,21,22
 200 666 200 666 200 639 c 0,23,24
 200 629 200 629 207 614 c 1,25,-1
 386 145 l 1,26,-1
 500 457 l 1,27,-1
 452 587 l 1,28,29
 429 636 429 636 413 651 c 128,-1,30
 397 666 397 666 361 666 c 1,31,-1
 350 710 l 1,32,33
 428 705 428 705 490.5 705 c 128,-1,34
 553 705 553 705 612 710 c 1,35,-1
 621 667 l 1,36,-1
 617 667 l 1,37,38
 538 666 538 666 538 639 c 0,39,40
 538 629 538 629 545 614 c 1,41,-1
 724 145 l 1,42,-1
 888 597 l 1,43,44
 891 609 891 609 891 618 c 0,45,46
 891 639 891 639 872 650 c 128,-1,47
 853 661 853 661 807 664 c 1,48,-1
 795 710 l 1,49,-1
 932 706 l 1,0,-1
EndSplineSet
EndChar

StartChar: X
Encoding: 88 88 59
Width: 706
GlyphClass: 2
Flags: W
LayerCount: 2
Fore
SplineSet
566 706 m 1,0,-1
 677 710 l 1,1,-1
 687 666 l 1,2,-1
 681 666 l 2,3,4
 614 666 614 666 582 623 c 2,5,-1
 394 371 l 1,6,-1
 582 116 l 2,7,8
 617 70 617 70 636.5 55 c 128,-1,9
 656 40 656 40 688 40 c 1,10,-1
 699 -4 l 1,11,12
 621 1 621 1 558.5 1 c 128,-1,13
 496 1 496 1 437 -4 c 1,14,-1
 428 40 l 1,15,-1
 432 40 l 2,16,17
 504 40 504 40 504 66 c 0,18,19
 504 77 504 77 495 92 c 1,20,-1
 336 305 l 1,21,-1
 191 106 l 1,22,23
 177 89 177 89 177 76 c 0,24,25
 177 48 177 48 246 40 c 1,26,-1
 258 -4 l 1,27,-1
 128 0 l 1,28,-1
 17 -4 l 1,29,-1
 7 40 l 1,30,-1
 13 40 l 2,31,32
 84 40 84 40 112 83 c 1,33,-1
 308 343 l 1,34,-1
 138 590 l 2,35,36
 108 634 108 634 86.5 650 c 128,-1,37
 65 666 65 666 32 666 c 1,38,-1
 21 710 l 1,39,40
 99 705 99 705 161.5 705 c 128,-1,41
 224 705 224 705 283 710 c 1,42,-1
 292 666 l 1,43,-1
 288 666 l 2,44,45
 216 666 216 666 216 640 c 0,46,47
 216 629 216 629 225 614 c 2,48,-1
 365 407 l 1,49,-1
 503 600 l 2,50,51
 516 619 516 619 516 632 c 0,52,53
 516 660 516 660 448 666 c 1,54,-1
 436 710 l 1,55,-1
 566 706 l 1,0,-1
EndSplineSet
EndChar

StartChar: Y
Encoding: 89 89 60
Width: 704
GlyphClass: 2
Flags: W
LayerCount: 2
Fore
SplineSet
494 -3 m 1,0,-1
 368 0 l 2,1,2
 367 0 367 0 235 -3 c 1,3,-1
 227 41 l 1,4,5
 288 47 288 47 300 52.5 c 128,-1,6
 312 58 312 58 312 80 c 2,7,-1
 312 315 l 1,8,-1
 117 590 l 2,9,10
 87 634 87 634 65.5 650 c 128,-1,11
 44 666 44 666 11 666 c 1,12,-1
 0 710 l 1,13,14
 78 705 78 705 140.5 705 c 128,-1,15
 203 705 203 705 262 710 c 1,16,-1
 271 666 l 1,17,-1
 267 666 l 2,18,19
 195 666 195 666 195 640 c 0,20,21
 195 629 195 629 204 614 c 1,22,-1
 376 372 l 1,23,-1
 520 600 l 2,24,25
 533 619 533 619 533 632 c 0,26,27
 533 660 533 660 465 666 c 1,28,-1
 453 710 l 1,29,-1
 583 706 l 1,30,-1
 694 710 l 1,31,-1
 704 666 l 1,32,-1
 698 666 l 2,33,34
 629 666 629 666 599 623 c 2,35,-1
 403 333 l 1,36,-1
 403 80 l 2,37,38
 403 59 403 59 418 52 c 128,-1,39
 433 45 433 45 485 41 c 1,40,-1
 494 -3 l 1,0,-1
EndSplineSet
EndChar

StartChar: Z
Encoding: 90 90 61
Width: 718
GlyphClass: 2
Flags: W
LayerCount: 2
Fore
SplineSet
453 0 m 2,0,-1
 145 0 l 2,1,2
 87 0 87 0 55 -9 c 1,3,4
 50 -1 50 -1 50 9 c 1,5,6
 510 660 510 660 510 662.5 c 128,-1,7
 510 665 510 665 503 665 c 2,8,-1
 279 665 l 2,9,10
 229 665 229 665 204 660 c 0,11,12
 136 646 136 646 117 537 c 1,13,-1
 89 535 l 1,14,15
 82 570 82 570 82 631.5 c 128,-1,16
 82 693 82 693 89 717 c 1,17,18
 110 710 110 710 168 710 c 2,19,-1
 581 710 l 2,20,21
 626 710 626 710 655 718 c 1,22,23
 660 710 660 710 660 700 c 1,24,25
 412 358 412 358 312.5 211 c 128,-1,26
 213 64 213 64 211 53 c 0,27,28
 211 51 211 51 213 51 c 2,29,-1
 512 51 l 2,30,31
 564 51 564 51 588.5 83 c 128,-1,32
 613 115 613 115 622 192 c 1,33,-1
 663 195 l 1,34,35
 668 140 668 140 668 84.5 c 128,-1,36
 668 29 668 29 661 -3 c 1,37,38
 584 0 584 0 453 0 c 2,0,-1
EndSplineSet
EndChar

StartChar: bracketleft
Encoding: 91 91 62
Width: 336
GlyphClass: 2
Flags: W
LayerCount: 2
Fore
SplineSet
110 -331 m 0,0,1
 100 -331 100 -331 100 -321 c 2,2,-1
 100 810 l 2,3,4
 100 820 100 820 109 820 c 0,5,6
 220 820 220 820 362 826 c 1,7,-1
 370 778 l 1,8,9
 213 770 213 770 200 765 c 0,10,11
 191 761 191 761 190 755 c 1,12,-1
 190 -267 l 2,13,14
 190 -276 190 -276 216 -280 c 0,15,16
 259 -285 259 -285 369 -289 c 1,17,-1
 362 -337 l 1,18,19
 244 -331 244 -331 110 -331 c 0,0,1
EndSplineSet
EndChar

StartChar: backslash
Encoding: 92 92 63
Width: 373
GlyphClass: 2
Flags: W
LayerCount: 2
Fore
SplineSet
-30 740 m 1,0,1
 -23 742 -23 742 -14 742 c 0,2,3
 28 742 28 742 36 731 c 1,4,-1
 335 -48 l 1,5,6
 326 -52 326 -52 316 -52 c 0,7,8
 288 -52 288 -52 273 -46 c 1,9,-1
 -30 740 l 1,0,1
EndSplineSet
EndChar

StartChar: bracketright
Encoding: 93 93 64
Width: 336
GlyphClass: 2
Flags: W
LayerCount: 2
Fore
SplineSet
146 -267 m 2,0,-1
 146 755 l 2,1,2
 146 765 146 765 126 768 c 0,3,4
 101 772 101 772 -34 778 c 1,5,-1
 -26 826 l 1,6,7
 116 820 116 820 227 820 c 0,8,9
 236 820 236 820 236 810 c 2,10,-1
 236 -321 l 2,11,12
 236 -331 236 -331 226 -331 c 0,13,14
 94 -331 94 -331 -26 -337 c 1,15,-1
 -33 -289 l 1,16,17
 121 -284 121 -284 140 -275 c 0,18,19
 146 -272 146 -272 146 -267 c 2,0,-1
EndSplineSet
EndChar

StartChar: asciicircum
Encoding: 94 94 65
Width: 833
GlyphClass: 2
Flags: W
LayerCount: 2
Fore
SplineSet
236 691 m 1,0,-1
 291 693 l 2,1,2
 295 693 295 693 298 685 c 1,3,-1
 485 323 l 1,4,5
 485 319 485 319 481 314.5 c 128,-1,6
 477 310 477 310 450 301 c 1,7,-1
 263 610 l 1,8,-1
 88 289 l 1,9,10
 61 298 61 298 57 302.5 c 128,-1,11
 53 307 53 307 53 311 c 1,12,-1
 236 691 l 1,0,-1
EndSplineSet
EndChar

StartChar: underscore
Encoding: 95 95 66
Width: 555
GlyphClass: 2
Flags: W
LayerCount: 2
Fore
SplineSet
3 -11 m 1,0,1
 3 -11 3 -11 287 -13 c 1,2,-1
 545 -11 l 1,3,4
 563 -29 563 -29 563 -65 c 1,5,-1
 286 -63 l 1,6,-1
 13 -65 l 1,7,8
 1 -55 1 -55 1 -37 c 128,-1,9
 1 -19 1 -19 3 -11 c 1,0,1
EndSplineSet
EndChar

StartChar: grave
Encoding: 96 96 67
Width: 266
GlyphClass: 2
Flags: W
LayerCount: 2
Fore
SplineSet
134 716 m 1,0,-1
 221 535 l 1,1,2
 221 531 221 531 215 524.5 c 128,-1,3
 209 518 209 518 198 515 c 1,4,-1
 40 681 l 1,5,6
 40 688 40 688 78.5 702 c 128,-1,7
 117 716 117 716 134 716 c 1,0,-1
EndSplineSet
EndChar

StartChar: a
Encoding: 97 97 68
Width: 450
GlyphClass: 2
Flags: W
LayerCount: 2
Fore
SplineSet
205 44 m 0,0,1
 256 44 256 44 281 78 c 1,2,-1
 281 190 l 1,3,4
 195 175 195 175 166 156.5 c 128,-1,5
 137 138 137 138 137 104 c 1,6,7
 139 73 139 73 158 58.5 c 128,-1,8
 177 44 177 44 205 44 c 0,0,1
408 50 m 2,9,-1
 429 50 l 2,10,11
 434 50 434 50 436 51 c 1,12,13
 440 25 440 25 443 19 c 1,14,15
 431 13 431 13 388.5 0.5 c 128,-1,16
 346 -12 346 -12 326 -12 c 128,-1,17
 306 -12 306 -12 298 2.5 c 128,-1,18
 290 17 290 17 286 54 c 1,19,20
 269 30 269 30 235.5 10 c 128,-1,21
 202 -10 202 -10 168 -12 c 1,22,-1
 163 -12 l 2,23,24
 115 -12 115 -12 80.5 15 c 128,-1,25
 46 42 46 42 46 93 c 128,-1,26
 46 144 46 144 93.5 171.5 c 128,-1,27
 141 199 141 199 281 225 c 1,28,-1
 281 285 l 2,29,30
 281 393 281 393 200 393 c 0,31,32
 172 393 172 393 147 379 c 1,33,-1
 147 311 l 2,34,35
 147 306 147 306 120.5 301 c 128,-1,36
 94 296 94 296 85.5 296 c 128,-1,37
 77 296 77 296 69 298 c 1,38,39
 61 306 61 306 61 334 c 128,-1,40
 61 362 61 362 77 380 c 1,41,42
 92 400 92 400 149 421 c 128,-1,43
 206 442 206 442 238 442 c 0,44,45
 364 442 364 442 364 300 c 2,46,-1
 364 100 l 2,47,48
 364 68 364 68 376.5 59 c 128,-1,49
 389 50 389 50 408 50 c 2,9,-1
EndSplineSet
EndChar

StartChar: b
Encoding: 98 98 69
Width: 530
GlyphClass: 2
Flags: W
LayerCount: 2
Fore
SplineSet
166 125 m 2,0,1
 166 81 166 81 196.5 56.5 c 128,-1,2
 227 32 227 32 285.5 32 c 128,-1,3
 344 32 344 32 372.5 80 c 128,-1,4
 401 128 401 128 401 207.5 c 128,-1,5
 401 287 401 287 364 337 c 128,-1,6
 327 387 327 387 270.5 387 c 128,-1,7
 214 387 214 387 166 347 c 1,8,-1
 166 125 l 2,0,1
81 169 m 2,9,-1
 81 612 l 2,10,11
 81 651 81 651 65 663.5 c 128,-1,12
 49 676 49 676 33 676 c 128,-1,13
 17 676 17 676 10 675 c 1,14,-1
 2 705 l 1,15,16
 31 712 31 712 79 729.5 c 128,-1,17
 127 747 127 747 142 757 c 1,18,19
 160 757 160 757 160 749 c 2,20,-1
 161 378 l 1,21,22
 179 403 179 403 217 422.5 c 128,-1,23
 255 442 255 442 302 442 c 0,24,25
 388 442 388 442 440 383.5 c 128,-1,26
 492 325 492 325 492 223.5 c 128,-1,27
 492 122 492 122 435 55 c 128,-1,28
 378 -12 378 -12 275 -12 c 0,29,30
 198 -12 198 -12 144 18 c 1,31,-1
 108 -9 l 2,32,33
 103 -12 103 -12 100 -12 c 0,34,35
 96 -12 96 -12 83 -9 c 0,36,37
 78 -7 78 -7 79.5 0.5 c 128,-1,38
 81 8 81 8 81 169 c 2,9,-1
EndSplineSet
EndChar

StartChar: c
Encoding: 99 99 70
Width: 442
GlyphClass: 2
Flags: W
LayerCount: 2
Fore
SplineSet
303 383 m 128,-1,1
 273 400 273 400 234 400 c 128,-1,2
 195 400 195 400 162 357.5 c 128,-1,3
 129 315 129 315 129 238 c 128,-1,4
 129 161 129 161 169 105.5 c 128,-1,5
 209 50 209 50 288 50 c 0,6,7
 351 50 351 50 392 91 c 0,8,9
 394 93 394 93 397 93 c 128,-1,10
 400 93 400 93 402 91 c 2,11,-1
 422 68 l 1,12,13
 348 -12 348 -12 250.5 -12 c 128,-1,14
 153 -12 153 -12 95.5 50 c 128,-1,15
 38 112 38 112 38 206 c 0,16,17
 38 322 38 322 102.5 382 c 128,-1,18
 167 442 167 442 264 442 c 0,19,20
 306 442 306 442 349.5 430 c 128,-1,21
 393 418 393 418 415 400 c 0,22,23
 416 398 416 398 416 396 c 0,24,25
 416 382 416 382 385 337 c 1,26,27
 381 333 381 333 374.5 333 c 128,-1,28
 368 333 368 333 350.5 349.5 c 128,-1,0
 333 366 333 366 303 383 c 128,-1,1
EndSplineSet
EndChar

StartChar: d
Encoding: 100 100 71
Width: 542
GlyphClass: 2
Flags: W
LayerCount: 2
Fore
SplineSet
450 115 m 2,0,1
 450 50 450 50 494 50 c 2,2,-1
 506 50 l 1,3,-1
 523 51 l 1,4,-1
 530 19 l 1,5,-1
 459 7 l 2,6,7
 434 2 434 2 386 -12 c 1,8,9
 373 -12 373 -12 373 -4 c 2,10,-1
 370 56 l 1,11,12
 352 31 352 31 311 9.5 c 128,-1,13
 270 -12 270 -12 224 -12 c 0,14,15
 142 -12 142 -12 90 44.5 c 128,-1,16
 38 101 38 101 38 197 c 0,17,18
 38 315 38 315 102 378.5 c 128,-1,19
 166 442 166 442 256 442 c 0,20,21
 317 442 317 442 365 419 c 1,22,-1
 365 620 l 2,23,24
 365 679 365 679 311 679 c 0,25,26
 298 679 298 679 285 676 c 1,27,-1
 276 706 l 1,28,29
 379 736 379 736 432 760 c 1,30,31
 450 760 450 760 450 741 c 2,32,-1
 450 115 l 2,0,1
365 305 m 2,33,34
 365 349 365 349 334 374.5 c 128,-1,35
 303 400 303 400 245 400 c 128,-1,36
 187 400 187 400 158 352 c 128,-1,37
 129 304 129 304 129 223.5 c 128,-1,38
 129 143 129 143 166.5 93.5 c 128,-1,39
 204 44 204 44 263 44 c 0,40,41
 287 44 287 44 307.5 51.5 c 128,-1,42
 328 59 328 59 335 64 c 0,43,44
 344 70 344 70 365 85 c 1,45,-1
 365 305 l 2,33,34
EndSplineSet
EndChar

StartChar: e
Encoding: 101 101 72
Width: 459
GlyphClass: 2
Flags: W
LayerCount: 2
Fore
SplineSet
419 243 m 2,0,-1
 129 243 l 1,1,-1
 129 230 l 2,2,3
 129 157 129 157 170 103.5 c 128,-1,4
 211 50 211 50 279 50 c 128,-1,5
 347 50 347 50 391 94 c 0,6,7
 394 97 394 97 396 97 c 128,-1,8
 398 97 398 97 401 94 c 2,9,-1
 423 69 l 1,10,11
 348 -12 348 -12 249.5 -12 c 128,-1,12
 151 -12 151 -12 94.5 50 c 128,-1,13
 38 112 38 112 38 215.5 c 128,-1,14
 38 319 38 319 102 380.5 c 128,-1,15
 166 442 166 442 248 442 c 128,-1,16
 330 442 330 442 377 392.5 c 128,-1,17
 424 343 424 343 424 254 c 0,18,19
 424 243 424 243 419 243 c 2,0,-1
324 290 m 1,20,21
 324 400 324 400 239 400 c 0,22,23
 194 400 194 400 166 368.5 c 128,-1,24
 138 337 138 337 132 290 c 1,25,-1
 324 290 l 1,20,21
EndSplineSet
EndChar

StartChar: f
Encoding: 102 102 73
Width: 396
GlyphClass: 2
Flags: W
LayerCount: 2
Fore
SplineSet
279 -2 m 1,0,-1
 171 1 l 2,1,2
 170 1 170 1 53 -2 c 1,3,-1
 45 38 l 1,4,5
 93 42 93 42 102.5 46.5 c 128,-1,6
 112 51 112 51 112 72 c 2,7,-1
 112 351 l 2,8,9
 112 369 112 369 101 369 c 2,10,-1
 47 369 l 1,11,12
 40 383 40 383 40 400 c 1,13,14
 89 406 89 406 106 412 c 0,15,16
 111 413 111 413 111 425 c 2,17,-1
 111 447 l 2,18,19
 111 630 111 630 216 714 c 0,20,21
 272 760 272 760 354 760 c 0,22,23
 384 760 384 760 415 746.5 c 128,-1,24
 446 733 446 733 446 723 c 1,25,26
 438 691 438 691 412 652 c 1,27,28
 408 648 408 648 402 648 c 1,29,30
 330 696 330 696 282.5 696 c 128,-1,31
 235 696 235 696 215.5 650.5 c 128,-1,32
 196 605 196 605 196 478 c 2,33,-1
 196 429 l 2,34,35
 196 416 196 416 209 416 c 2,36,-1
 316 419 l 1,37,38
 319 412 319 412 319 400.5 c 128,-1,39
 319 389 319 389 312 369 c 1,40,-1
 207 369 l 2,41,42
 197 369 197 369 197 354 c 0,43,44
 197 353 197 353 197 352 c 2,45,-1
 197 72 l 2,46,47
 197 55 197 55 213.5 48 c 128,-1,48
 230 41 230 41 270 38 c 1,49,-1
 279 -2 l 1,0,-1
EndSplineSet
EndChar

StartChar: g
Encoding: 103 103 74
Width: 478
GlyphClass: 2
Flags: W
LayerCount: 2
Fore
SplineSet
391 292 m 0,0,1
 391 218 391 218 341 173.5 c 128,-1,2
 291 129 291 129 220 129 c 0,3,4
 204 129 204 129 187.5 130.5 c 128,-1,5
 171 132 171 132 154 122 c 128,-1,6
 137 112 137 112 137 98 c 0,7,8
 137 74 137 74 178 62 c 0,9,10
 202 56 202 56 275 49 c 128,-1,11
 348 42 348 42 376 30 c 0,12,13
 437 4 437 4 437 -74 c 128,-1,14
 437 -152 437 -152 367.5 -210 c 128,-1,15
 298 -268 298 -268 198 -268 c 0,16,17
 124 -268 124 -268 68 -234.5 c 128,-1,18
 12 -201 12 -201 12 -132 c 0,19,20
 12 -100 12 -100 26.5 -85.5 c 128,-1,21
 41 -71 41 -71 57.5 -58 c 128,-1,22
 74 -45 74 -45 96 -29 c 128,-1,23
 118 -13 118 -13 122 -10 c 1,24,25
 97 0 97 0 77 21.5 c 128,-1,26
 57 43 57 43 57 60 c 128,-1,27
 57 77 57 77 65 85 c 0,28,29
 85 105 85 105 139 142 c 1,30,31
 99 160 99 160 72 195 c 128,-1,32
 45 230 45 230 45 277 c 0,33,34
 45 348 45 348 95 395 c 128,-1,35
 145 442 145 442 216 442 c 0,36,37
 255 442 255 442 288 432 c 1,38,39
 332 423 332 423 376 423 c 128,-1,40
 420 423 420 423 458 425 c 1,41,42
 458 415 458 415 454 392.5 c 128,-1,43
 450 370 450 370 443 361 c 1,44,-1
 367 375 l 1,45,46
 391 338 391 338 391 292 c 0,0,1
316 -187.5 m 128,-1,48
 352 -157 352 -157 352 -111 c 128,-1,49
 352 -65 352 -65 311 -43.5 c 128,-1,50
 270 -22 270 -22 183 -22 c 0,51,52
 160 -22 160 -22 144 -32 c 128,-1,53
 128 -42 128 -42 120 -48 c 128,-1,54
 112 -54 112 -54 102 -71 c 128,-1,55
 92 -88 92 -88 92 -110 c 0,56,57
 92 -156 92 -156 129.5 -187 c 128,-1,58
 167 -218 167 -218 223.5 -218 c 128,-1,47
 280 -218 280 -218 316 -187.5 c 128,-1,48
226 173 m 0,59,60
 315 173 315 173 315 275 c 0,61,62
 315 332 315 332 288.5 366 c 128,-1,63
 262 400 262 400 216 400 c 128,-1,64
 170 400 170 400 145.5 374 c 128,-1,65
 121 348 121 348 121 295 c 128,-1,66
 121 242 121 242 151 207.5 c 128,-1,67
 181 173 181 173 226 173 c 0,59,60
EndSplineSet
EndChar

StartChar: h
Encoding: 104 104 75
Width: 562
GlyphClass: 2
Flags: W
LayerCount: 2
Fore
SplineSet
39 679 m 1,0,-1
 24 678 l 1,1,-1
 15 707 l 1,2,3
 93 727 93 727 158 760 c 1,4,5
 170 760 170 760 173.5 756.5 c 128,-1,6
 177 753 177 753 178 741 c 1,7,-1
 178 384 l 1,8,9
 213 404 213 404 232 414 c 0,10,11
 283 442 283 442 337 442 c 0,12,13
 479 442 479 442 479 293 c 2,14,-1
 479 71 l 2,15,16
 479 53 479 53 488 46.5 c 128,-1,17
 497 40 497 40 532 37 c 1,18,-1
 541 -3 l 1,19,-1
 443 0 l 1,20,21
 443 0 443 0 335 -3 c 1,22,-1
 327 37 l 1,23,24
 375 41 375 41 384.5 45.5 c 128,-1,25
 394 50 394 50 394 71 c 2,26,-1
 394 259 l 2,27,28
 394 323 394 323 368.5 349 c 128,-1,29
 343 375 343 375 287.5 375 c 128,-1,30
 232 375 232 375 178 349 c 1,31,-1
 178 71 l 2,32,33
 178 53 178 53 187 46.5 c 128,-1,34
 196 40 196 40 231 37 c 1,35,-1
 240 -3 l 1,36,-1
 142 0 l 1,37,-1
 34 -3 l 1,38,-1
 26 37 l 1,39,40
 74 41 74 41 83.5 45.5 c 128,-1,41
 93 50 93 50 93 71 c 2,42,-1
 93 615 l 2,43,44
 93 651 93 651 80 665 c 128,-1,45
 67 679 67 679 39 679 c 1,0,-1
EndSplineSet
EndChar

StartChar: i
Encoding: 105 105 76
Width: 293
GlyphClass: 2
Flags: W
LayerCount: 2
Fore
SplineSet
157 0 m 1,0,-1
 49 -3 l 1,1,-1
 41 37 l 1,2,3
 89 41 89 41 98.5 45.5 c 128,-1,4
 108 50 108 50 108 71 c 2,5,-1
 108 325 l 2,6,7
 108 375 108 375 58 375 c 0,8,9
 46 375 46 375 39 374 c 1,10,-1
 30 403 l 1,11,12
 95 419 95 419 113 426 c 2,13,-1
 174 450 l 1,14,15
 187 450 187 450 190 447.5 c 128,-1,16
 193 445 193 445 193 434 c 2,17,-1
 193 71 l 2,18,19
 193 53 193 53 202 46.5 c 128,-1,20
 211 40 211 40 246 37 c 1,21,-1
 255 -3 l 1,22,-1
 157 0 l 1,0,-1
109.5 583.5 m 128,-1,24
 93 599 93 599 93 624 c 128,-1,25
 93 649 93 649 110 667 c 128,-1,26
 127 685 127 685 152.5 685 c 128,-1,27
 178 685 178 685 194.5 670 c 128,-1,28
 211 655 211 655 211 629.5 c 128,-1,29
 211 604 211 604 193.5 586 c 128,-1,30
 176 568 176 568 151 568 c 128,-1,23
 126 568 126 568 109.5 583.5 c 128,-1,24
EndSplineSet
EndChar

StartChar: j
Encoding: 106 106 77
Width: 258
GlyphClass: 2
Flags: W
LayerCount: 2
Fore
SplineSet
10 -268 m 1,0,1
 2 -268 2 -268 -7 -257 c 128,-1,2
 -16 -246 -16 -246 -16 -243.5 c 128,-1,3
 -16 -241 -16 -241 -11 -238 c 1,4,5
 51 -182 51 -182 76.5 -111 c 128,-1,6
 102 -40 102 -40 102 54 c 2,7,-1
 102 325 l 2,8,9
 102 375 102 375 48 375 c 0,10,11
 29 375 29 375 14 371 c 1,12,-1
 5 403 l 1,13,14
 84 420 84 420 110 427 c 128,-1,15
 136 434 136 434 169 450 c 1,16,17
 182 450 182 450 185 447.5 c 128,-1,18
 188 445 188 445 188 434 c 2,19,-1
 187 53 l 2,20,21
 187 -52 187 -52 134 -140 c 128,-1,22
 81 -228 81 -228 10 -268 c 1,0,1
98.5 583.5 m 128,-1,24
 82 599 82 599 82 624 c 128,-1,25
 82 649 82 649 99 667 c 128,-1,26
 116 685 116 685 141.5 685 c 128,-1,27
 167 685 167 685 183.5 670 c 128,-1,28
 200 655 200 655 200 629.5 c 128,-1,29
 200 604 200 604 182.5 586 c 128,-1,30
 165 568 165 568 140 568 c 128,-1,23
 115 568 115 568 98.5 583.5 c 128,-1,24
EndSplineSet
EndChar

StartChar: k
Encoding: 107 107 78
Width: 510
GlyphClass: 2
Flags: W
LayerCount: 2
Fore
SplineSet
142 0 m 1,0,-1
 34 -3 l 1,1,-1
 26 37 l 1,2,3
 74 41 74 41 83.5 45.5 c 128,-1,4
 93 50 93 50 93 71 c 2,5,-1
 93 621 l 2,6,7
 93 654 93 654 81.5 666 c 128,-1,8
 70 678 70 678 50.5 678 c 128,-1,9
 31 678 31 678 24 677 c 1,10,-1
 15 707 l 1,11,12
 92 730 92 730 160 760 c 1,13,14
 178 760 178 760 178 741 c 2,15,-1
 178 241 l 1,16,17
 209 258 209 258 268.5 320 c 128,-1,18
 328 382 328 382 328 392 c 128,-1,19
 328 402 328 402 321 404.5 c 128,-1,20
 314 407 314 407 286 407 c 1,21,-1
 277 445 l 1,22,-1
 378 442 l 2,23,24
 397 442 397 442 469 445 c 1,25,-1
 477 408 l 1,26,-1
 473 408 l 2,27,28
 440 408 440 408 423 402 c 128,-1,29
 406 396 406 396 390 379 c 2,30,-1
 274 257 l 2,31,32
 271 254 271 254 274 250 c 0,33,34
 298 215 298 215 347.5 159 c 128,-1,35
 397 103 397 103 435 69.5 c 128,-1,36
 473 36 473 36 516 32 c 1,37,-1
 529 -3 l 1,38,-1
 455 0 l 1,39,40
 421 0 421 0 375 -2 c 1,41,42
 341 43 341 43 294.5 100.5 c 128,-1,43
 248 158 248 158 234 176 c 0,44,45
 202 217 202 217 178 222 c 1,46,-1
 178 71 l 2,47,48
 178 53 178 53 185.5 46.5 c 128,-1,49
 193 40 193 40 221 37 c 1,50,-1
 230 -3 l 1,51,-1
 142 0 l 1,0,-1
EndSplineSet
EndChar

StartChar: l
Encoding: 108 108 79
Width: 264
GlyphClass: 2
Flags: W
LayerCount: 2
Fore
SplineSet
142 0 m 1,0,-1
 34 -3 l 1,1,-1
 26 37 l 1,2,3
 74 41 74 41 83.5 45.5 c 128,-1,4
 93 50 93 50 93 71 c 2,5,-1
 93 621 l 2,6,7
 93 654 93 654 81.5 666 c 128,-1,8
 70 678 70 678 50.5 678 c 128,-1,9
 31 678 31 678 24 677 c 1,10,-1
 15 707 l 1,11,12
 92 730 92 730 160 760 c 1,13,14
 178 760 178 760 178 741 c 2,15,-1
 178 71 l 2,16,17
 178 53 178 53 188 46.5 c 128,-1,18
 198 40 198 40 233 37 c 1,19,-1
 242 -3 l 1,20,-1
 142 0 l 1,0,-1
EndSplineSet
EndChar

StartChar: m
Encoding: 109 109 80
Width: 840
GlyphClass: 2
Flags: W
LayerCount: 2
Fore
SplineSet
53 369 m 1,0,-1
 38 368 l 1,1,-1
 29 397 l 1,2,3
 99 414 99 414 132 431 c 128,-1,4
 165 448 165 448 169 450 c 1,5,6
 182 450 182 450 184 448 c 0,7,8
 188 444 188 444 190 384 c 1,9,10
 270 442 270 442 335 442 c 0,11,12
 421 442 421 442 455 382 c 1,13,14
 539 442 539 442 611 442 c 0,15,16
 756 442 756 442 756 293 c 2,17,-1
 756 71 l 2,18,19
 756 53 756 53 765 46.5 c 128,-1,20
 774 40 774 40 809 37 c 1,21,-1
 818 -3 l 1,22,-1
 720 0 l 1,23,-1
 612 -3 l 1,24,-1
 604 37 l 1,25,26
 652 41 652 41 661.5 45.5 c 128,-1,27
 671 50 671 50 671 71 c 2,28,-1
 671 259 l 2,29,30
 671 323 671 323 646 348.5 c 128,-1,31
 621 374 621 374 568.5 374 c 128,-1,32
 516 374 516 374 469 341 c 1,33,34
 474 316 474 316 474 293 c 2,35,-1
 474 71 l 2,36,37
 474 53 474 53 483 46.5 c 128,-1,38
 492 40 492 40 527 37 c 1,39,-1
 536 -3 l 1,40,-1
 438 0 l 1,41,-1
 330 -3 l 1,42,-1
 322 37 l 1,43,44
 370 41 370 41 379.5 45.5 c 128,-1,45
 389 50 389 50 389 71 c 2,46,-1
 389 259 l 2,47,48
 389 323 389 323 364.5 349 c 128,-1,49
 340 375 340 375 292 375 c 128,-1,50
 244 375 244 375 192 347 c 1,51,-1
 192 71 l 2,52,53
 192 53 192 53 201 46.5 c 128,-1,54
 210 40 210 40 245 37 c 1,55,-1
 254 -3 l 1,56,-1
 156 0 l 1,57,-1
 48 -3 l 1,58,-1
 40 37 l 1,59,60
 88 41 88 41 97.5 45.5 c 128,-1,61
 107 50 107 50 107 71 c 2,62,-1
 107 305 l 2,63,64
 107 341 107 341 94 355 c 128,-1,65
 81 369 81 369 53 369 c 1,0,-1
EndSplineSet
EndChar

StartChar: n
Encoding: 110 110 81
Width: 577
GlyphClass: 2
Flags: W
LayerCount: 2
Fore
SplineSet
53 369 m 1,0,-1
 38 368 l 1,1,-1
 29 397 l 1,2,3
 99 414 99 414 132 431 c 128,-1,4
 165 448 165 448 169 450 c 1,5,6
 182 450 182 450 184 448 c 0,7,8
 188 444 188 444 190 384 c 1,9,10
 238 413 238 413 274.5 427.5 c 128,-1,11
 311 442 311 442 354 442 c 0,12,13
 493 442 493 442 493 293 c 2,14,-1
 493 71 l 2,15,16
 493 53 493 53 502 46.5 c 128,-1,17
 511 40 511 40 546 37 c 1,18,-1
 555 -3 l 1,19,-1
 457 0 l 1,20,-1
 349 -3 l 1,21,-1
 341 37 l 1,22,23
 389 41 389 41 398.5 45.5 c 128,-1,24
 408 50 408 50 408 71 c 2,25,-1
 408 259 l 2,26,27
 408 323 408 323 383 348 c 128,-1,28
 358 373 358 373 304 373 c 128,-1,29
 250 373 250 373 192 345 c 1,30,-1
 192 71 l 2,31,32
 192 53 192 53 201 46.5 c 128,-1,33
 210 40 210 40 245 37 c 1,34,-1
 254 -3 l 1,35,-1
 156 0 l 1,36,-1
 48 -3 l 1,37,-1
 40 37 l 1,38,39
 88 41 88 41 97.5 45.5 c 128,-1,40
 107 50 107 50 107 71 c 2,41,-1
 107 305 l 2,42,43
 107 341 107 341 94 355 c 128,-1,44
 81 369 81 369 53 369 c 1,0,-1
EndSplineSet
EndChar

StartChar: o
Encoding: 111 111 82
Width: 529
GlyphClass: 2
Flags: W
LayerCount: 2
Fore
SplineSet
167.5 91.5 m 128,-1,1
 206 33 206 33 271.5 33 c 128,-1,2
 337 33 337 33 368.5 78 c 128,-1,3
 400 123 400 123 400 204.5 c 128,-1,4
 400 286 400 286 358.5 343 c 128,-1,5
 317 400 317 400 253 400 c 128,-1,6
 189 400 189 400 159 353.5 c 128,-1,7
 129 307 129 307 129 228.5 c 128,-1,0
 129 150 129 150 167.5 91.5 c 128,-1,1
101 48.5 m 128,-1,9
 38 109 38 109 38 207.5 c 128,-1,10
 38 306 38 306 102.5 374 c 128,-1,11
 167 442 167 442 265.5 442 c 128,-1,12
 364 442 364 442 427.5 380.5 c 128,-1,13
 491 319 491 319 491 220.5 c 128,-1,14
 491 122 491 122 425.5 55 c 128,-1,15
 360 -12 360 -12 262 -12 c 128,-1,8
 164 -12 164 -12 101 48.5 c 128,-1,9
EndSplineSet
EndChar

StartChar: p
Encoding: 112 112 83
Width: 543
GlyphClass: 2
Flags: W
LayerCount: 2
Fore
SplineSet
179 127 m 2,0,1
 179 83 179 83 210 58 c 128,-1,2
 241 33 241 33 299 33 c 128,-1,3
 357 33 357 33 386 80.5 c 128,-1,4
 415 128 415 128 415 207.5 c 128,-1,5
 415 287 415 287 377.5 337 c 128,-1,6
 340 387 340 387 285 387 c 128,-1,7
 230 387 230 387 179 345 c 1,8,-1
 179 127 l 2,0,1
149 -255 m 1,9,-1
 35 -258 l 1,10,-1
 27 -218 l 1,11,12
 75 -214 75 -214 84.5 -209.5 c 128,-1,13
 94 -205 94 -205 94 -184 c 2,14,-1
 94 305 l 2,15,16
 94 340 94 340 80 354.5 c 128,-1,17
 66 369 66 369 38 369 c 1,18,-1
 23 368 l 1,19,-1
 15 398 l 1,20,21
 44 405 44 405 92 422.5 c 128,-1,22
 140 440 140 440 155 450 c 1,23,24
 172 450 172 450 174 442 c 1,25,-1
 174 378 l 1,26,27
 192 403 192 403 230 422.5 c 128,-1,28
 268 442 268 442 315 442 c 0,29,30
 401 442 401 442 453 383.5 c 128,-1,31
 505 325 505 325 505 234 c 0,32,33
 505 121 505 121 450.5 54.5 c 128,-1,34
 396 -12 396 -12 293 -12 c 0,35,36
 229 -12 229 -12 179 16 c 1,37,-1
 179 -184 l 2,38,39
 179 -202 179 -202 194 -210 c 128,-1,40
 209 -218 209 -218 256 -218 c 1,41,-1
 265 -258 l 1,42,43
 265 -258 265 -258 149 -255 c 1,9,-1
EndSplineSet
EndChar

StartChar: q
Encoding: 113 113 84
Width: 530
GlyphClass: 2
Flags: W
LayerCount: 2
Fore
SplineSet
409 -255 m 1,0,-1
 293 -258 l 1,1,-1
 285 -218 l 1,2,3
 338 -216 338 -216 355 -209.5 c 128,-1,4
 372 -203 372 -203 372 -184 c 2,5,-1
 372 55 l 1,6,7
 354 30 354 30 314.5 9 c 128,-1,8
 275 -12 275 -12 229 -12 c 0,9,10
 147 -12 147 -12 92.5 45 c 128,-1,11
 38 102 38 102 38 197 c 0,12,13
 38 315 38 315 102 378.5 c 128,-1,14
 166 442 166 442 256 442 c 0,15,16
 323 442 323 442 389 410 c 1,17,-1
 430 447 l 1,18,19
 435 450 435 450 438 450 c 128,-1,20
 441 450 441 450 466 447 c 0,21,22
 470 446 470 446 469 439 c 0,23,24
 458 384 458 384 457 313 c 1,25,-1
 457 -184 l 2,26,27
 457 -202 457 -202 466 -208.5 c 128,-1,28
 475 -215 475 -215 510 -218 c 1,29,-1
 519 -258 l 1,30,-1
 409 -255 l 1,0,-1
365 302 m 2,31,32
 365 347 365 347 334 373.5 c 128,-1,33
 303 400 303 400 244.5 400 c 128,-1,34
 186 400 186 400 157.5 352 c 128,-1,35
 129 304 129 304 129 223.5 c 128,-1,36
 129 143 129 143 166.5 93 c 128,-1,37
 204 43 204 43 263 43 c 0,38,39
 287 43 287 43 309 51 c 128,-1,40
 331 59 331 59 338.5 64.5 c 128,-1,41
 346 70 346 70 365 85 c 1,42,-1
 365 302 l 2,31,32
EndSplineSet
EndChar

StartChar: r
Encoding: 114 114 85
Width: 379
GlyphClass: 2
Flags: W
LayerCount: 2
Fore
SplineSet
54 369 m 1,0,-1
 39 368 l 1,1,-1
 30 397 l 1,2,3
 100 414 100 414 133 431 c 128,-1,4
 166 448 166 448 170 450 c 1,5,6
 183 450 183 450 186 448 c 1,7,8
 187 446 187 446 192 372 c 1,9,10
 251 442 251 442 309 442 c 128,-1,11
 367 442 367 442 379 419 c 1,12,13
 379 397 379 397 344 352 c 0,14,15
 333 337 333 337 331 337 c 2,16,-1
 251 366 l 1,17,-1
 245 366 l 2,18,19
 223 366 223 366 208 344 c 128,-1,20
 193 322 193 322 193 282 c 2,21,-1
 193 71 l 2,22,23
 193 53 193 53 208 45 c 128,-1,24
 223 37 223 37 270 37 c 1,25,-1
 279 -3 l 1,26,-1
 163 0 l 1,27,-1
 49 -3 l 1,28,-1
 41 37 l 1,29,30
 89 41 89 41 98.5 45.5 c 128,-1,31
 108 50 108 50 108 71 c 2,32,-1
 108 305 l 2,33,34
 108 341 108 341 95 355 c 128,-1,35
 82 369 82 369 54 369 c 1,0,-1
EndSplineSet
EndChar

StartChar: s
Encoding: 115 115 86
Width: 393
GlyphClass: 2
Flags: W
LayerCount: 2
Fore
SplineSet
196 33 m 0,0,1
 278 33 278 33 278 99 c 0,2,3
 278 127 278 127 253.5 145.5 c 128,-1,4
 229 164 229 164 194.5 176.5 c 128,-1,5
 160 189 160 189 125 204 c 128,-1,6
 90 219 90 219 65.5 249 c 128,-1,7
 41 279 41 279 41 329.5 c 128,-1,8
 41 380 41 380 85.5 411.5 c 128,-1,9
 130 443 130 443 192 443 c 128,-1,10
 254 443 254 443 327 420 c 1,11,12
 337 414 337 414 337 376 c 128,-1,13
 337 338 337 338 331 308 c 1,14,-1
 291 312 l 1,15,16
 286 352 286 352 260 376.5 c 128,-1,17
 234 401 234 401 196.5 401 c 128,-1,18
 159 401 159 401 137.5 385 c 128,-1,19
 116 369 116 369 116 343 c 128,-1,20
 116 317 116 317 140.5 299 c 128,-1,21
 165 281 165 281 200 269.5 c 128,-1,22
 235 258 235 258 270.5 244.5 c 128,-1,23
 306 231 306 231 330.5 200 c 128,-1,24
 355 169 355 169 355 116 c 128,-1,25
 355 63 355 63 311.5 25.5 c 128,-1,26
 268 -12 268 -12 200 -12 c 128,-1,27
 132 -12 132 -12 51 18 c 1,28,29
 46 21 46 21 42 64 c 128,-1,30
 38 107 38 107 38 134 c 2,31,-1
 38 139 l 1,32,-1
 85 143 l 1,33,34
 101 33 101 33 196 33 c 0,0,1
EndSplineSet
EndChar

StartChar: t
Encoding: 116 116 87
Width: 326
GlyphClass: 2
Flags: W
LayerCount: 2
Fore
SplineSet
174 67.5 m 128,-1,1
 191 42 191 42 220.5 42 c 128,-1,2
 250 42 250 42 275 58 c 0,3,4
 279 60 279 60 283 56 c 1,5,-1
 301 29 l 1,6,7
 246 -12 246 -12 187.5 -12 c 128,-1,8
 129 -12 129 -12 100.5 24.5 c 128,-1,9
 72 61 72 61 72 111 c 2,10,-1
 72 362 l 2,11,12
 72 374 72 374 68.5 377 c 128,-1,13
 65 380 65 380 59 380 c 2,14,-1
 24 380 l 1,15,-1
 15 409 l 1,16,17
 57 422 57 422 83.5 451 c 128,-1,18
 110 480 110 480 135 529 c 1,19,-1
 146 529 l 2,20,21
 153 529 153 529 153 523 c 2,22,-1
 157 443 l 2,23,24
 157 430 157 430 170 430 c 2,25,-1
 284 430 l 1,26,-1
 293 380 l 1,27,-1
 168 380 l 2,28,29
 158 380 158 380 158 365 c 0,30,31
 158 364 158 364 158 364 c 1,32,-1
 158 362 l 1,33,-1
 157 141 l 2,34,0
 157 93 157 93 174 67.5 c 128,-1,1
EndSplineSet
EndChar

StartChar: u
Encoding: 117 117 88
Width: 558
GlyphClass: 2
Flags: W
LayerCount: 2
Fore
SplineSet
220 -12 m 0,0,1
 77 -12 77 -12 77 139 c 2,2,-1
 77 361 l 2,3,4
 77 378 77 378 67 384.5 c 128,-1,5
 57 391 57 391 22 395 c 1,6,-1
 15 433 l 1,7,8
 42 430 42 430 88.5 430 c 128,-1,9
 135 430 135 430 162 433 c 1,10,-1
 162 173 l 2,11,12
 162 57 162 57 268 57 c 0,13,14
 296 57 296 57 325 68.5 c 128,-1,15
 354 80 354 80 371 97 c 1,16,-1
 371 361 l 2,17,18
 371 379 371 379 361.5 385 c 128,-1,19
 352 391 352 391 318 395 c 1,20,-1
 309 433 l 1,21,22
 334 430 334 430 382.5 430 c 128,-1,23
 431 430 431 430 456 433 c 1,24,-1
 456 112 l 2,25,26
 456 79 456 79 466.5 64 c 128,-1,27
 477 49 477 49 501 49 c 2,28,-1
 537 49 l 1,29,-1
 544 17 l 1,30,31
 532 15 532 15 500.5 10.5 c 128,-1,32
 469 6 469 6 457 4 c 128,-1,33
 445 2 445 2 423.5 -4.5 c 128,-1,34
 402 -11 402 -11 391 -13 c 1,35,36
 378 -13 378 -13 378 -6 c 2,37,-1
 375 56 l 1,38,39
 359 40 359 40 353 35.5 c 128,-1,40
 347 31 347 31 336.5 23 c 128,-1,41
 326 15 326 15 314.5 10 c 128,-1,42
 303 5 303 5 288 0 c 0,43,44
 258 -12 258 -12 220 -12 c 0,0,1
EndSplineSet
EndChar

StartChar: v
Encoding: 118 118 89
Width: 481
GlyphClass: 2
Flags: W
LayerCount: 2
Fore
SplineSet
401 430 m 1,0,-1
 470 433 l 1,1,-1
 478 396 l 1,2,-1
 474 396 l 1,3,4
 445 393 445 393 434 381.5 c 128,-1,5
 423 370 423 370 408 337 c 2,6,-1
 254 0 l 1,7,-1
 213 0 l 1,8,-1
 64 330 l 2,9,10
 45 372 45 372 31.5 384.5 c 128,-1,11
 18 397 18 397 -13 397 c 1,12,-1
 -22 434 l 1,13,14
 30 430 30 430 93 430 c 128,-1,15
 156 430 156 430 208 434 c 1,16,-1
 216 398 l 1,17,-1
 212 398 l 1,18,19
 145 397 145 397 145 374 c 0,20,21
 145 365 145 365 151 353 c 2,22,-1
 255 104 l 1,23,-1
 368 355 l 2,24,25
 374 369 374 369 374 374 c 0,26,27
 374 394 374 394 322 395 c 1,28,-1
 313 433 l 1,29,-1
 401 430 l 1,0,-1
EndSplineSet
EndChar

StartChar: w
Encoding: 119 119 90
Width: 763
GlyphClass: 2
Flags: W
LayerCount: 2
Fore
SplineSet
683 430 m 1,0,-1
 752 433 l 1,1,-1
 760 396 l 1,2,-1
 756 396 l 1,3,4
 727 393 727 393 716 381.5 c 128,-1,5
 705 370 705 370 690 337 c 2,6,-1
 536 0 l 1,7,-1
 495 0 l 1,8,-1
 375 265 l 1,9,-1
 254 0 l 1,10,-1
 213 0 l 1,11,-1
 64 330 l 2,12,13
 45 372 45 372 31.5 384.5 c 128,-1,14
 18 397 18 397 -13 397 c 1,15,-1
 -22 434 l 1,16,17
 30 430 30 430 89 430 c 128,-1,18
 148 430 148 430 200 434 c 1,19,-1
 208 398 l 1,20,-1
 204 398 l 1,21,22
 137 397 137 397 137 374 c 0,23,24
 137 365 137 365 143 353 c 2,25,-1
 250 98 l 1,26,-1
 351 318 l 1,27,28
 327 375 327 375 316.5 386 c 128,-1,29
 306 397 306 397 275 397 c 1,30,-1
 266 434 l 1,31,32
 318 430 318 430 373.5 430 c 128,-1,33
 429 430 429 430 481 434 c 1,34,-1
 489 398 l 1,35,-1
 485 398 l 1,36,37
 418 397 418 397 418 374 c 0,38,39
 418 369 418 369 424 353 c 2,40,-1
 531 98 l 1,41,-1
 650 355 l 2,42,43
 656 369 656 369 656 374 c 0,44,45
 656 394 656 394 604 395 c 1,46,-1
 595 433 l 1,47,-1
 683 430 l 1,0,-1
EndSplineSet
EndChar

StartChar: x
Encoding: 120 120 91
Width: 521
GlyphClass: 2
Flags: W
LayerCount: 2
Fore
SplineSet
330 433 m 1,0,-1
 418 430 l 2,1,2
 425 430 425 430 497 433 c 1,3,-1
 505 395 l 1,4,-1
 493 395 l 2,5,6
 434 395 434 395 416 365 c 1,7,-1
 317 232 l 1,8,-1
 464 61 l 1,9,10
 489 35 489 35 516 35 c 1,11,-1
 525 -3 l 1,12,13
 486 0 486 0 408 0 c 128,-1,14
 330 0 330 0 291 -3 c 1,15,-1
 283 35 l 1,16,17
 324 35 324 35 334 39.5 c 128,-1,18
 344 44 344 44 350 48 c 1,19,20
 361 58 361 58 345 80 c 1,21,-1
 256 190 l 1,22,-1
 159 64 l 2,23,24
 153 56 153 56 153 51 c 0,25,26
 153 35 153 35 193 35 c 2,27,-1
 198 35 l 1,28,-1
 207 -3 l 1,29,30
 102 0 102 0 97 0 c 128,-1,31
 92 0 92 0 20 -3 c 1,32,-1
 12 35 l 1,33,-1
 16 35 l 2,34,35
 51 35 51 35 66.5 41 c 128,-1,36
 82 47 82 47 99 70 c 2,37,-1
 223 227 l 1,38,-1
 116 353 l 1,39,40
 94 381 94 381 75 388 c 128,-1,41
 56 395 56 395 22 395 c 2,42,-1
 17 395 l 1,43,-1
 8 434 l 1,44,45
 60 430 60 430 125 430 c 128,-1,46
 190 430 190 430 242 434 c 1,47,-1
 250 395 l 1,48,-1
 232 395 l 2,49,50
 211 395 211 395 205.5 385.5 c 128,-1,51
 200 376 200 376 212 359 c 1,52,-1
 283 272 l 1,53,-1
 364 372 l 2,54,55
 372 383 372 383 372 387 c 0,56,57
 372 395 372 395 348 395 c 2,58,-1
 339 395 l 1,59,-1
 330 433 l 1,0,-1
EndSplineSet
EndChar

StartChar: y
Encoding: 121 121 92
Width: 473
GlyphClass: 2
Flags: W
LayerCount: 2
Fore
SplineSet
393 430 m 1,0,-1
 462 433 l 1,1,-1
 470 396 l 1,2,-1
 466 396 l 1,3,4
 437 392 437 392 423.5 380.5 c 128,-1,5
 410 369 410 369 398 338 c 2,6,-1
 196 -142 l 1,7,8
 151 -235 151 -235 112 -256 c 0,9,10
 91 -267 91 -267 57.5 -267 c 128,-1,11
 24 -267 24 -267 4 -250 c 1,12,13
 4 -236 4 -236 17 -208.5 c 128,-1,14
 30 -181 30 -181 34 -181 c 0,15,16
 49 -184 49 -184 82.5 -184 c 128,-1,17
 116 -184 116 -184 151 -124 c 128,-1,18
 186 -64 186 -64 210 3 c 1,19,-1
 66 330 l 2,20,21
 47 372 47 372 33.5 384.5 c 128,-1,22
 20 397 20 397 -11 397 c 1,23,-1
 -20 434 l 1,24,25
 32 430 32 430 95 430 c 128,-1,26
 158 430 158 430 210 434 c 1,27,-1
 218 398 l 1,28,-1
 214 398 l 1,29,30
 147 397 147 397 147 374 c 0,31,32
 147 365 147 365 153 353 c 1,33,-1
 252 104 l 1,34,-1
 355 355 l 2,35,36
 361 369 361 369 361 374 c 0,37,38
 361 394 361 394 309 395 c 1,39,-1
 300 433 l 1,40,-1
 393 430 l 1,0,-1
EndSplineSet
EndChar

StartChar: z
Encoding: 122 122 93
Width: 451
GlyphClass: 2
Flags: W
LayerCount: 2
Fore
SplineSet
289 384 m 1,0,1
 289 388 289 388 285 388 c 2,2,-1
 247 388 l 2,3,4
 176 388 176 388 149 382 c 128,-1,5
 122 376 122 376 112 364 c 0,6,7
 91 338 91 338 80 281 c 1,8,-1
 44 288 l 1,9,10
 44 307 44 307 49.5 357.5 c 128,-1,11
 55 408 55 408 65 442 c 1,12,13
 107 429 107 429 231 429 c 2,14,-1
 291 429 l 2,15,16
 360 429 360 429 407 433 c 1,17,18
 412 425 412 425 412 415 c 1,19,-1
 158 56 l 1,20,21
 156 51 156 51 162 51 c 2,22,-1
 264 51 l 2,23,24
 326 51 326 51 343.5 72.5 c 128,-1,25
 361 94 361 94 374 171 c 1,26,-1
 408 174 l 1,27,28
 413 119 413 119 413 72.5 c 128,-1,29
 413 26 413 26 406 -3 c 1,30,31
 290 0 290 0 205 0 c 1,32,-1
 35 -3 l 1,33,34
 30 5 30 5 30 15 c 1,35,36
 246 341 246 341 289 384 c 1,0,1
EndSplineSet
EndChar

StartChar: braceleft
Encoding: 123 123 94
Width: 428
GlyphClass: 2
Flags: W
LayerCount: 2
Fore
SplineSet
55 285 m 0,0,1
 55 288 55 288 60 290 c 1,2,3
 180 298 180 298 180 393 c 0,4,5
 180 417 180 417 164 505 c 128,-1,6
 148 593 148 593 148 602 c 0,7,8
 148 682 148 682 210 721 c 128,-1,9
 272 760 272 760 351 760 c 0,10,11
 357 760 357 760 363 760 c 1,12,13
 372 756 372 756 375 734 c 0,14,15
 376 724 376 724 368 723 c 0,16,17
 233 701 233 701 233 605 c 0,18,19
 233 582 233 582 252 518 c 128,-1,20
 271 454 271 454 271 424.5 c 128,-1,21
 271 395 271 395 259.5 366 c 128,-1,22
 248 337 248 337 213.5 309.5 c 128,-1,23
 179 282 179 282 127 277 c 0,24,25
 126 276 126 276 130 272 c 1,26,27
 200 253 200 253 235.5 209.5 c 128,-1,28
 271 166 271 166 271 121.5 c 128,-1,29
 271 77 271 77 253 19 c 128,-1,30
 235 -39 235 -39 234.5 -51.5 c 128,-1,31
 234 -64 234 -64 234 -69 c 0,32,33
 234 -112 234 -112 262.5 -148 c 128,-1,34
 291 -184 291 -184 361 -191 c 0,35,36
 369 -192 369 -192 368 -202 c 0,37,38
 365 -224 365 -224 356 -228 c 1,39,40
 259 -217 259 -217 204 -165 c 128,-1,41
 149 -113 149 -113 149 -48 c 0,42,43
 149 -20 149 -20 164.5 41 c 128,-1,44
 180 102 180 102 180 122.5 c 128,-1,45
 180 143 180 143 177.5 159 c 128,-1,46
 175 175 175 175 164 195 c 0,47,48
 144 234 144 234 63 254 c 0,49,50
 58 256 58 256 56.5 259.5 c 128,-1,51
 55 263 55 263 55 285 c 0,0,1
EndSplineSet
EndChar

StartChar: bar
Encoding: 124 124 95
Width: 254
GlyphClass: 2
Flags: W
LayerCount: 2
Fore
SplineSet
100 -266 m 1,0,-1
 100 743 l 1,1,2
 121 760 121 760 154 760 c 1,3,-1
 154 -253 l 1,4,5
 143 -266 143 -266 100 -266 c 1,0,-1
EndSplineSet
EndChar

StartChar: braceright
Encoding: 125 125 96
Width: 428
GlyphClass: 2
Flags: W
LayerCount: 2
Fore
SplineSet
267 41 m 128,-1,1
 283 -20 283 -20 283 -48 c 0,2,3
 283 -113 283 -113 227.5 -165 c 128,-1,4
 172 -217 172 -217 75 -228 c 1,5,6
 66 -224 66 -224 63 -202 c 0,7,8
 62 -192 62 -192 70 -191 c 0,9,10
 140 -183 140 -183 169 -147.5 c 128,-1,11
 198 -112 198 -112 198 -67 c 0,12,13
 198 -63 198 -63 197.5 -51 c 128,-1,14
 197 -39 197 -39 178.5 19 c 128,-1,15
 160 77 160 77 160 121.5 c 128,-1,16
 160 166 160 166 195.5 209.5 c 128,-1,17
 231 253 231 253 301 272 c 1,18,19
 304 276 304 276 304 277 c 0,20,21
 252 282 252 282 218 310 c 1,22,23
 160 355 160 355 160 422 c 0,24,25
 160 454 160 454 179 518 c 128,-1,26
 198 582 198 582 198 605 c 0,27,28
 198 701 198 701 63 723 c 0,29,30
 55 724 55 724 56 734 c 0,31,32
 59 756 59 756 68 760 c 1,33,34
 74 760 74 760 80 760 c 0,35,36
 159 760 159 760 221 721 c 128,-1,37
 283 682 283 682 283 602 c 0,38,39
 283 593 283 593 267 505 c 128,-1,40
 251 417 251 417 251 393 c 0,41,42
 251 298 251 298 371 290 c 1,43,44
 376 288 376 288 376 285 c 0,45,46
 376 263 376 263 374 259.5 c 128,-1,47
 372 256 372 256 368 254 c 0,48,49
 287 234 287 234 266 195 c 1,50,51
 251 165 251 165 251 133.5 c 128,-1,0
 251 102 251 102 267 41 c 128,-1,1
EndSplineSet
EndChar

StartChar: asciitilde
Encoding: 126 126 97
Width: 619
GlyphClass: 2
Flags: W
LayerCount: 2
Fore
SplineSet
538 272 m 0,0,1
 538 223 538 223 509.5 178.5 c 128,-1,2
 481 134 481 134 438 134 c 128,-1,3
 395 134 395 134 349 164 c 128,-1,4
 303 194 303 194 263 224 c 128,-1,5
 223 254 223 254 199 254 c 128,-1,6
 175 254 175 254 160.5 244 c 128,-1,7
 146 234 146 234 140 215 c 0,8,9
 131 186 131 186 131 145 c 1,10,11
 117 140 117 140 105.5 140 c 128,-1,12
 94 140 94 140 84 143 c 1,13,14
 83 146 83 146 83 160 c 0,15,16
 83 220 83 220 111 268 c 128,-1,17
 139 316 139 316 201 316 c 0,18,19
 242 316 242 316 287.5 286 c 128,-1,20
 333 256 333 256 373 226 c 128,-1,21
 413 196 413 196 439 196 c 0,22,23
 488 196 488 196 488 314 c 1,24,25
 512 314 512 314 535 300 c 1,26,27
 538 296 538 296 538 272 c 0,0,1
EndSplineSet
EndChar

StartChar: exclamdown
Encoding: 161 161 98
Width: 319
GlyphClass: 2
Flags: W
LayerCount: 2
Fore
SplineSet
108 -214 m 1,0,-1
 140 230 l 2,1,2
 140 237 140 237 147 237 c 2,3,-1
 177 239 l 2,4,5
 180 239 180 239 180 231 c 2,6,-1
 221 -214 l 1,7,8
 212 -218 212 -218 176.5 -230 c 128,-1,9
 141 -242 141 -242 130 -244 c 1,10,11
 115 -244 115 -244 110 -233 c 0,12,13
 108 -230 108 -230 108 -214 c 1,0,-1
195.5 440 m 128,-1,15
 210 426 210 426 210 405 c 128,-1,16
 210 384 210 384 195 368.5 c 128,-1,17
 180 353 180 353 158.5 353 c 128,-1,18
 137 353 137 353 122.5 366.5 c 128,-1,19
 108 380 108 380 108 401 c 128,-1,20
 108 422 108 422 123 438 c 128,-1,21
 138 454 138 454 159.5 454 c 128,-1,14
 181 454 181 454 195.5 440 c 128,-1,15
EndSplineSet
EndChar

StartChar: cent
Encoding: 162 162 99
Width: 442
GlyphClass: 2
Flags: W
LayerCount: 2
Fore
SplineSet
282 589 m 1,0,1
 287 594 287 594 299.5 594 c 128,-1,2
 312 594 312 594 321 591 c 1,3,-1
 309 499 l 1,4,5
 426 486 426 486 426 464 c 0,6,7
 426 455 426 455 413 428.5 c 128,-1,8
 400 402 400 402 385 402 c 0,9,10
 378 402 378 402 353 421 c 128,-1,11
 328 440 328 440 303 449 c 1,12,-1
 261 111 l 1,13,14
 267 109 267 109 293.5 109 c 128,-1,15
 320 109 320 109 352 120.5 c 128,-1,16
 384 132 384 132 402 150 c 0,17,18
 404 152 404 152 407 152 c 128,-1,19
 410 152 410 152 412 150 c 2,20,-1
 432 127 l 1,21,22
 397 89 397 89 348.5 68.5 c 128,-1,23
 300 48 300 48 253 47 c 1,24,-1
 241 -55 l 1,25,26
 237 -66 237 -66 219 -66 c 128,-1,27
 201 -66 201 -66 199 -65 c 1,28,-1
 213 50 l 1,29,30
 131 62 131 62 84.5 120.5 c 128,-1,31
 38 179 38 179 38 265 c 0,32,33
 38 379 38 379 106 440 c 128,-1,34
 174 501 174 501 271 501 c 1,35,-1
 282 589 l 1,0,1
244 459 m 0,36,37
 198 459 198 459 163.5 417 c 128,-1,38
 129 375 129 375 129 307.5 c 128,-1,39
 129 240 129 240 152.5 191.5 c 128,-1,40
 176 143 176 143 222 122 c 1,41,-1
 265 458 l 1,42,43
 258 459 258 459 244 459 c 0,36,37
EndSplineSet
EndChar

StartChar: sterling
Encoding: 163 163 100
Width: 563
GlyphClass: 2
Flags: W
LayerCount: 2
Fore
SplineSet
231 322 m 1,0,-1
 233 261 l 2,1,2
 233 231 233 231 221.5 201.5 c 128,-1,3
 210 172 210 172 199.5 156.5 c 128,-1,4
 189 141 189 141 181.5 131.5 c 128,-1,5
 174 122 174 122 163.5 109.5 c 128,-1,6
 153 97 153 97 147 89 c 1,7,8
 188 107 188 107 225 107 c 0,9,10
 246 107 246 107 301.5 75.5 c 128,-1,11
 357 44 357 44 389 44 c 0,12,13
 392 44 392 44 396 44 c 0,14,15
 460 55 460 55 477 150 c 1,16,17
 477 158 477 158 486 154 c 2,18,-1
 514 142 l 1,19,20
 503 60 503 60 457.5 15 c 128,-1,21
 412 -30 412 -30 348 -30 c 0,22,23
 318 -30 318 -30 276 -11 c 128,-1,24
 234 8 234 8 206 27 c 0,25,26
 162 56 162 56 136 56 c 128,-1,27
 110 56 110 56 104 44 c 128,-1,28
 98 32 98 32 98 1 c 1,29,30
 96 -4 96 -4 93 -4 c 1,31,32
 77 -11 77 -11 44 -14 c 1,33,34
 40 -13 40 -13 37 -1 c 128,-1,35
 34 11 34 11 38 29 c 128,-1,36
 42 47 42 47 56 61 c 0,37,38
 102 108 102 108 120 142 c 0,39,40
 141 181 141 181 141 228 c 128,-1,41
 141 275 141 275 135 322 c 1,42,-1
 44 322 l 1,43,44
 36 323 36 323 30.5 338.5 c 128,-1,45
 25 354 25 354 25 368 c 1,46,-1
 130 368 l 1,47,48
 122 457 122 457 122 471 c 0,49,50
 122 556 122 556 174 619 c 0,51,52
 235 692 235 692 344 692 c 0,53,54
 375 692 375 692 405.5 681 c 128,-1,55
 436 670 436 670 436 659 c 1,56,57
 428 627 428 627 402 588 c 1,58,59
 398 584 398 584 392 584 c 1,60,61
 320 632 320 632 278 632 c 0,62,63
 225 632 225 632 212 586 c 0,64,65
 207 567 207 567 207 528 c 0,66,67
 207 495 207 495 224 368 c 1,68,-1
 399 369 l 1,69,70
 403 365 403 365 408 349 c 128,-1,71
 413 333 413 333 410 322 c 1,72,-1
 231 322 l 1,0,-1
EndSplineSet
EndChar

StartChar: currency
Encoding: 164 164 101
Width: 516
GlyphClass: 2
Flags: W
LayerCount: 2
Fore
SplineSet
352 498 m 1,0,1
 413 572 413 572 427 586 c 1,2,3
 454 586 454 586 484 561 c 1,4,-1
 395 464 l 1,5,6
 445 412 445 412 445 335.5 c 128,-1,7
 445 259 445 259 405 206 c 1,8,-1
 471 128 l 1,9,10
 471 119 471 119 458 104.5 c 128,-1,11
 445 90 445 90 431 85 c 1,12,13
 371 162 371 162 367 167 c 1,14,15
 320 132 320 132 258 132 c 128,-1,16
 196 132 196 132 150 165 c 1,17,-1
 77 84 l 1,18,19
 75 84 75 84 70 84 c 128,-1,20
 65 84 65 84 49.5 92.5 c 128,-1,21
 34 101 34 101 28 114 c 1,22,-1
 110 202 l 1,23,24
 74 251 74 251 74 321 c 0,25,26
 74 414 74 414 133 471 c 1,27,-1
 61 557 l 1,28,29
 63 568 63 568 74 584.5 c 128,-1,30
 85 601 85 601 94 608 c 1,31,32
 97 602 97 602 112 584 c 0,33,34
 153 535 153 535 178 503 c 1,35,36
 216 521 216 521 263.5 521 c 128,-1,37
 311 521 311 521 352 498 c 1,0,1
171 220 m 128,-1,39
 202 183 202 183 253.5 183 c 128,-1,40
 305 183 305 183 342 229.5 c 128,-1,41
 379 276 379 276 379 337 c 128,-1,42
 379 398 379 398 346.5 435 c 128,-1,43
 314 472 314 472 265 472 c 128,-1,44
 216 472 216 472 178 428 c 128,-1,45
 140 384 140 384 140 320.5 c 128,-1,38
 140 257 140 257 171 220 c 128,-1,39
EndSplineSet
EndChar

StartChar: yen
Encoding: 165 165 102
Width: 610
GlyphClass: 2
Flags: W
LayerCount: 2
Fore
SplineSet
483 677 m 1,0,-1
 589 681 l 1,1,-1
 599 638 l 1,2,-1
 593 638 l 2,3,4
 519 638 519 638 496 598 c 2,5,-1
 356 358 l 1,6,-1
 505 358 l 1,7,-1
 505 359 l 1,8,9
 509 355 509 355 514 339 c 128,-1,10
 519 323 519 323 516 312 c 1,11,-1
 351 312 l 1,12,-1
 351 246 l 1,13,-1
 505 246 l 1,14,-1
 505 247 l 1,15,16
 509 243 509 243 514 227 c 128,-1,17
 519 211 519 211 516 200 c 1,18,-1
 351 200 l 1,19,-1
 351 76 l 2,20,21
 351 58 351 58 365.5 50 c 128,-1,22
 380 42 380 42 429 40 c 1,23,-1
 438 -3 l 1,24,-1
 317 0 l 1,25,-1
 189 -3 l 1,26,-1
 181 40 l 1,27,28
 238 44 238 44 250.5 49.5 c 128,-1,29
 263 55 263 55 263 76 c 2,30,-1
 263 200 l 1,31,-1
 118 200 l 1,32,33
 110 201 110 201 104.5 216.5 c 128,-1,34
 99 232 99 232 99 246 c 1,35,-1
 263 246 l 1,36,-1
 263 312 l 1,37,-1
 118 312 l 1,38,39
 110 313 110 313 104.5 328.5 c 128,-1,40
 99 344 99 344 99 358 c 1,41,-1
 246 358 l 1,42,-1
 116 566 l 2,43,44
 90 607 90 607 68.5 622.5 c 128,-1,45
 47 638 47 638 14 638 c 1,46,-1
 4 681 l 1,47,48
 77 676 77 676 138.5 676 c 128,-1,49
 200 676 200 676 255 681 c 1,50,-1
 264 638 l 1,51,-1
 260 638 l 2,52,53
 190 638 190 638 190 614 c 0,54,55
 190 604 190 604 199 589 c 2,56,-1
 322 388 l 1,57,-1
 423 576 l 1,58,59
 432 595 432 595 432 605.5 c 128,-1,60
 432 616 432 616 428 622 c 0,61,62
 417 636 417 636 370 638 c 1,63,-1
 358 681 l 1,64,-1
 483 677 l 1,0,-1
EndSplineSet
EndChar

StartChar: brokenbar
Encoding: 166 166 103
Width: 254
GlyphClass: 2
Flags: W
LayerCount: 2
Fore
SplineSet
100 322 m 1,0,-1
 100 706 l 1,1,2
 121 723 121 723 155 723 c 1,3,-1
 155 335 l 1,4,5
 144 322 144 322 100 322 c 1,0,-1
100 -226 m 1,6,-1
 100 158 l 1,7,8
 121 175 121 175 155 175 c 1,9,-1
 155 -213 l 1,10,11
 144 -226 144 -226 100 -226 c 1,6,-1
EndSplineSet
EndChar

StartChar: section
Encoding: 167 167 104
Width: 500
GlyphClass: 2
Flags: W
LayerCount: 2
Fore
SplineSet
136 531 m 0,0,1
 136 602 136 602 191.5 662 c 128,-1,2
 247 722 247 722 323 722 c 0,3,4
 363 722 363 722 396.5 707.5 c 128,-1,5
 430 693 430 693 430 662 c 0,6,7
 430 649 430 649 421.5 622.5 c 128,-1,8
 413 596 413 596 400 596 c 0,9,10
 395 596 395 596 382.5 612 c 128,-1,11
 370 628 370 628 346.5 644.5 c 128,-1,12
 323 661 323 661 288 661 c 128,-1,13
 253 661 253 661 228.5 639.5 c 128,-1,14
 204 618 204 618 204 584.5 c 128,-1,15
 204 551 204 551 227 518.5 c 128,-1,16
 250 486 250 486 284 458 c 128,-1,17
 318 430 318 430 358 395.5 c 128,-1,18
 398 361 398 361 432 329 c 128,-1,19
 466 297 466 297 489 257 c 128,-1,20
 512 217 512 217 512 177 c 0,21,22
 512 62 512 62 412 2 c 1,23,24
 413 0 413 0 413 -8 c 0,25,26
 413 -85 413 -85 357.5 -142.5 c 128,-1,27
 302 -200 302 -200 208 -200 c 0,28,29
 161 -200 161 -200 115 -179 c 128,-1,30
 69 -158 69 -158 69 -133 c 128,-1,31
 69 -108 69 -108 77.5 -81 c 128,-1,32
 86 -54 86 -54 100 -54 c 0,33,34
 107 -54 107 -54 124 -75 c 128,-1,35
 141 -96 141 -96 169.5 -117.5 c 128,-1,36
 198 -139 198 -139 238.5 -139 c 128,-1,37
 279 -139 279 -139 307.5 -117 c 128,-1,38
 336 -95 336 -95 336 -63 c 128,-1,39
 336 -31 336 -31 314 0.5 c 128,-1,40
 292 32 292 32 259 61 c 128,-1,41
 226 90 226 90 187 125 c 128,-1,42
 148 160 148 160 115 193 c 128,-1,43
 82 226 82 226 60 266.5 c 128,-1,44
 38 307 38 307 38 357 c 0,45,46
 38 448 38 448 138 510 c 1,47,48
 136 524 136 524 136 531 c 0,0,1
148 475 m 1,49,50
 109 436 109 436 109 394.5 c 128,-1,51
 109 353 109 353 148.5 304 c 128,-1,52
 188 255 188 255 237 215.5 c 128,-1,53
 286 176 286 176 336.5 125.5 c 128,-1,54
 387 75 387 75 404 35 c 1,55,56
 441 72 441 72 441 129 c 0,57,58
 441 169 441 169 402.5 215.5 c 128,-1,59
 364 262 364 262 316 298.5 c 128,-1,60
 268 335 268 335 217 384 c 128,-1,61
 166 433 166 433 148 475 c 1,49,50
EndSplineSet
EndChar

StartChar: dieresis
Encoding: 168 168 105
Width: 490
GlyphClass: 2
Flags: W
LayerCount: 2
Fore
SplineSet
111.5 564 m 128,-1,1
 95 580 95 580 95 605 c 128,-1,2
 95 630 95 630 112.5 648 c 128,-1,3
 130 666 130 666 155.5 666 c 128,-1,4
 181 666 181 666 197.5 650.5 c 128,-1,5
 214 635 214 635 214 609.5 c 128,-1,6
 214 584 214 584 197 566 c 128,-1,7
 180 548 180 548 154 548 c 128,-1,0
 128 548 128 548 111.5 564 c 128,-1,1
288.5 564 m 128,-1,9
 272 580 272 580 272 605 c 128,-1,10
 272 630 272 630 289 648 c 128,-1,11
 306 666 306 666 331.5 666 c 128,-1,12
 357 666 357 666 373.5 650.5 c 128,-1,13
 390 635 390 635 390 609.5 c 128,-1,14
 390 584 390 584 372.5 566 c 128,-1,15
 355 548 355 548 330 548 c 128,-1,8
 305 548 305 548 288.5 564 c 128,-1,9
EndSplineSet
EndChar

StartChar: copyright
Encoding: 169 169 106
Width: 741
GlyphClass: 2
Flags: W
LayerCount: 2
Fore
SplineSet
387 560 m 0,0,1
 334 560 334 560 301 514.5 c 128,-1,2
 268 469 268 469 268 405.5 c 128,-1,3
 268 342 268 342 304 293 c 128,-1,4
 340 244 340 244 391.5 244 c 128,-1,5
 443 244 443 244 469 261.5 c 128,-1,6
 495 279 495 279 511 316 c 1,7,-1
 526 314 l 1,8,9
 526 308 526 308 516 274.5 c 128,-1,10
 506 241 506 241 501 241 c 1,11,12
 450 212 450 212 370 212 c 128,-1,13
 290 212 290 212 236.5 262.5 c 128,-1,14
 183 313 183 313 183 399 c 128,-1,15
 183 485 183 485 239 537.5 c 128,-1,16
 295 590 295 590 383 590 c 0,17,18
 416 590 416 590 460.5 581.5 c 128,-1,19
 505 573 505 573 511 572 c 1,20,21
 514 564 514 564 514 528.5 c 128,-1,22
 514 493 514 493 511 476 c 1,23,-1
 486 479 l 1,24,25
 486 521 486 521 453 541 c 1,26,27
 424 560 424 560 387 560 c 0,0,1
143.5 629 m 128,-1,29
 237 722 237 722 373 722 c 128,-1,30
 509 722 509 722 600 629.5 c 128,-1,31
 691 537 691 537 691 401.5 c 128,-1,32
 691 266 691 266 597.5 173 c 128,-1,33
 504 80 504 80 369 80 c 128,-1,34
 234 80 234 80 142 171.5 c 128,-1,35
 50 263 50 263 50 399.5 c 128,-1,28
 50 536 50 536 143.5 629 c 128,-1,29
569.5 600.5 m 128,-1,37
 488 680 488 680 370.5 680 c 128,-1,38
 253 680 253 680 171.5 600.5 c 128,-1,39
 90 521 90 521 90 402.5 c 128,-1,40
 90 284 90 284 171.5 204 c 128,-1,41
 253 124 253 124 374.5 124 c 128,-1,42
 496 124 496 124 573.5 202.5 c 128,-1,43
 651 281 651 281 651 401 c 128,-1,36
 651 521 651 521 569.5 600.5 c 128,-1,37
EndSplineSet
EndChar

StartChar: ordfeminine
Encoding: 170 170 107
Width: 341
GlyphClass: 2
Flags: W
LayerCount: 2
Fore
SplineSet
109 505 m 1,0,1
 113 467 113 467 149.5 467 c 128,-1,2
 186 467 186 467 201 488 c 1,3,-1
 201 561 l 1,4,5
 146 550 146 550 127.5 538 c 128,-1,6
 109 526 109 526 109 505 c 1,0,1
301 471 m 1,7,8
 303 452 303 452 306 449 c 1,9,10
 300 446 300 446 271.5 438.5 c 128,-1,11
 243 431 243 431 230 431 c 0,12,13
 209 431 209 431 205 473 c 1,14,15
 195 457 195 457 173.5 444.5 c 128,-1,16
 152 432 152 432 130 431 c 1,17,-1
 126 431 l 2,18,19
 96 431 96 431 73.5 448 c 128,-1,20
 51 465 51 465 51 497.5 c 128,-1,21
 51 530 51 530 81.5 548.5 c 128,-1,22
 112 567 112 567 201 583 c 1,23,-1
 201 621 l 2,24,25
 201 690 201 690 150 690 c 0,26,27
 132 690 132 690 116 682 c 1,28,-1
 116 638 l 1,29,30
 114 636 114 636 98 632 c 128,-1,31
 82 628 82 628 75.5 628 c 128,-1,32
 69 628 69 628 65.5 631 c 128,-1,33
 62 634 62 634 62 651 c 128,-1,34
 62 668 62 668 71 682 c 1,35,36
 80 694 80 694 117 708 c 128,-1,37
 154 722 154 722 175 722 c 0,38,39
 256 722 256 722 256 631 c 2,40,-1
 256 502 l 2,41,42
 256 488 256 488 261 480 c 128,-1,43
 266 472 266 472 270.5 471 c 128,-1,44
 275 470 275 470 283 470 c 2,45,-1
 296 470 l 2,46,47
 300 470 300 470 301 471 c 1,7,8
EndSplineSet
EndChar

StartChar: guillemotleft
Encoding: 171 171 108
Width: 509
GlyphClass: 2
Flags: W
LayerCount: 2
Fore
SplineSet
270 399.5 m 128,-1,1
 270 381 270 381 268 371 c 1,2,-1
 119 233 l 1,3,-1
 119 231 l 1,4,-1
 268 92 l 1,5,6
 270 86 270 86 270 66.5 c 128,-1,7
 270 47 270 47 268 40 c 1,8,9
 251 57 251 57 155.5 127.5 c 128,-1,10
 60 198 60 198 29 206 c 1,11,12
 20 215 20 215 20 232 c 128,-1,13
 20 249 20 249 21 251 c 1,14,15
 70 270 70 270 190 363 c 0,16,17
 218 385 218 385 242.5 403.5 c 128,-1,18
 267 422 267 422 268 423 c 1,19,0
 270 418 270 418 270 399.5 c 128,-1,1
454 399.5 m 128,-1,21
 454 381 454 381 452 371 c 1,22,-1
 303 233 l 1,23,-1
 303 231 l 1,24,-1
 458 92 l 1,25,26
 459 87 459 87 456.5 66.5 c 128,-1,27
 454 46 454 46 452 40 c 1,28,29
 430 62 430 62 342 130 c 128,-1,30
 254 198 254 198 223 206 c 1,31,32
 214 215 214 215 214 232 c 128,-1,33
 214 249 214 249 215 251 c 1,34,35
 261 268 261 268 402 382 c 0,36,37
 451 422 451 422 452 423 c 1,38,20
 454 418 454 418 454 399.5 c 128,-1,21
EndSplineSet
EndChar

StartChar: logicalnot
Encoding: 172 172 109
Width: 656
GlyphClass: 2
Flags: W
LayerCount: 2
Fore
SplineSet
504 20 m 1,0,1
 504 20 504 20 506 157 c 1,2,-1
 504 291 l 2,3,4
 504 298 504 298 497 298 c 2,5,-1
 366 300 l 1,6,-1
 93 298 l 1,7,8
 81 308 81 308 81 326 c 128,-1,9
 81 344 81 344 83 352 c 1,10,-1
 367 350 l 1,11,-1
 548 352 l 2,12,13
 558 352 558 352 558 337 c 2,14,-1
 556 156 l 1,15,-1
 558 30 l 1,16,17
 548 18 548 18 530 18 c 128,-1,18
 512 18 512 18 504 20 c 1,0,1
EndSplineSet
EndChar

StartChar: uni00AD
Encoding: 173 173 110
Width: 279
GlyphClass: 2
Flags: W
LayerCount: 2
Fore
SplineSet
23 226 m 1,0,1
 23 226 23 226 128 224 c 1,2,-1
 233 226 l 1,3,4
 251 208 251 208 251 172 c 1,5,-1
 127 174 l 1,6,-1
 33 172 l 1,7,8
 21 182 21 182 21 200 c 128,-1,9
 21 218 21 218 23 226 c 1,0,1
EndSplineSet
EndChar

StartChar: registered
Encoding: 174 174 111
Width: 303
GlyphClass: 2
Flags: W
LayerCount: 2
Fore
SplineSet
48 679.5 m 128,-1,1
 91 722 91 722 153 722 c 128,-1,2
 215 722 215 722 256.5 680 c 128,-1,3
 298 638 298 638 298 575 c 128,-1,4
 298 512 298 512 255.5 470.5 c 128,-1,5
 213 429 213 429 150 429 c 128,-1,6
 87 429 87 429 46 470 c 128,-1,7
 5 511 5 511 5 574 c 128,-1,0
 5 637 5 637 48 679.5 c 128,-1,1
236.5 660 m 128,-1,9
 202 693 202 693 152.5 693 c 128,-1,10
 103 693 103 693 68.5 659.5 c 128,-1,11
 34 626 34 626 34 575.5 c 128,-1,12
 34 525 34 525 68.5 492 c 128,-1,13
 103 459 103 459 154 459 c 128,-1,14
 205 459 205 459 238 491 c 128,-1,15
 271 523 271 523 271 575 c 128,-1,8
 271 627 271 627 236.5 660 c 128,-1,9
85 651 m 1,16,-1
 111 650 l 1,17,-1
 157 651 l 2,18,19
 182 651 182 651 198.5 641 c 128,-1,20
 215 631 215 631 215 613 c 0,21,22
 215 584 215 584 182 575 c 1,23,-1
 221 525 l 1,24,25
 232 519 232 519 238 518 c 1,26,-1
 241 508 l 1,27,28
 234 509 234 509 225 509 c 2,29,-1
 195 509 l 1,30,31
 189 516 189 516 173 540 c 0,32,33
 153 571 153 571 151 571 c 2,34,-1
 137 571 l 1,35,-1
 137 526 l 2,36,37
 137 520 137 520 155 518 c 1,38,-1
 158 508 l 1,39,-1
 123 509 l 1,40,-1
 87 508 l 1,41,-1
 86 518 l 1,42,43
 104 522 104 522 104 526 c 2,44,-1
 104 630 l 2,45,46
 104 635 104 635 87 637 c 1,47,-1
 85 651 l 1,16,-1
137 634 m 2,48,-1
 137 586 l 1,49,50
 140 584 140 584 151 584 c 0,51,52
 182 584 182 584 182 613 c 0,53,54
 182 637 182 637 153 637 c 0,55,56
 137 637 137 637 137 634 c 2,48,-1
EndSplineSet
EndChar

StartChar: macron
Encoding: 175 175 112
Width: 416
GlyphClass: 2
Flags: W
LayerCount: 2
Fore
SplineSet
100 601 m 1,0,1
 100 601 100 601 248 599 c 0,2,3
 288 599 288 599 308 601 c 1,4,5
 316 592 316 592 322 573 c 128,-1,6
 328 554 328 554 328 541 c 1,7,-1
 111 541 l 1,8,9
 97 555 97 555 97 573.5 c 128,-1,10
 97 592 97 592 100 601 c 1,0,1
EndSplineSet
EndChar

StartChar: degree
Encoding: 176 176 113
Width: 294
GlyphClass: 2
Flags: W
LayerCount: 2
Fore
SplineSet
100 526.5 m 128,-1,1
 120 505 120 505 149.5 505 c 128,-1,2
 179 505 179 505 196 521 c 128,-1,3
 213 537 213 537 213 571.5 c 128,-1,4
 213 606 213 606 192.5 625.5 c 128,-1,5
 172 645 172 645 143.5 645 c 128,-1,6
 115 645 115 645 97.5 630 c 128,-1,7
 80 615 80 615 80 581.5 c 128,-1,0
 80 548 80 548 100 526.5 c 128,-1,1
66.5 488.5 m 128,-1,9
 35 520 35 520 35 571.5 c 128,-1,10
 35 623 35 623 66 658 c 128,-1,11
 97 693 97 693 146 693 c 128,-1,12
 195 693 195 693 227 660.5 c 128,-1,13
 259 628 259 628 259 577 c 128,-1,14
 259 526 259 526 227 491.5 c 128,-1,15
 195 457 195 457 146.5 457 c 128,-1,8
 98 457 98 457 66.5 488.5 c 128,-1,9
EndSplineSet
EndChar

StartChar: plusminus
Encoding: 177 177 114
Width: 576
GlyphClass: 2
Flags: W
LayerCount: 2
Fore
SplineSet
57 58 m 1,0,1
 57 58 57 58 272 56 c 1,2,-1
 469 58 l 1,3,4
 477 49 477 49 483 30 c 128,-1,5
 489 11 489 11 489 -2 c 1,6,-1
 271 0 l 1,7,-1
 68 -2 l 1,8,9
 54 12 54 12 54 30.5 c 128,-1,10
 54 49 54 49 57 58 c 1,0,1
252 93 m 1,11,-1
 254 321 l 1,12,-1
 49 319 l 1,13,14
 37 329 37 329 37 347 c 128,-1,15
 37 365 37 365 39 373 c 1,16,-1
 254 371 l 1,17,-1
 252 555 l 1,18,19
 270 573 270 573 306 573 c 1,20,-1
 304 371 l 1,21,-1
 501 373 l 1,22,23
 519 355 519 355 519 319 c 1,24,-1
 304 321 l 1,25,-1
 306 103 l 1,26,27
 296 91 296 91 278 91 c 128,-1,28
 260 91 260 91 252 93 c 1,11,-1
EndSplineSet
EndChar

StartChar: twosuperior
Encoding: 178 178 115
Width: 289
GlyphClass: 2
Flags: W
LayerCount: 2
Fore
SplineSet
122 483 m 1,0,-1
 147 484 l 1,1,-1
 184 484 l 2,2,3
 206 484 206 484 217.5 493.5 c 128,-1,4
 229 503 229 503 238 524 c 1,5,-1
 254 516 l 1,6,7
 254 495 254 495 248.5 467 c 128,-1,8
 243 439 243 439 237 424 c 1,9,10
 222 429 222 429 161 429 c 2,11,-1
 124 429 l 2,12,13
 57 429 57 429 36 427 c 1,14,15
 30 435 30 435 30 446 c 1,16,17
 35 451 35 451 47.5 461 c 128,-1,18
 60 471 60 471 68 478 c 0,19,20
 90 497 90 497 121 534 c 0,21,22
 181 605 181 605 181 662 c 0,23,24
 181 685 181 685 167 700.5 c 128,-1,25
 153 716 153 716 127 716 c 0,26,27
 88 716 88 716 59 677 c 1,28,29
 55 677 55 677 49.5 681 c 128,-1,30
 44 685 44 685 44 691 c 1,31,32
 57 722 57 722 84 741 c 128,-1,33
 111 760 111 760 150 760 c 128,-1,34
 189 760 189 760 217 736.5 c 128,-1,35
 245 713 245 713 245 670 c 128,-1,36
 245 627 245 627 187 562 c 1,37,38
 142 508 142 508 122 487 c 0,39,40
 121 486 121 486 122 483 c 1,0,-1
EndSplineSet
EndChar

StartChar: threesuperior
Encoding: 179 179 116
Width: 280
GlyphClass: 2
Flags: W
LayerCount: 2
Fore
SplineSet
84 591 m 1,0,1
 178 632 178 632 178 674 c 0,2,3
 178 696 178 696 165.5 707 c 128,-1,4
 153 718 153 718 133 718 c 0,5,6
 95 718 95 718 58 679 c 1,7,8
 56 679 56 679 51.5 683.5 c 128,-1,9
 47 688 47 688 47 691 c 1,10,11
 60 715 60 715 90 737.5 c 128,-1,12
 120 760 120 760 155 760 c 128,-1,13
 190 760 190 760 211.5 742 c 128,-1,14
 233 724 233 724 233 694.5 c 128,-1,15
 233 665 233 665 213 640.5 c 128,-1,16
 193 616 193 616 163 603 c 1,17,-1
 166 600 l 1,18,19
 189 593 189 593 204.5 585.5 c 128,-1,20
 220 578 220 578 233.5 561 c 128,-1,21
 247 544 247 544 247 520 c 0,22,23
 247 474 247 474 201 444.5 c 128,-1,24
 155 415 155 415 107.5 415 c 128,-1,25
 60 415 60 415 52 423 c 0,26,27
 50 425 50 425 50 434 c 2,28,-1
 50 443 l 1,29,-1
 78 443 l 2,30,31
 124 443 124 443 153.5 465 c 128,-1,32
 183 487 183 487 183 520 c 0,33,34
 183 569 183 569 116 571 c 0,35,36
 91 571 91 571 86 569 c 1,37,38
 84 572 84 572 84 591 c 1,0,1
EndSplineSet
EndChar

StartChar: acute
Encoding: 180 180 117
Width: 254
GlyphClass: 2
Flags: W
LayerCount: 2
Fore
SplineSet
40 535 m 1,0,-1
 127 716 l 1,1,2
 144 716 144 716 172 706 c 0,3,4
 221 688 221 688 221 681 c 1,5,-1
 63 515 l 1,6,7
 52 518 52 518 46 524.5 c 128,-1,8
 40 531 40 531 40 535 c 1,0,-1
EndSplineSet
EndChar

StartChar: mu
Encoding: 181 181 118
AltUni2: 0003bc.ffffffff.0
Width: 501
GlyphClass: 2
Flags: W
LayerCount: 2
Fore
SplineSet
194.5 -9 m 128,-1,1
 177 -12 177 -12 147 -12 c 128,-1,2
 117 -12 117 -12 83 2 c 1,3,-1
 79 2 l 2,4,5
 74 2 74 2 74 -4 c 0,6,7
 77 -104 77 -104 114 -201 c 0,8,9
 126 -233 126 -233 126 -237 c 0,10,11
 126 -246 126 -246 101.5 -257 c 128,-1,12
 77 -268 77 -268 46 -268 c 128,-1,13
 15 -268 15 -268 15 139 c 2,14,-1
 15 422 l 1,15,16
 21 428 21 428 50.5 435 c 128,-1,17
 80 442 80 442 89 442 c 128,-1,18
 98 442 98 442 100 440 c 1,19,-1
 100 173 l 2,20,21
 100 57 100 57 206 57 c 0,22,23
 234 57 234 57 263 68.5 c 128,-1,24
 292 80 292 80 309 97 c 1,25,-1
 308 422 l 1,26,27
 314 428 314 428 343.5 435 c 128,-1,28
 373 442 373 442 382 442 c 128,-1,29
 391 442 391 442 393 440 c 1,30,-1
 393 98 l 2,31,32
 393 54 393 54 411 54 c 0,33,34
 431 54 431 54 482 74 c 1,35,36
 486 70 486 70 486 58 c 128,-1,37
 486 46 486 46 482 41 c 1,38,39
 448 22 448 22 404 5 c 128,-1,40
 360 -12 360 -12 339 -12 c 0,41,42
 313 -12 313 -12 313 56 c 1,43,44
 297 40 297 40 291 35.5 c 128,-1,45
 285 31 285 31 274.5 23 c 128,-1,46
 264 15 264 15 252.5 10 c 128,-1,47
 241 5 241 5 226.5 -0.5 c 128,-1,0
 212 -6 212 -6 194.5 -9 c 128,-1,1
EndSplineSet
EndChar

StartChar: paragraph
Encoding: 182 182 119
Width: 546
GlyphClass: 2
Flags: W
LayerCount: 2
Fore
SplineSet
410 459 m 1,0,-1
 512 461 l 1,1,-1
 520 417 l 1,2,3
 440 409 440 409 429 401.5 c 128,-1,4
 418 394 418 394 418 378 c 2,5,-1
 418 -100 l 1,6,-1
 358 -100 l 1,7,-1
 359 402 l 1,8,-1
 352 402 l 2,9,10
 309 402 309 402 309 365 c 2,11,-1
 304 -101 l 1,12,-1
 244 -101 l 1,13,-1
 244 64 l 1,14,-1
 224 64 l 2,15,16
 142 64 142 64 89.5 118 c 128,-1,17
 37 172 37 172 37 265.5 c 128,-1,18
 37 359 37 359 104.5 409 c 128,-1,19
 172 459 172 459 276 459 c 2,20,-1
 410 459 l 1,0,-1
EndSplineSet
EndChar

StartChar: periodcentered
Encoding: 183 183 120
Width: 230
GlyphClass: 2
Flags: W
LayerCount: 2
Fore
SplineSet
73 176.5 m 128,-1,1
 57 192 57 192 57 216 c 128,-1,2
 57 240 57 240 74 257.5 c 128,-1,3
 91 275 91 275 116 275 c 128,-1,4
 141 275 141 275 156.5 260.5 c 128,-1,5
 172 246 172 246 172 221.5 c 128,-1,6
 172 197 172 197 155 179 c 128,-1,7
 138 161 138 161 113.5 161 c 128,-1,0
 89 161 89 161 73 176.5 c 128,-1,1
EndSplineSet
EndChar

StartChar: cedilla
Encoding: 184 184 121
Width: 833
GlyphClass: 2
Flags: W
LayerCount: 2
Fore
SplineSet
464 -124 m 0,0,1
 464 -211 464 -211 307 -211 c 0,2,3
 303 -211 303 -211 303 -201.5 c 128,-1,4
 303 -192 303 -192 306 -192 c 0,5,6
 406 -182 406 -182 406 -133 c 0,7,8
 406 -111 406 -111 388 -94 c 128,-1,9
 370 -77 370 -77 328 -74 c 0,10,11
 326 -74 326 -74 321 -61 c 1,12,13
 321 -48 321 -48 369 18 c 1,14,-1
 400 -11 l 1,15,-1
 378 -35 l 1,16,17
 421 -46 421 -46 442.5 -71 c 128,-1,18
 464 -96 464 -96 464 -124 c 0,0,1
EndSplineSet
EndChar

StartChar: onesuperior
Encoding: 185 185 122
Width: 233
GlyphClass: 2
Flags: W
LayerCount: 2
Fore
SplineSet
56 719 m 2,0,-1
 47 719 l 1,1,-1
 43 738 l 1,2,3
 45 739 45 739 64 742 c 0,4,5
 71 743 71 743 133 760 c 1,6,7
 140 760 140 760 141.5 758.5 c 128,-1,8
 143 757 143 757 143 752 c 2,9,-1
 143 485 l 2,10,11
 143 474 143 474 152 470 c 128,-1,12
 161 466 161 466 189 463 c 1,13,-1
 198 428 l 1,14,15
 150 430 150 430 122.5 430 c 128,-1,16
 95 430 95 430 45 428 c 1,17,-1
 35 463 l 1,18,19
 71 467 71 467 80 470.5 c 128,-1,20
 89 474 89 474 89 485 c 2,21,-1
 90 695 l 2,22,23
 90 708 90 708 83 713.5 c 128,-1,24
 76 719 76 719 56 719 c 2,0,-1
EndSplineSet
EndChar

StartChar: ordmasculine
Encoding: 186 186 123
Width: 354
GlyphClass: 2
Flags: W
LayerCount: 2
Fore
SplineSet
171 459 m 0,0,1
 252 459 252 459 252 565 c 0,2,3
 252 621 252 621 225.5 658 c 128,-1,4
 199 695 199 695 159 695 c 0,5,6
 79 695 79 695 79 587 c 0,7,8
 79 534 79 534 103.5 496.5 c 128,-1,9
 128 459 128 459 171 459 c 0,0,1
60.5 469 m 128,-1,11
 20 508 20 508 20 571 c 128,-1,12
 20 634 20 634 62 678 c 128,-1,13
 104 722 104 722 167 722 c 128,-1,14
 230 722 230 722 270.5 682.5 c 128,-1,15
 311 643 311 643 311 579.5 c 128,-1,16
 311 516 311 516 269 473 c 128,-1,17
 227 430 227 430 164 430 c 128,-1,10
 101 430 101 430 60.5 469 c 128,-1,11
EndSplineSet
EndChar

StartChar: guillemotright
Encoding: 187 187 124
Width: 509
GlyphClass: 2
Flags: W
LayerCount: 2
Fore
SplineSet
488 251 m 1,0,1
 489 249 489 249 489 244.5 c 128,-1,2
 489 240 489 240 486 226 c 128,-1,3
 483 212 483 212 480 206 c 1,4,5
 449 198 449 198 353.5 127.5 c 128,-1,6
 258 57 258 57 241 40 c 1,7,8
 239 47 239 47 239 66.5 c 128,-1,9
 239 86 239 86 241 92 c 1,10,-1
 390 231 l 1,11,-1
 390 233 l 1,12,-1
 241 371 l 1,13,14
 238 380 238 380 238 399 c 128,-1,15
 238 418 238 418 241 423 c 1,16,17
 242 422 242 422 266.5 403.5 c 128,-1,18
 291 385 291 385 319.5 363 c 128,-1,19
 348 341 348 341 381 317 c 0,20,21
 452 265 452 265 488 251 c 1,0,1
294 251 m 1,22,23
 295 249 295 249 295 244.5 c 128,-1,24
 295 240 295 240 292 226 c 128,-1,25
 289 212 289 212 286 206 c 1,26,27
 255 198 255 198 167 130 c 128,-1,28
 79 62 79 62 57 40 c 1,29,30
 55 46 55 46 52.5 66.5 c 128,-1,31
 50 87 50 87 51 92 c 1,32,-1
 206 231 l 1,33,-1
 206 233 l 1,34,-1
 57 371 l 1,35,36
 54 380 54 380 54 399 c 128,-1,37
 54 418 54 418 57 423 c 1,38,39
 58 422 58 422 108 382 c 0,40,41
 248 268 248 268 294 251 c 1,22,23
EndSplineSet
EndChar

StartChar: onequarter
Encoding: 188 188 125
Width: 705
GlyphClass: 2
Flags: W
LayerCount: 2
Fore
SplineSet
573 353 m 1,0,1
 575 341 575 341 575 339 c 1,2,3
 569 329 569 329 569 292 c 2,4,-1
 569 155 l 1,5,-1
 594 155 l 2,6,7
 610 155 610 155 634 163 c 1,8,9
 638 157 638 157 638 144 c 256,10,11
 638 131 638 131 627 102 c 1,12,13
 606 109 606 109 565 109 c 1,14,-1
 565 -12 l 1,15,16
 543 -10 543 -10 537 -10 c 2,17,-1
 513 -7 l 1,18,-1
 514 116 l 1,19,-1
 377 116 l 2,20,21
 359 116 359 116 359 134 c 1,22,23
 360 139 360 139 360 140 c 2,24,-1
 535 346 l 1,25,26
 541 351 541 351 573 353 c 1,0,1
517 155 m 1,27,-1
 517 273 l 1,28,-1
 422 155 l 1,29,-1
 517 155 l 1,27,-1
150 302 m 1,30,-1
 69 301 l 1,31,-1
 64 338 l 1,32,33
 101 340 101 340 110 343 c 128,-1,34
 119 346 119 346 119 355 c 2,35,-1
 120 591 l 2,36,37
 120 614 120 614 84 614 c 2,38,-1
 69 614 l 1,39,-1
 66 633 l 1,40,41
 106 641 106 641 117 645.5 c 128,-1,42
 128 650 128 650 141.5 655 c 128,-1,43
 155 660 155 660 160 662 c 1,44,45
 172 662 172 662 174 660 c 128,-1,46
 176 658 176 658 176 650 c 2,47,-1
 177 356 l 2,48,49
 177 343 177 343 223 339 c 1,50,-1
 228 301 l 1,51,-1
 150 302 l 1,30,-1
131 -39 m 1,52,53
 126 -44 126 -44 118 -44 c 0,54,55
 89 -44 89 -44 75 -36 c 1,56,-1
 532 691 l 1,57,58
 574 691 574 691 584 681 c 1,59,-1
 131 -39 l 1,52,53
EndSplineSet
EndChar

StartChar: onehalf
Encoding: 189 189 126
Width: 714
GlyphClass: 2
Flags: W
LayerCount: 2
Fore
SplineSet
496 313 m 0,0,1
 457 313 457 313 426 269 c 0,2,3
 423 266 423 266 413.5 268.5 c 128,-1,4
 404 271 404 271 407 277 c 0,5,6
 422 311 422 311 452 335 c 128,-1,7
 482 359 482 359 522.5 359 c 128,-1,8
 563 359 563 359 592 334 c 128,-1,9
 621 309 621 309 621 270 c 0,10,11
 621 206 621 206 560 135 c 0,12,13
 534 104 534 104 486 54 c 1,14,-1
 559 54 l 2,15,16
 581 54 581 54 591 65 c 128,-1,17
 601 76 601 76 608 105 c 1,18,-1
 637 95 l 1,19,20
 637 69 637 69 633 45 c 1,21,22
 625 15 625 15 619 -3 c 1,23,24
 603 0 603 0 533 0 c 2,25,-1
 496 0 l 2,26,27
 432 0 432 0 401 -1 c 1,28,29
 394 2 394 2 396 20 c 1,30,31
 452 65 452 65 496 115 c 1,32,33
 553 190 553 190 553 257 c 0,34,35
 553 313 553 313 496 313 c 0,0,1
150 302 m 1,36,-1
 69 301 l 1,37,-1
 64 338 l 1,38,39
 101 340 101 340 110 343 c 128,-1,40
 119 346 119 346 119 355 c 2,41,-1
 120 591 l 2,42,43
 120 614 120 614 84 614 c 2,44,-1
 69 614 l 1,45,-1
 66 633 l 1,46,47
 106 641 106 641 117 645.5 c 128,-1,48
 128 650 128 650 141.5 655 c 128,-1,49
 155 660 155 660 160 662 c 1,50,51
 172 662 172 662 174 660 c 128,-1,52
 176 658 176 658 176 650 c 2,53,-1
 177 356 l 2,54,55
 177 343 177 343 223 339 c 1,56,-1
 228 301 l 1,57,-1
 150 302 l 1,36,-1
131 -39 m 1,58,59
 126 -44 126 -44 118 -44 c 0,60,61
 89 -44 89 -44 75 -36 c 1,62,-1
 532 691 l 1,63,64
 574 691 574 691 584 681 c 1,65,-1
 131 -39 l 1,58,59
EndSplineSet
EndChar

StartChar: threequarters
Encoding: 190 190 127
Width: 745
GlyphClass: 2
Flags: W
LayerCount: 2
Fore
SplineSet
181 537.5 m 128,-1,1
 197 555 197 555 197 574.5 c 128,-1,2
 197 594 197 594 184.5 604 c 128,-1,3
 172 614 172 614 152 614 c 0,4,5
 109 614 109 614 77 574 c 1,6,7
 73 574 73 574 68 582 c 128,-1,8
 63 590 63 590 63 595 c 1,9,10
 76 619 76 619 103.5 639.5 c 128,-1,11
 131 660 131 660 168.5 660 c 128,-1,12
 206 660 206 660 230.5 640 c 128,-1,13
 255 620 255 620 255 595.5 c 128,-1,14
 255 571 255 571 244 553 c 128,-1,15
 233 535 233 535 222 526 c 128,-1,16
 211 517 211 517 190 502 c 1,17,-1
 184 496 l 1,18,19
 271 472 271 472 271 407 c 0,20,21
 271 357 271 357 219.5 326.5 c 128,-1,22
 168 296 168 296 119 296 c 128,-1,23
 70 296 70 296 66 300 c 1,24,25
 60 304 60 304 60 313 c 128,-1,26
 60 322 60 322 61 323 c 1,27,-1
 66 323 l 1,28,29
 84 321 84 321 93 321 c 0,30,31
 141 321 141 321 172.5 345.5 c 128,-1,32
 204 370 204 370 204 400.5 c 128,-1,33
 204 431 204 431 183.5 446 c 128,-1,34
 163 461 163 461 137.5 461 c 128,-1,35
 112 461 112 461 101 456 c 1,36,37
 97 472 97 472 97 484 c 1,38,-1
 98 486 l 1,39,0
 165 520 165 520 181 537.5 c 128,-1,1
613 353 m 1,40,41
 615 341 615 341 615 339 c 1,42,43
 609 329 609 329 609 292 c 2,44,-1
 609 155 l 1,45,-1
 634 155 l 2,46,47
 650 155 650 155 674 163 c 1,48,49
 678 157 678 157 678 144 c 256,50,51
 678 131 678 131 667 102 c 1,52,53
 646 109 646 109 605 109 c 1,54,-1
 605 -12 l 1,55,56
 583 -10 583 -10 577 -10 c 2,57,-1
 553 -7 l 1,58,-1
 554 116 l 1,59,-1
 417 116 l 2,60,61
 399 116 399 116 399 134 c 1,62,63
 400 139 400 139 400 140 c 2,64,-1
 575 346 l 1,65,66
 581 351 581 351 613 353 c 1,40,41
557 155 m 1,67,-1
 557 273 l 1,68,-1
 462 155 l 1,69,-1
 557 155 l 1,67,-1
171 -39 m 1,70,71
 166 -44 166 -44 158 -44 c 0,72,73
 129 -44 129 -44 115 -36 c 1,74,-1
 572 691 l 1,75,76
 614 691 614 691 624 681 c 1,77,-1
 171 -39 l 1,70,71
EndSplineSet
EndChar

StartChar: questiondown
Encoding: 191 191 128
Width: 354
GlyphClass: 2
Flags: W
LayerCount: 2
Fore
SplineSet
164 -153 m 1,0,-1
 235 -147 l 1,1,2
 248 -154 248 -154 248 -223 c 0,3,4
 248 -236 248 -236 240.5 -242 c 128,-1,5
 233 -248 233 -248 204 -248 c 128,-1,6
 175 -248 175 -248 145 -235 c 0,7,8
 80 -207 80 -207 44.5 -157 c 128,-1,9
 9 -107 9 -107 9 -57.5 c 128,-1,10
 9 -8 9 -8 27 24 c 128,-1,11
 45 56 45 56 92 86.5 c 128,-1,12
 139 117 139 117 157.5 139 c 128,-1,13
 176 161 176 161 176 190 c 128,-1,14
 176 219 176 219 160 236 c 1,15,16
 166 249 166 249 174 249 c 0,17,18
 180 249 180 249 212 228 c 0,19,20
 222 222 222 222 236 201.5 c 128,-1,21
 250 181 250 181 250 154 c 0,22,23
 250 86 250 86 183 45 c 0,24,25
 100 -5 100 -5 82 -22 c 128,-1,26
 64 -39 64 -39 64 -72 c 128,-1,27
 64 -105 64 -105 92 -129 c 128,-1,28
 120 -153 120 -153 164 -153 c 1,0,-1
221.5 439 m 128,-1,30
 236 425 236 425 236 404 c 128,-1,31
 236 383 236 383 221 367.5 c 128,-1,32
 206 352 206 352 184.5 352 c 128,-1,33
 163 352 163 352 148.5 365.5 c 128,-1,34
 134 379 134 379 134 400 c 128,-1,35
 134 421 134 421 149 437 c 128,-1,36
 164 453 164 453 185.5 453 c 128,-1,29
 207 453 207 453 221.5 439 c 128,-1,30
EndSplineSet
EndChar

StartChar: Agrave
Encoding: 192 192 129
Width: 773
GlyphClass: 2
Flags: W
LayerCount: 2
Fore
SplineSet
277 898 m 1,0,-1
 431 789 l 1,1,2
 431 785 431 785 425 778.5 c 128,-1,3
 419 772 419 772 408 769 c 1,4,-1
 220 845 l 1,5,6
 222 855 222 855 245.5 876.5 c 128,-1,7
 269 898 269 898 277 898 c 1,0,-1
143 4 m 1,8,-1
 39 0 l 1,9,-1
 29 46 l 1,10,-1
 35 46 l 1,11,12
 81 51 81 51 105.5 71.5 c 128,-1,13
 130 92 130 92 147 139 c 2,14,-1
 359 710 l 1,15,-1
 407 710 l 1,16,-1
 643 123 l 1,17,18
 664 74 664 74 680.5 59 c 128,-1,19
 697 44 697 44 734 44 c 1,20,-1
 745 0 l 1,21,22
 667 5 667 5 604.5 5 c 128,-1,23
 542 5 542 5 483 0 c 1,24,-1
 474 43 l 1,25,-1
 478 43 l 1,26,27
 557 44 557 44 557 71 c 0,28,29
 557 84 557 84 485 249 c 1,30,-1
 236 249 l 1,31,-1
 187 113 l 1,32,33
 184 101 184 101 184 92 c 0,34,35
 184 71 184 71 203 60 c 128,-1,36
 222 49 222 49 268 46 c 1,37,-1
 280 0 l 1,38,-1
 143 4 l 1,8,-1
351 565 m 1,39,-1
 255 301 l 1,40,-1
 462 301 l 1,41,-1
 351 565 l 1,39,-1
EndSplineSet
EndChar

StartChar: Aacute
Encoding: 193 193 130
Width: 773
GlyphClass: 2
Flags: W
LayerCount: 2
Fore
SplineSet
338 791 m 1,0,-1
 492 900 l 1,1,2
 501 900 501 900 523 878.5 c 128,-1,3
 545 857 545 857 549 847 c 1,4,-1
 361 771 l 1,5,6
 350 774 350 774 344 780.5 c 128,-1,7
 338 787 338 787 338 791 c 1,0,-1
143 4 m 1,8,-1
 39 0 l 1,9,-1
 29 46 l 1,10,-1
 35 46 l 1,11,12
 81 51 81 51 105.5 71.5 c 128,-1,13
 130 92 130 92 147 139 c 2,14,-1
 359 710 l 1,15,-1
 407 710 l 1,16,-1
 643 123 l 1,17,18
 664 74 664 74 680.5 59 c 128,-1,19
 697 44 697 44 734 44 c 1,20,-1
 745 0 l 1,21,22
 667 5 667 5 604.5 5 c 128,-1,23
 542 5 542 5 483 0 c 1,24,-1
 474 43 l 1,25,-1
 478 43 l 1,26,27
 557 44 557 44 557 71 c 0,28,29
 557 84 557 84 485 249 c 1,30,-1
 236 249 l 1,31,-1
 187 113 l 1,32,33
 184 101 184 101 184 92 c 0,34,35
 184 71 184 71 203 60 c 128,-1,36
 222 49 222 49 268 46 c 1,37,-1
 280 0 l 1,38,-1
 143 4 l 1,8,-1
351 565 m 1,39,-1
 255 301 l 1,40,-1
 462 301 l 1,41,-1
 351 565 l 1,39,-1
EndSplineSet
EndChar

StartChar: Acircumflex
Encoding: 194 194 131
Width: 773
GlyphClass: 2
Flags: W
LayerCount: 2
Fore
SplineSet
416 933 m 0,0,1
 418 933 418 933 422 926 c 1,2,-1
 526 792 l 1,3,4
 526 788 526 788 520 781.5 c 128,-1,5
 514 775 514 775 503 772 c 1,6,-1
 383 860 l 1,7,-1
 264 772 l 1,8,9
 253 775 253 775 247 781.5 c 128,-1,10
 241 788 241 788 241 792 c 1,11,-1
 347 931 l 1,12,13
 395 933 395 933 416 933 c 0,0,1
143 4 m 1,14,-1
 39 0 l 1,15,-1
 29 46 l 1,16,-1
 35 46 l 1,17,18
 81 51 81 51 105.5 71.5 c 128,-1,19
 130 92 130 92 147 139 c 2,20,-1
 359 710 l 1,21,-1
 407 710 l 1,22,-1
 643 123 l 1,23,24
 664 74 664 74 680.5 59 c 128,-1,25
 697 44 697 44 734 44 c 1,26,-1
 745 0 l 1,27,28
 667 5 667 5 604.5 5 c 128,-1,29
 542 5 542 5 483 0 c 1,30,-1
 474 43 l 1,31,-1
 478 43 l 1,32,33
 557 44 557 44 557 71 c 0,34,35
 557 84 557 84 485 249 c 1,36,-1
 236 249 l 1,37,-1
 187 113 l 1,38,39
 184 101 184 101 184 92 c 0,40,41
 184 71 184 71 203 60 c 128,-1,42
 222 49 222 49 268 46 c 1,43,-1
 280 0 l 1,44,-1
 143 4 l 1,14,-1
351 565 m 1,45,-1
 255 301 l 1,46,-1
 462 301 l 1,47,-1
 351 565 l 1,45,-1
EndSplineSet
EndChar

StartChar: Atilde
Encoding: 195 195 132
Width: 773
GlyphClass: 2
Flags: W
LayerCount: 2
Fore
SplineSet
143 4 m 1,0,-1
 39 0 l 1,1,-1
 29 46 l 1,2,-1
 35 46 l 1,3,4
 81 51 81 51 105.5 71.5 c 128,-1,5
 130 92 130 92 147 139 c 2,6,-1
 359 710 l 1,7,-1
 407 710 l 1,8,-1
 643 123 l 1,9,10
 664 74 664 74 680.5 59 c 128,-1,11
 697 44 697 44 734 44 c 1,12,-1
 745 0 l 1,13,14
 667 5 667 5 604.5 5 c 128,-1,15
 542 5 542 5 483 0 c 1,16,-1
 474 43 l 1,17,-1
 478 43 l 1,18,19
 557 44 557 44 557 71 c 0,20,21
 557 84 557 84 485 249 c 1,22,-1
 236 249 l 1,23,-1
 187 113 l 1,24,25
 184 101 184 101 184 92 c 0,26,27
 184 71 184 71 203 60 c 128,-1,28
 222 49 222 49 268 46 c 1,29,-1
 280 0 l 1,30,-1
 143 4 l 1,0,-1
351 565 m 1,31,-1
 255 301 l 1,32,-1
 462 301 l 1,33,-1
 351 565 l 1,31,-1
288 868 m 2,34,-1
 469 864 l 2,35,36
 503 864 503 864 527 894 c 1,37,38
 534 894 534 894 550 879 c 0,39,40
 551 877 551 877 551 874 c 128,-1,41
 551 871 551 871 549 867 c 0,42,43
 502 789 502 789 471 789 c 2,44,-1
 303 793 l 1,45,46
 252 793 252 793 230 754 c 1,47,48
 230 754 230 754 227 754 c 128,-1,49
 224 754 224 754 209 767 c 0,50,51
 207 770 207 770 207 773 c 128,-1,52
 207 776 207 776 215.5 792.5 c 128,-1,53
 224 809 224 809 247.5 838.5 c 128,-1,54
 271 868 271 868 288 868 c 2,34,-1
EndSplineSet
EndChar

StartChar: Adieresis
Encoding: 196 196 133
Width: 756
GlyphClass: 2
Flags: W
LayerCount: 2
Fore
SplineSet
164 4 m 1,0,-1
 60 0 l 1,1,-1
 50 46 l 1,2,-1
 56 46 l 1,3,4
 102 51 102 51 126.5 71.5 c 128,-1,5
 151 92 151 92 168 139 c 2,6,-1
 380 710 l 1,7,-1
 428 710 l 1,8,-1
 664 123 l 1,9,10
 685 74 685 74 701.5 59 c 128,-1,11
 718 44 718 44 755 44 c 1,12,-1
 766 0 l 1,13,14
 688 5 688 5 625.5 5 c 128,-1,15
 563 5 563 5 504 0 c 1,16,-1
 495 43 l 1,17,-1
 499 43 l 1,18,19
 578 44 578 44 578 71 c 0,20,21
 578 84 578 84 506 249 c 1,22,-1
 257 249 l 1,23,-1
 208 113 l 1,24,25
 205 101 205 101 205 92 c 0,26,27
 205 71 205 71 224 60 c 128,-1,28
 243 49 243 49 289 46 c 1,29,-1
 301 0 l 1,30,-1
 164 4 l 1,0,-1
372 565 m 1,31,-1
 276 301 l 1,32,-1
 483 301 l 1,33,-1
 372 565 l 1,31,-1
271.5 788 m 128,-1,35
 255 804 255 804 255 829 c 128,-1,36
 255 854 255 854 272.5 872 c 128,-1,37
 290 890 290 890 315.5 890 c 128,-1,38
 341 890 341 890 357.5 874.5 c 128,-1,39
 374 859 374 859 374 833.5 c 128,-1,40
 374 808 374 808 357 790 c 128,-1,41
 340 772 340 772 314 772 c 128,-1,34
 288 772 288 772 271.5 788 c 128,-1,35
448.5 788 m 128,-1,43
 432 804 432 804 432 829 c 128,-1,44
 432 854 432 854 449 872 c 128,-1,45
 466 890 466 890 491.5 890 c 128,-1,46
 517 890 517 890 533.5 874.5 c 128,-1,47
 550 859 550 859 550 833.5 c 128,-1,48
 550 808 550 808 532.5 790 c 128,-1,49
 515 772 515 772 490 772 c 128,-1,42
 465 772 465 772 448.5 788 c 128,-1,43
EndSplineSet
EndChar

StartChar: Aring
Encoding: 197 197 134
Width: 726
GlyphClass: 2
Flags: W
LayerCount: 2
Fore
SplineSet
119 4 m 1,0,-1
 15 0 l 1,1,-1
 5 46 l 1,2,-1
 11 46 l 1,3,4
 57 51 57 51 81.5 71.5 c 128,-1,5
 106 92 106 92 123 139 c 2,6,-1
 335 710 l 1,7,-1
 383 710 l 1,8,-1
 619 123 l 1,9,10
 640 74 640 74 656.5 59 c 128,-1,11
 673 44 673 44 710 44 c 1,12,-1
 721 0 l 1,13,14
 643 5 643 5 580.5 5 c 128,-1,15
 518 5 518 5 459 0 c 1,16,-1
 450 43 l 1,17,-1
 454 43 l 1,18,19
 533 44 533 44 533 71 c 0,20,21
 533 84 533 84 461 249 c 1,22,-1
 212 249 l 1,23,-1
 163 113 l 1,24,25
 160 101 160 101 160 92 c 0,26,27
 160 71 160 71 179 60 c 128,-1,28
 198 49 198 49 244 46 c 1,29,-1
 256 0 l 1,30,-1
 119 4 l 1,0,-1
327 565 m 1,31,-1
 231 301 l 1,32,-1
 438 301 l 1,33,-1
 327 565 l 1,31,-1
291 782.5 m 128,-1,35
 266 806 266 806 266 838.5 c 128,-1,36
 266 871 266 871 290 896 c 128,-1,37
 314 921 314 921 350.5 921 c 128,-1,38
 387 921 387 921 412 898.5 c 128,-1,39
 437 876 437 876 437 843 c 128,-1,40
 437 810 437 810 410.5 784.5 c 128,-1,41
 384 759 384 759 350 759 c 128,-1,34
 316 759 316 759 291 782.5 c 128,-1,35
324 868 m 128,-1,43
 311 857 311 857 311 841.5 c 128,-1,44
 311 826 311 826 323.5 815.5 c 128,-1,45
 336 805 336 805 353 805 c 128,-1,46
 370 805 370 805 381.5 816.5 c 128,-1,47
 393 828 393 828 393 843 c 0,48,49
 393 879 393 879 354 879 c 0,50,42
 337 879 337 879 324 868 c 128,-1,43
EndSplineSet
EndChar

StartChar: AE
Encoding: 198 198 135
Width: 1053
GlyphClass: 2
Flags: W
LayerCount: 2
Fore
SplineSet
796 666 m 2,0,-1
 683 665 l 1,1,2
 613 662 613 662 613 649 c 2,3,-1
 613 399 l 2,4,5
 613 389 613 389 623 389 c 2,6,-1
 782 389 l 2,7,8
 806 389 806 389 814.5 411.5 c 128,-1,9
 823 434 823 434 823 495 c 1,10,-1
 856 500 l 1,11,-1
 854 367 l 1,12,-1
 856 244 l 1,13,-1
 823 239 l 1,14,15
 823 298 823 298 816 315 c 128,-1,16
 809 332 809 332 782 332 c 2,17,-1
 623 332 l 2,18,19
 613 332 613 332 613 323 c 2,20,-1
 613 113 l 2,21,22
 613 69 613 69 631 57.5 c 128,-1,23
 649 46 649 46 710 46 c 2,24,-1
 807 46 l 2,25,26
 883 46 883 46 926 81.5 c 128,-1,27
 969 117 969 117 994 191 c 1,28,-1
 1028 185 l 1,29,30
 1028 167 1028 167 1002 83.5 c 128,-1,31
 976 0 976 0 965 0 c 2,32,-1
 710 -2 l 2,33,34
 684 -2 684 -2 558 0 c 1,35,-1
 447 -3 l 1,36,-1
 439 41 l 1,37,38
 495 47 495 47 507.5 52.5 c 128,-1,39
 520 58 520 58 522 80 c 1,40,-1
 522 249 l 1,41,-1
 264 249 l 1,42,-1
 179 113 l 1,43,44
 169 93 169 93 169 80.5 c 128,-1,45
 169 68 169 68 182.5 58.5 c 128,-1,46
 196 49 196 49 242 46 c 1,47,-1
 241 0 l 1,48,-1
 105 4 l 1,49,-1
 0 0 l 1,50,-1
 3 46 l 1,51,-1
 9 46 l 1,52,53
 54 50 54 50 81 70.5 c 128,-1,54
 108 91 108 91 140 139 c 1,55,-1
 453 630 l 2,56,57
 459 639 459 639 459 646 c 128,-1,58
 459 653 459 653 445 659 c 128,-1,59
 431 665 431 665 374 669 c 1,60,-1
 365 713 l 1,61,62
 494 710 494 710 513 710 c 2,63,-1
 720 710 l 1,64,-1
 967 709 l 1,65,66
 974 694 974 694 974 642 c 128,-1,67
 974 590 974 590 969 535 c 1,68,-1
 937 538 l 1,69,70
 925 609 925 609 893 637.5 c 128,-1,71
 861 666 861 666 796 666 c 2,0,-1
522 301 m 1,72,-1
 522 661 l 1,73,-1
 297 301 l 1,74,-1
 522 301 l 1,72,-1
EndSplineSet
EndChar

StartChar: Ccedilla
Encoding: 199 199 136
Width: 713
GlyphClass: 2
Flags: W
LayerCount: 2
Fore
SplineSet
413 -12 m 1,0,-1
 404 -11 l 1,1,-1
 383 -35 l 1,2,3
 426 -46 426 -46 447.5 -71 c 128,-1,4
 469 -96 469 -96 469 -124 c 0,5,6
 469 -211 469 -211 312 -211 c 0,7,8
 308 -211 308 -211 308 -201.5 c 128,-1,9
 308 -192 308 -192 311 -192 c 0,10,11
 411 -182 411 -182 411 -133 c 0,12,13
 411 -111 411 -111 393 -94 c 128,-1,14
 375 -77 375 -77 333 -74 c 0,15,16
 331 -74 331 -74 326 -61 c 1,17,18
 326 -49 326 -49 354 -8 c 1,19,20
 210 10 210 10 123.5 105 c 128,-1,21
 37 200 37 200 37 341 c 0,22,23
 37 517 37 517 145.5 619.5 c 128,-1,24
 254 722 254 722 426 722 c 0,25,26
 489 722 489 722 575.5 704.5 c 128,-1,27
 662 687 662 687 671 686 c 1,28,29
 678 671 678 671 678 619 c 128,-1,30
 678 567 678 567 673 512 c 1,31,-1
 645 515 l 1,32,33
 637 573 637 573 612 605 c 0,34,35
 558 674 558 674 419.5 674 c 128,-1,36
 281 674 281 674 211.5 587.5 c 128,-1,37
 142 501 142 501 142 364.5 c 128,-1,38
 142 228 142 228 223 133 c 128,-1,39
 304 38 304 38 433 38 c 0,40,41
 610 38 610 38 673 191 c 1,42,-1
 702 185 l 1,43,44
 702 174 702 174 682.5 109.5 c 128,-1,45
 663 45 663 45 654 45 c 1,46,47
 553 -12 553 -12 413 -12 c 1,0,-1
EndSplineSet
EndChar

StartChar: Egrave
Encoding: 200 200 137
Width: 675
GlyphClass: 2
Flags: W
LayerCount: 2
Fore
SplineSet
234 898 m 1,0,-1
 388 789 l 1,1,2
 388 785 388 785 382 778.5 c 128,-1,3
 376 772 376 772 365 769 c 1,4,-1
 177 845 l 1,5,6
 179 855 179 855 202.5 876.5 c 128,-1,7
 226 898 226 898 234 898 c 1,0,-1
399 666 m 2,8,-1
 286 665 l 1,9,10
 216 662 216 662 216 649 c 2,11,-1
 216 399 l 2,12,13
 216 389 216 389 226 389 c 2,14,-1
 385 389 l 2,15,16
 409 389 409 389 417.5 411.5 c 128,-1,17
 426 434 426 434 426 495 c 1,18,-1
 459 500 l 1,19,-1
 457 367 l 1,20,21
 457 367 457 367 459 244 c 1,22,-1
 426 239 l 1,23,24
 426 298 426 298 419 315 c 128,-1,25
 412 332 412 332 385 332 c 2,26,-1
 226 332 l 2,27,28
 216 332 216 332 216 323 c 2,29,-1
 216 113 l 2,30,31
 216 69 216 69 234 57.5 c 128,-1,32
 252 46 252 46 313 46 c 2,33,-1
 410 46 l 2,34,35
 486 46 486 46 529 81.5 c 128,-1,36
 572 117 572 117 597 191 c 1,37,-1
 631 185 l 1,38,39
 631 167 631 167 605 83.5 c 128,-1,40
 579 0 579 0 568 0 c 2,41,-1
 313 -2 l 2,42,43
 287 -2 287 -2 161 0 c 1,44,-1
 50 -3 l 1,45,-1
 42 41 l 1,46,47
 98 47 98 47 110.5 52.5 c 128,-1,48
 123 58 123 58 125 80 c 1,49,-1
 125 630 l 2,50,51
 125 651 125 651 111 658 c 128,-1,52
 97 665 97 665 46 669 c 1,53,-1
 37 713 l 1,54,-1
 162 710 l 1,55,-1
 323 710 l 1,56,-1
 570 709 l 1,57,58
 577 694 577 694 577 642 c 128,-1,59
 577 590 577 590 572 535 c 1,60,-1
 540 538 l 1,61,62
 528 609 528 609 496 637.5 c 128,-1,63
 464 666 464 666 399 666 c 2,8,-1
EndSplineSet
EndChar

StartChar: Eacute
Encoding: 201 201 138
Width: 675
GlyphClass: 2
Flags: W
LayerCount: 2
Fore
SplineSet
299 791 m 1,0,-1
 453 900 l 1,1,2
 462 900 462 900 484 878.5 c 128,-1,3
 506 857 506 857 510 847 c 1,4,-1
 322 771 l 1,5,6
 311 774 311 774 305 780.5 c 128,-1,7
 299 787 299 787 299 791 c 1,0,-1
399 666 m 2,8,-1
 286 665 l 1,9,10
 216 662 216 662 216 649 c 2,11,-1
 216 399 l 2,12,13
 216 389 216 389 226 389 c 2,14,-1
 385 389 l 2,15,16
 409 389 409 389 417.5 411.5 c 128,-1,17
 426 434 426 434 426 495 c 1,18,-1
 459 500 l 1,19,-1
 457 367 l 1,20,21
 457 367 457 367 459 244 c 1,22,-1
 426 239 l 1,23,24
 426 298 426 298 419 315 c 128,-1,25
 412 332 412 332 385 332 c 2,26,-1
 226 332 l 2,27,28
 216 332 216 332 216 323 c 2,29,-1
 216 113 l 2,30,31
 216 69 216 69 234 57.5 c 128,-1,32
 252 46 252 46 313 46 c 2,33,-1
 410 46 l 2,34,35
 486 46 486 46 529 81.5 c 128,-1,36
 572 117 572 117 597 191 c 1,37,-1
 631 185 l 1,38,39
 631 167 631 167 605 83.5 c 128,-1,40
 579 0 579 0 568 0 c 2,41,-1
 313 -2 l 2,42,43
 287 -2 287 -2 161 0 c 1,44,-1
 50 -3 l 1,45,-1
 42 41 l 1,46,47
 98 47 98 47 110.5 52.5 c 128,-1,48
 123 58 123 58 125 80 c 1,49,-1
 125 630 l 2,50,51
 125 651 125 651 111 658 c 128,-1,52
 97 665 97 665 46 669 c 1,53,-1
 37 713 l 1,54,-1
 162 710 l 1,55,-1
 323 710 l 1,56,-1
 570 709 l 1,57,58
 577 694 577 694 577 642 c 128,-1,59
 577 590 577 590 572 535 c 1,60,-1
 540 538 l 1,61,62
 528 609 528 609 496 637.5 c 128,-1,63
 464 666 464 666 399 666 c 2,8,-1
EndSplineSet
EndChar

StartChar: Ecircumflex
Encoding: 202 202 139
Width: 675
GlyphClass: 2
Flags: W
LayerCount: 2
Fore
SplineSet
377 933 m 0,0,1
 379 933 379 933 383 926 c 1,2,-1
 487 792 l 1,3,4
 487 788 487 788 481 781.5 c 128,-1,5
 475 775 475 775 464 772 c 1,6,-1
 344 860 l 1,7,-1
 225 772 l 1,8,9
 214 775 214 775 208 781.5 c 128,-1,10
 202 788 202 788 202 792 c 1,11,-1
 308 931 l 1,12,13
 356 933 356 933 377 933 c 0,0,1
399 666 m 2,14,-1
 286 665 l 1,15,16
 216 662 216 662 216 649 c 2,17,-1
 216 399 l 2,18,19
 216 389 216 389 226 389 c 2,20,-1
 385 389 l 2,21,22
 409 389 409 389 417.5 411.5 c 128,-1,23
 426 434 426 434 426 495 c 1,24,-1
 459 500 l 1,25,-1
 457 367 l 1,26,-1
 459 244 l 1,27,-1
 426 239 l 1,28,29
 426 298 426 298 419 315 c 128,-1,30
 412 332 412 332 385 332 c 2,31,-1
 226 332 l 2,32,33
 216 332 216 332 216 323 c 2,34,-1
 216 113 l 2,35,36
 216 69 216 69 234 57.5 c 128,-1,37
 252 46 252 46 313 46 c 2,38,-1
 410 46 l 2,39,40
 486 46 486 46 529 81.5 c 128,-1,41
 572 117 572 117 597 191 c 1,42,-1
 631 185 l 1,43,44
 631 167 631 167 605 83.5 c 128,-1,45
 579 0 579 0 568 0 c 2,46,-1
 313 -2 l 2,47,48
 287 -2 287 -2 161 0 c 1,49,-1
 50 -3 l 1,50,-1
 42 41 l 1,51,52
 98 47 98 47 110.5 52.5 c 128,-1,53
 123 58 123 58 125 80 c 1,54,-1
 125 630 l 2,55,56
 125 651 125 651 111 658 c 128,-1,57
 97 665 97 665 46 669 c 1,58,-1
 37 713 l 1,59,-1
 162 710 l 1,60,-1
 323 710 l 1,61,-1
 570 709 l 1,62,63
 577 694 577 694 577 642 c 128,-1,64
 577 590 577 590 572 535 c 1,65,-1
 540 538 l 1,66,67
 528 609 528 609 496 637.5 c 128,-1,68
 464 666 464 666 399 666 c 2,14,-1
EndSplineSet
EndChar

StartChar: Edieresis
Encoding: 203 203 140
Width: 675
GlyphClass: 2
Flags: W
LayerCount: 2
Fore
SplineSet
399 666 m 2,0,-1
 286 665 l 1,1,2
 216 662 216 662 216 649 c 2,3,-1
 216 399 l 2,4,5
 216 389 216 389 226 389 c 2,6,-1
 385 389 l 2,7,8
 409 389 409 389 417.5 411.5 c 128,-1,9
 426 434 426 434 426 495 c 1,10,-1
 459 500 l 1,11,-1
 457 367 l 1,12,-1
 459 244 l 1,13,-1
 426 239 l 1,14,15
 426 298 426 298 419 315 c 128,-1,16
 412 332 412 332 385 332 c 2,17,-1
 226 332 l 2,18,19
 216 332 216 332 216 323 c 2,20,-1
 216 113 l 2,21,22
 216 69 216 69 234 57.5 c 128,-1,23
 252 46 252 46 313 46 c 2,24,-1
 410 46 l 2,25,26
 486 46 486 46 529 81.5 c 128,-1,27
 572 117 572 117 597 191 c 1,28,-1
 631 185 l 1,29,30
 631 167 631 167 605 83.5 c 128,-1,31
 579 0 579 0 568 0 c 2,32,-1
 313 -2 l 2,33,34
 287 -2 287 -2 161 0 c 1,35,-1
 50 -3 l 1,36,-1
 42 41 l 1,37,38
 98 47 98 47 110.5 52.5 c 128,-1,39
 123 58 123 58 125 80 c 1,40,-1
 125 630 l 2,41,42
 125 651 125 651 111 658 c 128,-1,43
 97 665 97 665 46 669 c 1,44,-1
 37 713 l 1,45,-1
 162 710 l 1,46,-1
 323 710 l 1,47,-1
 570 709 l 1,48,49
 577 694 577 694 577 642 c 128,-1,50
 577 590 577 590 572 535 c 1,51,-1
 540 538 l 1,52,53
 528 609 528 609 496 637.5 c 128,-1,54
 464 666 464 666 399 666 c 2,0,-1
205.5 788 m 128,-1,56
 189 804 189 804 189 829 c 128,-1,57
 189 854 189 854 206.5 872 c 128,-1,58
 224 890 224 890 249.5 890 c 128,-1,59
 275 890 275 890 291.5 874.5 c 128,-1,60
 308 859 308 859 308 833.5 c 128,-1,61
 308 808 308 808 291 790 c 128,-1,62
 274 772 274 772 248 772 c 128,-1,55
 222 772 222 772 205.5 788 c 128,-1,56
382.5 788 m 128,-1,64
 366 804 366 804 366 829 c 128,-1,65
 366 854 366 854 383 872 c 128,-1,66
 400 890 400 890 425.5 890 c 128,-1,67
 451 890 451 890 467.5 874.5 c 128,-1,68
 484 859 484 859 484 833.5 c 128,-1,69
 484 808 484 808 466.5 790 c 128,-1,70
 449 772 449 772 424 772 c 128,-1,63
 399 772 399 772 382.5 788 c 128,-1,64
EndSplineSet
EndChar

StartChar: Igrave
Encoding: 204 204 141
Width: 344
GlyphClass: 2
Flags: W
LayerCount: 2
Fore
SplineSet
79 898 m 1,0,-1
 233 789 l 1,1,2
 233 785 233 785 227 778.5 c 128,-1,3
 221 772 221 772 210 769 c 1,4,-1
 22 845 l 1,5,6
 24 855 24 855 47.5 876.5 c 128,-1,7
 71 898 71 898 79 898 c 1,0,-1
40 713 m 1,8,-1
 166 710 l 2,9,10
 167 710 167 710 299 713 c 1,11,-1
 307 669 l 1,12,13
 244 663 244 663 230 657.5 c 128,-1,14
 216 652 216 652 216 630 c 2,15,-1
 216 80 l 2,16,17
 216 59 216 59 230 52 c 128,-1,18
 244 45 244 45 292 41 c 1,19,-1
 301 -3 l 1,20,-1
 175 0 l 2,21,22
 174 0 174 0 42 -3 c 1,23,-1
 34 41 l 1,24,25
 97 47 97 47 111 52.5 c 128,-1,26
 125 58 125 58 125 80 c 2,27,-1
 125 630 l 2,28,29
 125 651 125 651 111 658 c 128,-1,30
 97 665 97 665 49 669 c 1,31,-1
 40 713 l 1,8,-1
EndSplineSet
EndChar

StartChar: Iacute
Encoding: 205 205 142
Width: 344
GlyphClass: 2
Flags: W
LayerCount: 2
Fore
SplineSet
129 791 m 1,0,-1
 283 900 l 1,1,2
 292 900 292 900 314 878.5 c 128,-1,3
 336 857 336 857 340 847 c 1,4,-1
 152 771 l 1,5,6
 141 774 141 774 135 780.5 c 128,-1,7
 129 787 129 787 129 791 c 1,0,-1
40 713 m 1,8,-1
 166 710 l 2,9,10
 167 710 167 710 299 713 c 1,11,-1
 307 669 l 1,12,13
 244 663 244 663 230 657.5 c 128,-1,14
 216 652 216 652 216 630 c 2,15,-1
 216 80 l 2,16,17
 216 59 216 59 230 52 c 128,-1,18
 244 45 244 45 292 41 c 1,19,-1
 301 -3 l 1,20,-1
 175 0 l 2,21,22
 174 0 174 0 42 -3 c 1,23,-1
 34 41 l 1,24,25
 97 47 97 47 111 52.5 c 128,-1,26
 125 58 125 58 125 80 c 2,27,-1
 125 630 l 2,28,29
 125 651 125 651 111 658 c 128,-1,30
 97 665 97 665 49 669 c 1,31,-1
 40 713 l 1,8,-1
EndSplineSet
EndChar

StartChar: Icircumflex
Encoding: 206 206 143
Width: 344
GlyphClass: 2
Flags: W
LayerCount: 2
Fore
SplineSet
206 933 m 0,0,1
 208 933 208 933 212 926 c 1,2,-1
 316 792 l 1,3,4
 316 788 316 788 310 781.5 c 128,-1,5
 304 775 304 775 293 772 c 1,6,-1
 173 860 l 1,7,-1
 54 772 l 1,8,9
 43 775 43 775 37 781.5 c 128,-1,10
 31 788 31 788 31 792 c 1,11,-1
 137 931 l 1,12,13
 185 933 185 933 206 933 c 0,0,1
40 713 m 1,14,-1
 166 710 l 2,15,16
 167 710 167 710 299 713 c 1,17,-1
 307 669 l 1,18,19
 244 663 244 663 230 657.5 c 128,-1,20
 216 652 216 652 216 630 c 2,21,-1
 216 80 l 2,22,23
 216 59 216 59 230 52 c 128,-1,24
 244 45 244 45 292 41 c 1,25,-1
 301 -3 l 1,26,-1
 175 0 l 2,27,28
 174 0 174 0 42 -3 c 1,29,-1
 34 41 l 1,30,31
 97 47 97 47 111 52.5 c 128,-1,32
 125 58 125 58 125 80 c 2,33,-1
 125 630 l 2,34,35
 125 651 125 651 111 658 c 128,-1,36
 97 665 97 665 49 669 c 1,37,-1
 40 713 l 1,14,-1
EndSplineSet
EndChar

StartChar: Idieresis
Encoding: 207 207 144
Width: 344
GlyphClass: 2
Flags: W
LayerCount: 2
Fore
SplineSet
40 713 m 1,0,-1
 166 710 l 2,1,2
 167 710 167 710 299 713 c 1,3,-1
 307 669 l 1,4,5
 244 663 244 663 230 657.5 c 128,-1,6
 216 652 216 652 216 630 c 2,7,-1
 216 80 l 2,8,9
 216 59 216 59 230 52 c 128,-1,10
 244 45 244 45 292 41 c 1,11,-1
 301 -3 l 1,12,-1
 175 0 l 2,13,14
 174 0 174 0 42 -3 c 1,15,-1
 34 41 l 1,16,17
 97 47 97 47 111 52.5 c 128,-1,18
 125 58 125 58 125 80 c 2,19,-1
 125 630 l 2,20,21
 125 651 125 651 111 658 c 128,-1,22
 97 665 97 665 49 669 c 1,23,-1
 40 713 l 1,0,-1
40.5 788 m 128,-1,25
 24 804 24 804 24 829 c 128,-1,26
 24 854 24 854 41.5 872 c 128,-1,27
 59 890 59 890 84.5 890 c 128,-1,28
 110 890 110 890 126.5 874.5 c 128,-1,29
 143 859 143 859 143 833.5 c 128,-1,30
 143 808 143 808 126 790 c 128,-1,31
 109 772 109 772 83 772 c 128,-1,24
 57 772 57 772 40.5 788 c 128,-1,25
217.5 788 m 128,-1,33
 201 804 201 804 201 829 c 128,-1,34
 201 854 201 854 218 872 c 128,-1,35
 235 890 235 890 260.5 890 c 128,-1,36
 286 890 286 890 302.5 874.5 c 128,-1,37
 319 859 319 859 319 833.5 c 128,-1,38
 319 808 319 808 301.5 790 c 128,-1,39
 284 772 284 772 259 772 c 128,-1,32
 234 772 234 772 217.5 788 c 128,-1,33
EndSplineSet
EndChar

StartChar: Eth
Encoding: 208 208 145
Width: 806
GlyphClass: 2
Flags: W
LayerCount: 2
Fore
SplineSet
155 0 m 1,0,-1
 44 -3 l 1,1,-1
 36 41 l 1,2,3
 92 47 92 47 104.5 52.5 c 128,-1,4
 117 58 117 58 117 80 c 2,5,-1
 117 345 l 1,6,-1
 47 345 l 1,7,8
 39 346 39 346 33.5 361.5 c 128,-1,9
 28 377 28 377 28 391 c 1,10,-1
 117 391 l 1,11,-1
 117 629 l 2,12,13
 117 649 117 649 102.5 656.5 c 128,-1,14
 88 664 88 664 40 668 c 1,15,-1
 31 712 l 1,16,-1
 154 709 l 1,17,-1
 361 711 l 1,18,19
 552 711 552 711 659 620 c 128,-1,20
 766 529 766 529 766 365 c 128,-1,21
 766 201 766 201 656 99 c 128,-1,22
 546 -3 546 -3 344 -3 c 1,23,24
 344 -3 344 -3 155 0 c 1,0,-1
208 345 m 1,25,-1
 208 129 l 2,26,27
 208 109 208 109 209.5 100 c 128,-1,28
 211 91 211 91 218.5 78.5 c 128,-1,29
 226 66 226 66 243 61 c 0,30,31
 287 48 287 48 372 48 c 0,32,33
 513 48 513 48 587 126 c 128,-1,34
 661 204 661 204 661 352.5 c 128,-1,35
 661 501 661 501 577 582.5 c 128,-1,36
 493 664 493 664 336 664 c 2,37,-1
 259 664 l 2,38,39
 208 664 208 664 208 644 c 2,40,-1
 208 391 l 1,41,-1
 402 392 l 1,42,43
 406 388 406 388 411 372 c 128,-1,44
 416 356 416 356 413 345 c 1,45,-1
 208 345 l 1,25,-1
EndSplineSet
EndChar

StartChar: Ntilde
Encoding: 209 209 146
Width: 833
GlyphClass: 2
Flags: W
LayerCount: 2
Fore
SplineSet
652 711 m 1,0,-1
 765 714 l 1,1,-1
 773 670 l 1,2,3
 716 664 716 664 703 658 c 128,-1,4
 690 652 690 652 690 631 c 2,5,-1
 691 -3 l 1,6,7
 684 -2 684 -2 665 -2 c 128,-1,8
 646 -2 646 -2 639 -3 c 1,9,-1
 184 584 l 1,10,-1
 184 79 l 2,11,12
 184 58 184 58 199 51 c 128,-1,13
 214 44 214 44 269 40 c 1,14,-1
 278 -4 l 1,15,-1
 162 -1 l 1,16,-1
 49 -4 l 1,17,-1
 41 40 l 1,18,19
 98 46 98 46 111 52 c 128,-1,20
 124 58 124 58 124 79 c 2,21,-1
 124 631 l 2,22,23
 124 651 124 651 109.5 658.5 c 128,-1,24
 95 666 95 666 47 670 c 1,25,-1
 38 714 l 1,26,27
 38 714 38 714 161 711 c 0,28,29
 188 711 188 711 217 714 c 1,30,31
 217 698 217 698 424 439 c 1,32,33
 589 237 589 237 630 172 c 1,34,-1
 630 631 l 2,35,36
 630 652 630 652 614.5 659 c 128,-1,37
 599 666 599 666 544 670 c 1,38,-1
 535 714 l 1,39,40
 535 714 535 714 652 711 c 1,0,-1
316 877 m 2,41,-1
 497 873 l 2,42,43
 531 873 531 873 555 903 c 1,44,45
 562 903 562 903 578 888 c 0,46,47
 579 886 579 886 579 883 c 128,-1,48
 579 880 579 880 577 876 c 0,49,50
 530 798 530 798 499 798 c 2,51,52
 499 798 499 798 331 802 c 1,53,54
 280 802 280 802 258 763 c 1,55,56
 258 763 258 763 255 763 c 128,-1,57
 252 763 252 763 237 776 c 0,58,59
 235 779 235 779 235 782 c 128,-1,60
 235 785 235 785 243.5 801.5 c 128,-1,61
 252 818 252 818 275.5 847.5 c 128,-1,62
 299 877 299 877 316 877 c 2,41,-1
EndSplineSet
EndChar

StartChar: Ograve
Encoding: 210 210 147
Width: 842
GlyphClass: 2
Flags: W
LayerCount: 2
Fore
SplineSet
360 933 m 1,0,-1
 467 792 l 1,1,2
 467 788 467 788 461 781.5 c 128,-1,3
 455 775 455 775 444 772 c 1,4,-1
 266 898 l 1,5,6
 266 905 266 905 304.5 919 c 128,-1,7
 343 933 343 933 360 933 c 1,0,-1
150 86 m 128,-1,9
 48 184 48 184 48 342 c 128,-1,10
 48 500 48 500 156.5 611 c 128,-1,11
 265 722 265 722 423 722 c 128,-1,12
 581 722 581 722 681 622.5 c 128,-1,13
 781 523 781 523 781 364 c 128,-1,14
 781 205 781 205 675 96.5 c 128,-1,15
 569 -12 569 -12 410.5 -12 c 128,-1,8
 252 -12 252 -12 150 86 c 128,-1,9
438 38 m 0,16,17
 549 38 549 38 612.5 119.5 c 128,-1,18
 676 201 676 201 676 325 c 0,19,20
 676 532 676 532 552 626 c 0,21,22
 488 675 488 675 396 675 c 0,23,24
 285 675 285 675 219 591 c 128,-1,25
 153 507 153 507 153 384 c 0,26,27
 153 246 153 246 220 146 c 0,28,29
 253 96 253 96 309.5 67 c 128,-1,30
 366 38 366 38 438 38 c 0,16,17
EndSplineSet
EndChar

StartChar: Oacute
Encoding: 211 211 148
Width: 842
GlyphClass: 2
Flags: W
LayerCount: 2
Fore
SplineSet
354 791 m 1,0,-1
 508 900 l 1,1,2
 517 900 517 900 539 878.5 c 128,-1,3
 561 857 561 857 565 847 c 1,4,-1
 377 771 l 1,5,6
 366 774 366 774 360 780.5 c 128,-1,7
 354 787 354 787 354 791 c 1,0,-1
150 86 m 128,-1,9
 48 184 48 184 48 342 c 128,-1,10
 48 500 48 500 156.5 611 c 128,-1,11
 265 722 265 722 423 722 c 128,-1,12
 581 722 581 722 681 622.5 c 128,-1,13
 781 523 781 523 781 364 c 128,-1,14
 781 205 781 205 675 96.5 c 128,-1,15
 569 -12 569 -12 410.5 -12 c 128,-1,8
 252 -12 252 -12 150 86 c 128,-1,9
438 38 m 0,16,17
 549 38 549 38 612.5 119.5 c 128,-1,18
 676 201 676 201 676 325 c 0,19,20
 676 532 676 532 552 626 c 0,21,22
 488 675 488 675 396 675 c 0,23,24
 285 675 285 675 219 591 c 128,-1,25
 153 507 153 507 153 384 c 0,26,27
 153 246 153 246 220 146 c 0,28,29
 253 96 253 96 309.5 67 c 128,-1,30
 366 38 366 38 438 38 c 0,16,17
EndSplineSet
EndChar

StartChar: Ocircumflex
Encoding: 212 212 149
Width: 842
GlyphClass: 2
Flags: W
LayerCount: 2
Fore
SplineSet
442 933 m 0,0,1
 444 933 444 933 448 926 c 1,2,-1
 552 792 l 1,3,4
 552 788 552 788 546 781.5 c 128,-1,5
 540 775 540 775 529 772 c 1,6,-1
 409 860 l 1,7,-1
 290 772 l 1,8,9
 279 775 279 775 273 781.5 c 128,-1,10
 267 788 267 788 267 792 c 1,11,-1
 373 931 l 1,12,13
 421 933 421 933 442 933 c 0,0,1
150 86 m 128,-1,15
 48 184 48 184 48 342 c 128,-1,16
 48 500 48 500 156.5 611 c 128,-1,17
 265 722 265 722 423 722 c 128,-1,18
 581 722 581 722 681 622.5 c 128,-1,19
 781 523 781 523 781 364 c 128,-1,20
 781 205 781 205 675 96.5 c 128,-1,21
 569 -12 569 -12 410.5 -12 c 128,-1,14
 252 -12 252 -12 150 86 c 128,-1,15
438 38 m 0,22,23
 549 38 549 38 612.5 119.5 c 128,-1,24
 676 201 676 201 676 325 c 0,25,26
 676 532 676 532 552 626 c 0,27,28
 488 675 488 675 396 675 c 0,29,30
 285 675 285 675 219 591 c 128,-1,31
 153 507 153 507 153 384 c 0,32,33
 153 246 153 246 220 146 c 0,34,35
 253 96 253 96 309.5 67 c 128,-1,36
 366 38 366 38 438 38 c 0,22,23
EndSplineSet
EndChar

StartChar: Otilde
Encoding: 213 213 150
Width: 842
GlyphClass: 2
Flags: W
LayerCount: 2
Fore
SplineSet
150 86 m 128,-1,1
 48 184 48 184 48 342 c 128,-1,2
 48 500 48 500 156.5 611 c 128,-1,3
 265 722 265 722 423 722 c 128,-1,4
 581 722 581 722 681 622.5 c 128,-1,5
 781 523 781 523 781 364 c 128,-1,6
 781 205 781 205 675 96.5 c 128,-1,7
 569 -12 569 -12 410.5 -12 c 128,-1,0
 252 -12 252 -12 150 86 c 128,-1,1
438 38 m 0,8,9
 549 38 549 38 612.5 119.5 c 128,-1,10
 676 201 676 201 676 325 c 0,11,12
 676 532 676 532 552 626 c 0,13,14
 488 675 488 675 396 675 c 0,15,16
 285 675 285 675 219 591 c 128,-1,17
 153 507 153 507 153 384 c 0,18,19
 153 246 153 246 220 146 c 0,20,21
 253 96 253 96 309.5 67 c 128,-1,22
 366 38 366 38 438 38 c 0,8,9
329 878 m 2,23,-1
 510 874 l 2,24,25
 544 874 544 874 568 904 c 1,26,27
 575 904 575 904 591 889 c 0,28,29
 592 887 592 887 592 884 c 128,-1,30
 592 881 592 881 590 877 c 0,31,32
 543 799 543 799 512 799 c 2,33,-1
 344 803 l 1,34,35
 294 803 294 803 271 764 c 1,36,37
 271 764 271 764 268 764 c 128,-1,38
 265 764 265 764 250 777 c 0,39,40
 248 780 248 780 248 783 c 128,-1,41
 248 786 248 786 256.5 802.5 c 128,-1,42
 265 819 265 819 288.5 848.5 c 128,-1,43
 312 878 312 878 329 878 c 2,23,-1
EndSplineSet
EndChar

StartChar: Odieresis
Encoding: 214 214 151
Width: 842
GlyphClass: 2
Flags: W
LayerCount: 2
Fore
SplineSet
150 86 m 128,-1,1
 48 184 48 184 48 342 c 128,-1,2
 48 500 48 500 156.5 611 c 128,-1,3
 265 722 265 722 423 722 c 128,-1,4
 581 722 581 722 681 622.5 c 128,-1,5
 781 523 781 523 781 364 c 128,-1,6
 781 205 781 205 675 96.5 c 128,-1,7
 569 -12 569 -12 410.5 -12 c 128,-1,0
 252 -12 252 -12 150 86 c 128,-1,1
438 38 m 0,8,9
 549 38 549 38 612.5 119.5 c 128,-1,10
 676 201 676 201 676 325 c 0,11,12
 676 532 676 532 552 626 c 0,13,14
 488 675 488 675 396 675 c 0,15,16
 285 675 285 675 219 591 c 128,-1,17
 153 507 153 507 153 384 c 0,18,19
 153 246 153 246 220 146 c 0,20,21
 253 96 253 96 309.5 67 c 128,-1,22
 366 38 366 38 438 38 c 0,8,9
268.5 787 m 128,-1,24
 252 803 252 803 252 828 c 128,-1,25
 252 853 252 853 269.5 871 c 128,-1,26
 287 889 287 889 312.5 889 c 128,-1,27
 338 889 338 889 354.5 873.5 c 128,-1,28
 371 858 371 858 371 832.5 c 128,-1,29
 371 807 371 807 354 789 c 128,-1,30
 337 771 337 771 311 771 c 128,-1,23
 285 771 285 771 268.5 787 c 128,-1,24
445.5 787 m 128,-1,32
 429 803 429 803 429 828 c 128,-1,33
 429 853 429 853 446 871 c 128,-1,34
 463 889 463 889 488.5 889 c 128,-1,35
 514 889 514 889 530.5 873.5 c 128,-1,36
 547 858 547 858 547 832.5 c 128,-1,37
 547 807 547 807 529.5 789 c 128,-1,38
 512 771 512 771 487 771 c 128,-1,31
 462 771 462 771 445.5 787 c 128,-1,32
EndSplineSet
EndChar

StartChar: multiply
Encoding: 215 215 152
Width: 548
GlyphClass: 2
Flags: W
LayerCount: 2
Fore
SplineSet
278 230 m 1,0,-1
 125 74 l 1,1,2
 80 74 80 74 70 95 c 1,3,-1
 247 265 l 1,4,-1
 96 409 l 1,5,6
 96 454 96 454 117 464 c 1,7,-1
 278 301 l 1,8,-1
 417 442 l 1,9,10
 463 439 463 439 478 427 c 1,11,-1
 310 265 l 1,12,-1
 464 117 l 1,13,14
 464 105 464 105 459.5 84.5 c 128,-1,15
 455 64 455 64 449 56 c 1,16,17
 440 63 440 63 377 127 c 128,-1,18
 314 191 314 191 278 230 c 1,0,-1
EndSplineSet
EndChar

StartChar: Oslash
Encoding: 216 216 153
Width: 813
GlyphClass: 2
Flags: W
LayerCount: 2
Fore
SplineSet
773 361 m 0,0,1
 773 205 773 205 667 96.5 c 128,-1,2
 561 -12 561 -12 409 -12 c 0,3,4
 283 -12 283 -12 192 47 c 1,5,-1
 127 -37 l 2,6,7
 124 -40 124 -40 116 -40 c 0,8,9
 87 -40 87 -40 71 -26 c 1,10,-1
 151 77 l 1,11,12
 40 177 40 177 40 338.5 c 128,-1,13
 40 500 40 500 148.5 611 c 128,-1,14
 257 722 257 722 409 722 c 0,15,16
 527 722 527 722 612 669 c 1,17,-1
 669 742 l 1,18,19
 706 742 706 742 719 725 c 1,20,-1
 653 640 l 1,21,22
 773 539 773 539 773 361 c 0,0,1
241 111 m 1,23,24
 317 38 317 38 429 38 c 128,-1,25
 541 38 541 38 604.5 119.5 c 128,-1,26
 668 201 668 201 668 325 c 0,27,28
 668 477 668 477 599 571 c 1,29,-1
 241 111 l 1,23,24
211 591 m 128,-1,31
 145 507 145 507 145 375.5 c 128,-1,32
 145 244 145 244 208 150 c 1,33,-1
 565 609 l 1,34,35
 494 675 494 675 385.5 675 c 128,-1,30
 277 675 277 675 211 591 c 128,-1,31
EndSplineSet
EndChar

StartChar: Ugrave
Encoding: 217 217 154
Width: 786
GlyphClass: 2
Flags: W
LayerCount: 2
Fore
SplineSet
287 898 m 1,0,-1
 441 789 l 1,1,2
 441 785 441 785 435 778.5 c 128,-1,3
 429 772 429 772 418 769 c 1,4,-1
 230 845 l 1,5,6
 232 855 232 855 255.5 876.5 c 128,-1,7
 279 898 279 898 287 898 c 1,0,-1
619 709 m 1,8,-1
 732 712 l 1,9,-1
 740 668 l 1,10,11
 683 662 683 662 670 656 c 128,-1,12
 657 650 657 650 657 629 c 2,13,-1
 657 257 l 2,14,15
 657 -12 657 -12 402 -12 c 0,16,17
 256 -12 256 -12 180.5 50.5 c 128,-1,18
 105 113 105 113 105 250 c 2,19,-1
 105 630 l 2,20,21
 105 650 105 650 93 657.5 c 128,-1,22
 81 665 81 665 41 669 c 1,23,-1
 32 713 l 1,24,-1
 149 710 l 1,25,-1
 269 713 l 1,26,-1
 277 669 l 1,27,28
 221 663 221 663 208.5 657.5 c 128,-1,29
 196 652 196 652 196 630 c 2,30,-1
 196 262 l 2,31,32
 196 38 196 38 421 38 c 0,33,34
 509 38 509 38 553 93 c 128,-1,35
 597 148 597 148 597 247 c 2,36,-1
 597 629 l 2,37,38
 597 650 597 650 581.5 657 c 128,-1,39
 566 664 566 664 511 668 c 1,40,-1
 502 712 l 1,41,-1
 619 709 l 1,8,-1
EndSplineSet
EndChar

StartChar: Uacute
Encoding: 218 218 155
Width: 786
GlyphClass: 2
Flags: W
LayerCount: 2
Fore
SplineSet
337 791 m 1,0,-1
 491 900 l 1,1,2
 500 900 500 900 522 878.5 c 128,-1,3
 544 857 544 857 548 847 c 1,4,-1
 360 771 l 1,5,6
 349 774 349 774 343 780.5 c 128,-1,7
 337 787 337 787 337 791 c 1,0,-1
619 709 m 1,8,-1
 732 712 l 1,9,-1
 740 668 l 1,10,11
 683 662 683 662 670 656 c 128,-1,12
 657 650 657 650 657 629 c 2,13,-1
 657 257 l 2,14,15
 657 -12 657 -12 402 -12 c 0,16,17
 256 -12 256 -12 180.5 50.5 c 128,-1,18
 105 113 105 113 105 250 c 2,19,-1
 105 630 l 2,20,21
 105 650 105 650 93 657.5 c 128,-1,22
 81 665 81 665 41 669 c 1,23,-1
 32 713 l 1,24,-1
 149 710 l 1,25,-1
 269 713 l 1,26,-1
 277 669 l 1,27,28
 221 663 221 663 208.5 657.5 c 128,-1,29
 196 652 196 652 196 630 c 2,30,-1
 196 262 l 2,31,32
 196 38 196 38 421 38 c 0,33,34
 509 38 509 38 553 93 c 128,-1,35
 597 148 597 148 597 247 c 2,36,-1
 597 629 l 2,37,38
 597 650 597 650 581.5 657 c 128,-1,39
 566 664 566 664 511 668 c 1,40,-1
 502 712 l 1,41,-1
 619 709 l 1,8,-1
EndSplineSet
EndChar

StartChar: Ucircumflex
Encoding: 219 219 156
Width: 786
GlyphClass: 2
Flags: W
LayerCount: 2
Fore
SplineSet
427 933 m 0,0,1
 429 933 429 933 433 926 c 1,2,-1
 537 792 l 1,3,4
 537 788 537 788 531 781.5 c 128,-1,5
 525 775 525 775 514 772 c 1,6,-1
 394 860 l 1,7,-1
 275 772 l 1,8,9
 264 775 264 775 258 781.5 c 128,-1,10
 252 788 252 788 252 792 c 1,11,-1
 358 931 l 1,12,13
 406 933 406 933 427 933 c 0,0,1
619 709 m 1,14,-1
 732 712 l 1,15,-1
 740 668 l 1,16,17
 683 662 683 662 670 656 c 128,-1,18
 657 650 657 650 657 629 c 2,19,-1
 657 257 l 2,20,21
 657 -12 657 -12 402 -12 c 0,22,23
 256 -12 256 -12 180.5 50.5 c 128,-1,24
 105 113 105 113 105 250 c 2,25,-1
 105 630 l 2,26,27
 105 650 105 650 93 657.5 c 128,-1,28
 81 665 81 665 41 669 c 1,29,-1
 32 713 l 1,30,-1
 149 710 l 1,31,-1
 269 713 l 1,32,-1
 277 669 l 1,33,34
 221 663 221 663 208.5 657.5 c 128,-1,35
 196 652 196 652 196 630 c 2,36,-1
 196 262 l 2,37,38
 196 38 196 38 421 38 c 0,39,40
 509 38 509 38 553 93 c 128,-1,41
 597 148 597 148 597 247 c 2,42,-1
 597 629 l 2,43,44
 597 650 597 650 581.5 657 c 128,-1,45
 566 664 566 664 511 668 c 1,46,-1
 502 712 l 1,47,-1
 619 709 l 1,14,-1
EndSplineSet
EndChar

StartChar: Udieresis
Encoding: 220 220 157
Width: 786
GlyphClass: 2
Flags: W
LayerCount: 2
Fore
SplineSet
619 709 m 1,0,-1
 732 712 l 1,1,-1
 740 668 l 1,2,3
 683 662 683 662 670 656 c 128,-1,4
 657 650 657 650 657 629 c 2,5,-1
 657 257 l 2,6,7
 657 -12 657 -12 402 -12 c 0,8,9
 256 -12 256 -12 180.5 50.5 c 128,-1,10
 105 113 105 113 105 250 c 2,11,-1
 105 632 l 2,12,13
 105 652 105 652 93 659.5 c 128,-1,14
 81 667 81 667 41 671 c 1,15,-1
 32 715 l 1,16,-1
 149 712 l 1,17,-1
 269 715 l 1,18,-1
 277 671 l 1,19,20
 221 665 221 665 208.5 659.5 c 128,-1,21
 196 654 196 654 196 632 c 2,22,-1
 196 262 l 2,23,24
 196 38 196 38 421 38 c 0,25,26
 509 38 509 38 553 93 c 128,-1,27
 597 148 597 148 597 247 c 2,28,-1
 597 629 l 2,29,30
 597 650 597 650 581.5 657 c 128,-1,31
 566 664 566 664 511 668 c 1,32,-1
 502 712 l 1,33,-1
 619 709 l 1,0,-1
256.5 790 m 128,-1,35
 240 806 240 806 240 831 c 128,-1,36
 240 856 240 856 257.5 874 c 128,-1,37
 275 892 275 892 300.5 892 c 128,-1,38
 326 892 326 892 342.5 876.5 c 128,-1,39
 359 861 359 861 359 835.5 c 128,-1,40
 359 810 359 810 342 792 c 128,-1,41
 325 774 325 774 299 774 c 128,-1,34
 273 774 273 774 256.5 790 c 128,-1,35
433.5 790 m 128,-1,43
 417 806 417 806 417 831 c 128,-1,44
 417 856 417 856 434 874 c 128,-1,45
 451 892 451 892 476.5 892 c 128,-1,46
 502 892 502 892 518.5 876.5 c 128,-1,47
 535 861 535 861 535 835.5 c 128,-1,48
 535 810 535 810 517.5 792 c 128,-1,49
 500 774 500 774 475 774 c 128,-1,42
 450 774 450 774 433.5 790 c 128,-1,43
EndSplineSet
EndChar

StartChar: Yacute
Encoding: 221 221 158
Width: 704
GlyphClass: 2
Flags: W
LayerCount: 2
Fore
SplineSet
332 791 m 1,0,-1
 486 900 l 1,1,2
 495 900 495 900 517 878.5 c 128,-1,3
 539 857 539 857 543 847 c 1,4,-1
 355 771 l 1,5,6
 344 774 344 774 338 780.5 c 128,-1,7
 332 787 332 787 332 791 c 1,0,-1
494 -3 m 1,8,-1
 368 0 l 2,9,10
 367 0 367 0 235 -3 c 1,11,-1
 227 41 l 1,12,13
 288 47 288 47 300 52.5 c 128,-1,14
 312 58 312 58 312 80 c 2,15,-1
 312 315 l 1,16,-1
 117 590 l 2,17,18
 87 634 87 634 65.5 650 c 128,-1,19
 44 666 44 666 11 666 c 1,20,-1
 0 710 l 1,21,22
 78 705 78 705 140.5 705 c 128,-1,23
 203 705 203 705 262 710 c 1,24,-1
 271 666 l 1,25,-1
 267 666 l 2,26,27
 195 666 195 666 195 640 c 0,28,29
 195 629 195 629 204 614 c 1,30,-1
 376 372 l 1,31,-1
 520 600 l 2,32,33
 533 619 533 619 533 632 c 0,34,35
 533 660 533 660 465 666 c 1,36,-1
 453 710 l 1,37,-1
 583 706 l 1,38,-1
 694 710 l 1,39,-1
 704 666 l 1,40,-1
 698 666 l 2,41,42
 629 666 629 666 599 623 c 2,43,-1
 403 333 l 1,44,-1
 403 80 l 2,45,46
 403 59 403 59 418 52 c 128,-1,47
 433 45 433 45 485 41 c 1,48,-1
 494 -3 l 1,8,-1
EndSplineSet
EndChar

StartChar: Thorn
Encoding: 222 222 159
Width: 567
GlyphClass: 2
Flags: W
LayerCount: 2
Fore
SplineSet
36 713 m 1,0,-1
 162 710 l 2,1,2
 163 710 163 710 295 713 c 1,3,-1
 303 669 l 1,4,5
 240 663 240 663 226 657.5 c 128,-1,6
 212 652 212 652 212 630 c 2,7,-1
 212 555 l 1,8,9
 290 557 290 557 310 557 c 0,10,11
 421 557 421 557 489 513.5 c 128,-1,12
 557 470 557 470 557 374.5 c 128,-1,13
 557 279 557 279 483 230.5 c 128,-1,14
 409 182 409 182 292 182 c 0,15,16
 264 182 264 182 249 187 c 1,17,18
 237 197 237 197 237 221 c 0,19,20
 237 227 237 227 240 230 c 1,21,22
 249 227 249 227 279 227 c 0,23,24
 363 227 363 227 414.5 269.5 c 128,-1,25
 466 312 466 312 466 378.5 c 128,-1,26
 466 445 466 445 419 477.5 c 128,-1,27
 372 510 372 510 296 510 c 0,28,29
 231 510 231 510 222.5 504.5 c 128,-1,30
 214 499 214 499 214 493 c 1,31,-1
 212 492 l 1,32,-1
 212 80 l 2,33,34
 212 59 212 59 226 52 c 128,-1,35
 240 45 240 45 288 41 c 1,36,-1
 297 -3 l 1,37,-1
 171 0 l 2,38,39
 170 0 170 0 38 -3 c 1,40,-1
 30 41 l 1,41,42
 93 47 93 47 107 52.5 c 128,-1,43
 121 58 121 58 121 80 c 2,44,-1
 121 630 l 2,45,46
 121 651 121 651 107 658 c 128,-1,47
 93 665 93 665 45 669 c 1,48,-1
 36 713 l 1,0,-1
EndSplineSet
EndChar

StartChar: germandbls
Encoding: 223 223 160
Width: 601
GlyphClass: 2
Flags: W
LayerCount: 2
Fore
SplineSet
259 -1 m 1,0,-1
 171 1 l 2,1,2
 170 1 170 1 53 -2 c 1,3,-1
 45 38 l 1,4,5
 93 42 93 42 102.5 46.5 c 128,-1,6
 112 51 112 51 112 72 c 2,7,-1
 112 351 l 2,8,9
 112 369 112 369 101 369 c 2,10,-1
 47 369 l 1,11,12
 40 381 40 381 40 400 c 1,13,14
 89 406 89 406 106 412 c 0,15,16
 111 413 111 413 111 425 c 2,17,-1
 111 447 l 2,18,19
 111 575 111 575 179.5 667.5 c 128,-1,20
 248 760 248 760 361 760 c 0,21,22
 424 760 424 760 474.5 720 c 128,-1,23
 525 680 525 680 525 609 c 0,24,25
 525 576 525 576 506 543 c 128,-1,26
 487 510 487 510 464 488 c 0,27,28
 402 430 402 430 402 397 c 0,29,30
 402 360 402 360 458 317 c 0,31,32
 482 299 482 299 506 278 c 128,-1,33
 530 257 530 257 546.5 224.5 c 128,-1,34
 563 192 563 192 563 152 c 0,35,36
 563 90 563 90 516 39 c 128,-1,37
 469 -12 469 -12 401.5 -12 c 128,-1,38
 334 -12 334 -12 292 13 c 1,39,40
 288 17 288 17 288 27 c 0,41,42
 288 72 288 72 307 87 c 0,43,44
 311 91 311 91 314.5 89 c 128,-1,45
 318 87 318 87 327.5 76.5 c 128,-1,46
 337 66 337 66 343.5 61 c 128,-1,47
 350 56 350 56 361 48 c 0,48,49
 383 32 383 32 416 32 c 128,-1,50
 449 32 449 32 467.5 54.5 c 128,-1,51
 486 77 486 77 486 108.5 c 128,-1,52
 486 140 486 140 458 173 c 128,-1,53
 430 206 430 206 396.5 230.5 c 128,-1,54
 363 255 363 255 335 288.5 c 128,-1,55
 307 322 307 322 307 351 c 128,-1,56
 307 380 307 380 328 408 c 128,-1,57
 349 436 349 436 373.5 457 c 128,-1,58
 398 478 398 478 419 511.5 c 128,-1,59
 440 545 440 545 440 580 c 0,60,61
 440 643 440 643 407.5 676.5 c 128,-1,62
 375 710 375 710 327 710 c 0,63,64
 197 710 197 710 197 478 c 2,65,-1
 197 72 l 2,66,67
 197 54 197 54 205.5 47 c 128,-1,68
 214 40 214 40 250 38 c 1,69,-1
 259 -1 l 1,0,-1
EndSplineSet
EndChar

StartChar: agrave
Encoding: 224 224 161
Width: 461
GlyphClass: 2
Flags: W
LayerCount: 2
Fore
SplineSet
205 44 m 0,0,1
 256 44 256 44 281 78 c 1,2,-1
 281 190 l 1,3,4
 195 175 195 175 166 156.5 c 128,-1,5
 137 138 137 138 137 104 c 1,6,7
 139 73 139 73 158 58.5 c 128,-1,8
 177 44 177 44 205 44 c 0,0,1
408 50 m 2,9,-1
 429 50 l 2,10,11
 434 50 434 50 436 51 c 1,12,13
 440 25 440 25 443 19 c 1,14,15
 431 13 431 13 388.5 0.5 c 128,-1,16
 346 -12 346 -12 326 -12 c 128,-1,17
 306 -12 306 -12 298 2.5 c 128,-1,18
 290 17 290 17 286 54 c 1,19,20
 269 30 269 30 235.5 10 c 128,-1,21
 202 -10 202 -10 168 -12 c 1,22,-1
 163 -12 l 2,23,24
 115 -12 115 -12 80.5 15 c 128,-1,25
 46 42 46 42 46 93 c 128,-1,26
 46 144 46 144 93.5 171.5 c 128,-1,27
 141 199 141 199 281 225 c 1,28,-1
 281 285 l 2,29,30
 281 393 281 393 200 393 c 0,31,32
 172 393 172 393 147 379 c 1,33,-1
 147 311 l 2,34,35
 147 306 147 306 120.5 301 c 128,-1,36
 94 296 94 296 85.5 296 c 128,-1,37
 77 296 77 296 69 298 c 1,38,39
 61 306 61 306 61 334 c 128,-1,40
 61 362 61 362 77 380 c 1,41,42
 92 400 92 400 149 421 c 128,-1,43
 206 442 206 442 238 442 c 0,44,45
 364 442 364 442 364 300 c 2,46,-1
 364 100 l 2,47,48
 364 68 364 68 376.5 59 c 128,-1,49
 389 50 389 50 408 50 c 2,9,-1
194 716 m 1,50,-1
 281 535 l 1,51,52
 281 531 281 531 275 524.5 c 128,-1,53
 269 518 269 518 258 515 c 1,54,-1
 100 681 l 1,55,56
 100 688 100 688 138.5 702 c 128,-1,57
 177 716 177 716 194 716 c 1,50,-1
EndSplineSet
EndChar

StartChar: aacute
Encoding: 225 225 162
Width: 461
GlyphClass: 2
Flags: W
LayerCount: 2
Fore
SplineSet
205 44 m 0,0,1
 256 44 256 44 281 78 c 1,2,-1
 281 190 l 1,3,4
 195 175 195 175 166 156.5 c 128,-1,5
 137 138 137 138 137 104 c 1,6,7
 139 73 139 73 158 58.5 c 128,-1,8
 177 44 177 44 205 44 c 0,0,1
408 50 m 2,9,-1
 429 50 l 2,10,11
 434 50 434 50 436 51 c 1,12,13
 440 25 440 25 443 19 c 1,14,15
 431 13 431 13 388.5 0.5 c 128,-1,16
 346 -12 346 -12 326 -12 c 128,-1,17
 306 -12 306 -12 298 2.5 c 128,-1,18
 290 17 290 17 286 54 c 1,19,20
 269 30 269 30 235.5 10 c 128,-1,21
 202 -10 202 -10 168 -12 c 1,22,-1
 163 -12 l 2,23,24
 115 -12 115 -12 80.5 15 c 128,-1,25
 46 42 46 42 46 93 c 128,-1,26
 46 144 46 144 93.5 171.5 c 128,-1,27
 141 199 141 199 281 225 c 1,28,-1
 281 285 l 2,29,30
 281 393 281 393 200 393 c 0,31,32
 172 393 172 393 147 379 c 1,33,-1
 147 311 l 2,34,35
 147 306 147 306 120.5 301 c 128,-1,36
 94 296 94 296 85.5 296 c 128,-1,37
 77 296 77 296 69 298 c 1,38,39
 61 306 61 306 61 334 c 128,-1,40
 61 362 61 362 77 380 c 1,41,42
 92 400 92 400 149 421 c 128,-1,43
 206 442 206 442 238 442 c 0,44,45
 364 442 364 442 364 300 c 2,46,-1
 364 100 l 2,47,48
 364 68 364 68 376.5 59 c 128,-1,49
 389 50 389 50 408 50 c 2,9,-1
157 535 m 1,50,-1
 244 716 l 1,51,52
 261 716 261 716 290 706 c 0,53,54
 338 688 338 688 338 681 c 1,55,-1
 180 515 l 1,56,57
 169 518 169 518 163 524.5 c 128,-1,58
 157 531 157 531 157 535 c 1,50,-1
EndSplineSet
EndChar

StartChar: acircumflex
Encoding: 226 226 163
Width: 461
GlyphClass: 2
Flags: W
LayerCount: 2
Fore
SplineSet
205 44 m 0,0,1
 256 44 256 44 281 78 c 1,2,-1
 281 190 l 1,3,4
 195 175 195 175 166 156.5 c 128,-1,5
 137 138 137 138 137 104 c 1,6,7
 139 73 139 73 158 58.5 c 128,-1,8
 177 44 177 44 205 44 c 0,0,1
408 50 m 2,9,-1
 429 50 l 2,10,11
 434 50 434 50 436 51 c 1,12,13
 440 25 440 25 443 19 c 1,14,15
 431 13 431 13 388.5 0.5 c 128,-1,16
 346 -12 346 -12 326 -12 c 128,-1,17
 306 -12 306 -12 298 2.5 c 128,-1,18
 290 17 290 17 286 54 c 1,19,20
 269 30 269 30 235.5 10 c 128,-1,21
 202 -10 202 -10 168 -12 c 1,22,-1
 163 -12 l 2,23,24
 115 -12 115 -12 80.5 15 c 128,-1,25
 46 42 46 42 46 93 c 128,-1,26
 46 144 46 144 93.5 171.5 c 128,-1,27
 141 199 141 199 281 225 c 1,28,-1
 281 285 l 2,29,30
 281 393 281 393 200 393 c 0,31,32
 172 393 172 393 147 379 c 1,33,-1
 147 311 l 2,34,35
 147 306 147 306 120.5 301 c 128,-1,36
 94 296 94 296 85.5 296 c 128,-1,37
 77 296 77 296 69 298 c 1,38,39
 61 306 61 306 61 334 c 128,-1,40
 61 362 61 362 77 380 c 1,41,42
 92 400 92 400 149 421 c 128,-1,43
 206 442 206 442 238 442 c 0,44,45
 364 442 364 442 364 300 c 2,46,-1
 364 100 l 2,47,48
 364 68 364 68 376.5 59 c 128,-1,49
 389 50 389 50 408 50 c 2,9,-1
254 707 m 0,50,51
 256 707 256 707 260 700 c 2,52,-1
 354 526 l 1,53,54
 354 522 354 522 348 515.5 c 128,-1,55
 342 509 342 509 331 506 c 1,56,-1
 221 631 l 1,57,-1
 112 506 l 1,58,59
 101 509 101 509 95 515.5 c 128,-1,60
 89 522 89 522 89 526 c 1,61,-1
 185 705 l 1,62,63
 233 707 233 707 254 707 c 0,50,51
EndSplineSet
EndChar

StartChar: atilde
Encoding: 227 227 164
Width: 461
GlyphClass: 2
Flags: W
LayerCount: 2
Fore
SplineSet
205 44 m 0,0,1
 256 44 256 44 281 78 c 1,2,-1
 281 190 l 1,3,4
 195 175 195 175 166 156.5 c 128,-1,5
 137 138 137 138 137 104 c 1,6,7
 139 73 139 73 158 58.5 c 128,-1,8
 177 44 177 44 205 44 c 0,0,1
408 50 m 2,9,-1
 429 50 l 2,10,11
 434 50 434 50 436 51 c 1,12,13
 440 25 440 25 443 19 c 1,14,15
 431 13 431 13 388.5 0.5 c 128,-1,16
 346 -12 346 -12 326 -12 c 128,-1,17
 306 -12 306 -12 298 2.5 c 128,-1,18
 290 17 290 17 286 54 c 1,19,20
 269 30 269 30 235.5 10 c 128,-1,21
 202 -10 202 -10 168 -12 c 1,22,-1
 163 -12 l 2,23,24
 115 -12 115 -12 80.5 15 c 128,-1,25
 46 42 46 42 46 93 c 128,-1,26
 46 144 46 144 93.5 171.5 c 128,-1,27
 141 199 141 199 281 225 c 1,28,-1
 281 285 l 2,29,30
 281 393 281 393 200 393 c 0,31,32
 172 393 172 393 147 379 c 1,33,-1
 147 311 l 2,34,35
 147 306 147 306 120.5 301 c 128,-1,36
 94 296 94 296 85.5 296 c 128,-1,37
 77 296 77 296 69 298 c 1,38,39
 61 306 61 306 61 334 c 128,-1,40
 61 362 61 362 77 380 c 1,41,42
 92 400 92 400 149 421 c 128,-1,43
 206 442 206 442 238 442 c 0,44,45
 364 442 364 442 364 300 c 2,46,-1
 364 100 l 2,47,48
 364 68 364 68 376.5 59 c 128,-1,49
 389 50 389 50 408 50 c 2,9,-1
131 633 m 2,50,-1
 312 629 l 2,51,52
 346 629 346 629 370 659 c 1,53,54
 377 659 377 659 393 644 c 0,55,56
 394 642 394 642 394 639 c 128,-1,57
 394 636 394 636 392 632 c 0,58,59
 345 554 345 554 314 554 c 2,60,-1
 146 558 l 1,61,62
 96 558 96 558 73 519 c 1,63,64
 73 519 73 519 70 519 c 128,-1,65
 67 519 67 519 52 532 c 0,66,67
 50 535 50 535 50 538 c 128,-1,68
 50 541 50 541 58.5 557.5 c 128,-1,69
 67 574 67 574 90.5 603.5 c 128,-1,70
 114 633 114 633 131 633 c 2,50,-1
EndSplineSet
EndChar

StartChar: adieresis
Encoding: 228 228 165
Width: 461
GlyphClass: 2
Flags: W
LayerCount: 2
Fore
SplineSet
205 44 m 0,0,1
 256 44 256 44 281 78 c 1,2,-1
 281 190 l 1,3,4
 195 175 195 175 166 156.5 c 128,-1,5
 137 138 137 138 137 104 c 1,6,7
 139 73 139 73 158 58.5 c 128,-1,8
 177 44 177 44 205 44 c 0,0,1
408 50 m 2,9,-1
 429 50 l 2,10,11
 434 50 434 50 436 51 c 1,12,13
 440 25 440 25 443 19 c 1,14,15
 431 13 431 13 388.5 0.5 c 128,-1,16
 346 -12 346 -12 326 -12 c 128,-1,17
 306 -12 306 -12 298 2.5 c 128,-1,18
 290 17 290 17 286 54 c 1,19,20
 269 30 269 30 235.5 10 c 128,-1,21
 202 -10 202 -10 168 -12 c 1,22,-1
 163 -12 l 2,23,24
 115 -12 115 -12 80.5 15 c 128,-1,25
 46 42 46 42 46 93 c 128,-1,26
 46 144 46 144 93.5 171.5 c 128,-1,27
 141 199 141 199 281 225 c 1,28,-1
 281 285 l 2,29,30
 281 393 281 393 200 393 c 0,31,32
 172 393 172 393 147 379 c 1,33,-1
 147 311 l 2,34,35
 147 306 147 306 120.5 301 c 128,-1,36
 94 296 94 296 85.5 296 c 128,-1,37
 77 296 77 296 69 298 c 1,38,39
 61 306 61 306 61 334 c 128,-1,40
 61 362 61 362 77 380 c 1,41,42
 92 400 92 400 149 421 c 128,-1,43
 206 442 206 442 238 442 c 0,44,45
 364 442 364 442 364 300 c 2,46,-1
 364 100 l 2,47,48
 364 68 364 68 376.5 59 c 128,-1,49
 389 50 389 50 408 50 c 2,9,-1
89.5 557 m 128,-1,51
 73 573 73 573 73 598 c 128,-1,52
 73 623 73 623 90.5 641 c 128,-1,53
 108 659 108 659 133.5 659 c 128,-1,54
 159 659 159 659 175.5 643.5 c 128,-1,55
 192 628 192 628 192 602.5 c 128,-1,56
 192 577 192 577 175 559 c 128,-1,57
 158 541 158 541 132 541 c 128,-1,50
 106 541 106 541 89.5 557 c 128,-1,51
266.5 557 m 128,-1,59
 250 573 250 573 250 598 c 128,-1,60
 250 623 250 623 267 641 c 128,-1,61
 284 659 284 659 309.5 659 c 128,-1,62
 335 659 335 659 351.5 643.5 c 128,-1,63
 368 628 368 628 368 602.5 c 128,-1,64
 368 577 368 577 350.5 559 c 128,-1,65
 333 541 333 541 308 541 c 128,-1,58
 283 541 283 541 266.5 557 c 128,-1,59
EndSplineSet
EndChar

StartChar: aring
Encoding: 229 229 166
Width: 450
GlyphClass: 2
Flags: W
LayerCount: 2
Fore
SplineSet
205 44 m 0,0,1
 256 44 256 44 281 78 c 1,2,-1
 281 190 l 1,3,4
 195 175 195 175 166 156.5 c 128,-1,5
 137 138 137 138 137 104 c 1,6,7
 139 73 139 73 158 58.5 c 128,-1,8
 177 44 177 44 205 44 c 0,0,1
408 50 m 2,9,-1
 429 50 l 2,10,11
 434 50 434 50 436 51 c 1,12,13
 440 25 440 25 443 19 c 1,14,15
 431 13 431 13 388.5 0.5 c 128,-1,16
 346 -12 346 -12 326 -12 c 128,-1,17
 306 -12 306 -12 298 2.5 c 128,-1,18
 290 17 290 17 286 54 c 1,19,20
 269 30 269 30 235.5 10 c 128,-1,21
 202 -10 202 -10 168 -12 c 1,22,-1
 163 -12 l 2,23,24
 115 -12 115 -12 80.5 15 c 128,-1,25
 46 42 46 42 46 93 c 128,-1,26
 46 144 46 144 93.5 171.5 c 128,-1,27
 141 199 141 199 281 225 c 1,28,-1
 281 285 l 2,29,30
 281 393 281 393 200 393 c 0,31,32
 172 393 172 393 147 379 c 1,33,-1
 147 311 l 2,34,35
 147 306 147 306 120.5 301 c 128,-1,36
 94 296 94 296 85.5 296 c 128,-1,37
 77 296 77 296 69 298 c 1,38,39
 61 306 61 306 61 334 c 128,-1,40
 61 362 61 362 77 380 c 1,41,42
 92 400 92 400 149 421 c 128,-1,43
 206 442 206 442 238 442 c 0,44,45
 364 442 364 442 364 300 c 2,46,-1
 364 100 l 2,47,48
 364 68 364 68 376.5 59 c 128,-1,49
 389 50 389 50 408 50 c 2,9,-1
160.5 537 m 128,-1,51
 134 563 134 563 134 599.5 c 128,-1,52
 134 636 134 636 159.5 664 c 128,-1,53
 185 692 185 692 224 692 c 128,-1,54
 263 692 263 692 289.5 667.5 c 128,-1,55
 316 643 316 643 316 606 c 128,-1,56
 316 569 316 569 288 540 c 128,-1,57
 260 511 260 511 223.5 511 c 128,-1,50
 187 511 187 511 160.5 537 c 128,-1,51
195.5 632 m 128,-1,59
 182 620 182 620 182 603 c 128,-1,60
 182 586 182 586 195.5 574.5 c 128,-1,61
 209 563 209 563 227.5 563 c 128,-1,62
 246 563 246 563 257.5 575.5 c 128,-1,63
 269 588 269 588 269 606 c 0,64,65
 269 644 269 644 228 644 c 0,66,58
 209 644 209 644 195.5 632 c 128,-1,59
EndSplineSet
EndChar

StartChar: ae
Encoding: 230 230 167
Width: 697
GlyphClass: 2
Flags: W
LayerCount: 2
Fore
SplineSet
345 380 m 1,0,1
 406 443 406 443 492 443 c 0,2,3
 547 443 547 443 586 409 c 0,4,5
 640 363 640 363 657 276 c 1,6,7
 660 266 660 266 654 264 c 2,8,-1
 370 213 l 1,9,-1
 370 201 l 1,10,11
 379 50 379 50 522 50 c 0,12,13
 551 50 551 50 581.5 63 c 128,-1,14
 612 76 612 76 630 94 c 0,15,16
 633 97 633 97 635 97 c 128,-1,17
 637 97 637 97 640 94 c 2,18,-1
 662 69 l 1,19,20
 587 -12 587 -12 494 -12 c 0,21,22
 381 -12 381 -12 326 66 c 1,23,24
 254 -12 254 -12 168 -12 c 2,25,-1
 163 -12 l 2,26,27
 115 -12 115 -12 80.5 15 c 128,-1,28
 46 42 46 42 46 93 c 128,-1,29
 46 144 46 144 95 172.5 c 128,-1,30
 144 201 144 201 282 229 c 1,31,-1
 281 285 l 1,32,33
 281 393 281 393 200 393 c 0,34,35
 172 393 172 393 147 379 c 1,36,-1
 147 311 l 2,37,38
 147 306 147 306 120.5 301 c 128,-1,39
 94 296 94 296 82 296 c 0,40,41
 61 296 61 296 61 329 c 128,-1,42
 61 362 61 362 77 380 c 1,43,44
 92 400 92 400 149 421 c 128,-1,45
 206 442 206 442 238 442 c 0,46,47
 313 442 313 442 345 380 c 1,0,1
472 401 m 0,48,49
 417 401 417 401 391 348 c 0,50,51
 372 310 372 310 372 259 c 0,52,53
 372 254 372 254 372 249 c 1,54,-1
 559 290 l 1,55,56
 550 349 550 349 526 375 c 128,-1,57
 502 401 502 401 472 401 c 0,48,49
311 91 m 1,59,60
 288 134 288 134 283 195 c 1,61,62
 199 176 199 176 168 155 c 128,-1,63
 137 134 137 134 137 100 c 1,64,65
 141 43 141 43 211 43 c 0,66,58
 263 43 263 43 311 91 c 1,59,60
EndSplineSet
EndChar

StartChar: ccedilla
Encoding: 231 231 168
Width: 459
GlyphClass: 2
Flags: W
LayerCount: 2
Fore
SplineSet
50 206 m 0,0,1
 50 322 50 322 114.5 382 c 128,-1,2
 179 442 179 442 276 442 c 0,3,4
 318 442 318 442 361.5 430 c 128,-1,5
 405 418 405 418 427 400 c 0,6,7
 428 398 428 398 428 396 c 0,8,9
 428 382 428 382 397 337 c 1,10,11
 393 333 393 333 386.5 333 c 128,-1,12
 380 333 380 333 362.5 349.5 c 128,-1,13
 345 366 345 366 315 383 c 128,-1,14
 285 400 285 400 246 400 c 128,-1,15
 207 400 207 400 174 357.5 c 128,-1,16
 141 315 141 315 141 238 c 128,-1,17
 141 161 141 161 181 105.5 c 128,-1,18
 221 50 221 50 300 50 c 0,19,20
 363 50 363 50 404 91 c 0,21,22
 406 93 406 93 409 93 c 128,-1,23
 412 93 412 93 414 91 c 2,24,-1
 434 68 l 1,25,26
 376 5 376 5 299 -9 c 1,27,-1
 301 -11 l 1,28,-1
 279 -35 l 1,29,30
 322 -46 322 -46 343.5 -71 c 128,-1,31
 365 -96 365 -96 365 -124 c 0,32,33
 365 -211 365 -211 208 -211 c 0,34,35
 204 -211 204 -211 204 -201.5 c 128,-1,36
 204 -192 204 -192 207 -192 c 0,37,38
 307 -182 307 -182 307 -133 c 0,39,40
 307 -111 307 -111 289 -94 c 128,-1,41
 271 -77 271 -77 229 -74 c 0,42,43
 227 -74 227 -74 222 -61 c 1,44,45
 222 -50 222 -50 248 -12 c 1,46,47
 156 -6 156 -6 103 54.5 c 128,-1,48
 50 115 50 115 50 206 c 0,0,1
EndSplineSet
EndChar

StartChar: egrave
Encoding: 232 232 169
Width: 471
GlyphClass: 2
Flags: W
LayerCount: 2
Fore
SplineSet
431 243 m 2,0,-1
 141 243 l 1,1,-1
 141 230 l 2,2,3
 141 157 141 157 182 103.5 c 128,-1,4
 223 50 223 50 291 50 c 128,-1,5
 359 50 359 50 403 94 c 0,6,7
 406 97 406 97 408 97 c 128,-1,8
 410 97 410 97 413 94 c 2,9,-1
 435 69 l 1,10,11
 360 -12 360 -12 261.5 -12 c 128,-1,12
 163 -12 163 -12 106.5 50 c 128,-1,13
 50 112 50 112 50 215.5 c 128,-1,14
 50 319 50 319 114 380.5 c 128,-1,15
 178 442 178 442 260 442 c 128,-1,16
 342 442 342 442 389 392.5 c 128,-1,17
 436 343 436 343 436 254 c 0,18,19
 436 243 436 243 431 243 c 2,0,-1
336 290 m 1,20,21
 336 400 336 400 251 400 c 0,22,23
 206 400 206 400 178 368.5 c 128,-1,24
 150 337 150 337 144 290 c 1,25,-1
 336 290 l 1,20,21
228 716 m 1,26,-1
 315 535 l 1,27,28
 315 531 315 531 309 524.5 c 128,-1,29
 303 518 303 518 292 515 c 1,30,-1
 134 681 l 1,31,32
 134 688 134 688 172.5 702 c 128,-1,33
 211 716 211 716 228 716 c 1,26,-1
EndSplineSet
EndChar

StartChar: eacute
Encoding: 233 233 170
Width: 471
GlyphClass: 2
Flags: W
LayerCount: 2
Fore
SplineSet
431 243 m 2,0,-1
 141 243 l 1,1,-1
 141 230 l 2,2,3
 141 157 141 157 182 103.5 c 128,-1,4
 223 50 223 50 291 50 c 128,-1,5
 359 50 359 50 403 94 c 0,6,7
 406 97 406 97 408 97 c 128,-1,8
 410 97 410 97 413 94 c 2,9,-1
 435 69 l 1,10,11
 360 -12 360 -12 261.5 -12 c 128,-1,12
 163 -12 163 -12 106.5 50 c 128,-1,13
 50 112 50 112 50 215.5 c 128,-1,14
 50 319 50 319 114 380.5 c 128,-1,15
 178 442 178 442 260 442 c 128,-1,16
 342 442 342 442 389 392.5 c 128,-1,17
 436 343 436 343 436 254 c 0,18,19
 436 243 436 243 431 243 c 2,0,-1
336 290 m 1,20,21
 336 400 336 400 251 400 c 0,22,23
 206 400 206 400 178 368.5 c 128,-1,24
 150 337 150 337 144 290 c 1,25,-1
 336 290 l 1,20,21
200 535 m 1,26,-1
 287 716 l 1,27,28
 304 716 304 716 332 706 c 0,29,30
 381 688 381 688 381 681 c 1,31,-1
 223 515 l 1,32,33
 212 518 212 518 206 524.5 c 128,-1,34
 200 531 200 531 200 535 c 1,26,-1
EndSplineSet
EndChar

StartChar: ecircumflex
Encoding: 234 234 171
Width: 471
GlyphClass: 2
Flags: W
LayerCount: 2
Fore
SplineSet
431 243 m 2,0,-1
 141 243 l 1,1,-1
 141 230 l 2,2,3
 141 157 141 157 182 103.5 c 128,-1,4
 223 50 223 50 291 50 c 128,-1,5
 359 50 359 50 403 94 c 0,6,7
 406 97 406 97 408 97 c 128,-1,8
 410 97 410 97 413 94 c 2,9,-1
 435 69 l 1,10,11
 360 -12 360 -12 261.5 -12 c 128,-1,12
 163 -12 163 -12 106.5 50 c 128,-1,13
 50 112 50 112 50 215.5 c 128,-1,14
 50 319 50 319 114 380.5 c 128,-1,15
 178 442 178 442 260 442 c 128,-1,16
 342 442 342 442 389 392.5 c 128,-1,17
 436 343 436 343 436 254 c 0,18,19
 436 243 436 243 431 243 c 2,0,-1
336 290 m 1,20,21
 336 400 336 400 251 400 c 0,22,23
 206 400 206 400 178 368.5 c 128,-1,24
 150 337 150 337 144 290 c 1,25,-1
 336 290 l 1,20,21
286 707 m 0,26,27
 288 707 288 707 292 700 c 2,28,-1
 386 526 l 1,29,30
 386 522 386 522 380 515.5 c 128,-1,31
 374 509 374 509 363 506 c 1,32,-1
 253 631 l 1,33,-1
 144 506 l 1,34,35
 133 509 133 509 127 515.5 c 128,-1,36
 121 522 121 522 121 526 c 1,37,-1
 217 705 l 1,38,39
 265 707 265 707 286 707 c 0,26,27
EndSplineSet
EndChar

StartChar: edieresis
Encoding: 235 235 172
Width: 471
GlyphClass: 2
Flags: W
LayerCount: 2
Fore
SplineSet
431 243 m 2,0,-1
 141 243 l 1,1,-1
 141 230 l 2,2,3
 141 157 141 157 182 103.5 c 128,-1,4
 223 50 223 50 291 50 c 128,-1,5
 359 50 359 50 403 94 c 0,6,7
 406 97 406 97 408 97 c 128,-1,8
 410 97 410 97 413 94 c 2,9,-1
 435 69 l 1,10,11
 360 -12 360 -12 261.5 -12 c 128,-1,12
 163 -12 163 -12 106.5 50 c 128,-1,13
 50 112 50 112 50 215.5 c 128,-1,14
 50 319 50 319 114 380.5 c 128,-1,15
 178 442 178 442 260 442 c 128,-1,16
 342 442 342 442 389 392.5 c 128,-1,17
 436 343 436 343 436 254 c 0,18,19
 436 243 436 243 431 243 c 2,0,-1
336 290 m 1,20,21
 336 400 336 400 251 400 c 0,22,23
 206 400 206 400 178 368.5 c 128,-1,24
 150 337 150 337 144 290 c 1,25,-1
 336 290 l 1,20,21
122.5 558 m 128,-1,27
 106 574 106 574 106 599 c 128,-1,28
 106 624 106 624 123.5 642 c 128,-1,29
 141 660 141 660 166.5 660 c 128,-1,30
 192 660 192 660 208.5 644.5 c 128,-1,31
 225 629 225 629 225 603.5 c 128,-1,32
 225 578 225 578 208 560 c 128,-1,33
 191 542 191 542 165 542 c 128,-1,26
 139 542 139 542 122.5 558 c 128,-1,27
299.5 558 m 128,-1,35
 283 574 283 574 283 599 c 128,-1,36
 283 624 283 624 300 642 c 128,-1,37
 317 660 317 660 342.5 660 c 128,-1,38
 368 660 368 660 384.5 644.5 c 128,-1,39
 401 629 401 629 401 603.5 c 128,-1,40
 401 578 401 578 383.5 560 c 128,-1,41
 366 542 366 542 341 542 c 128,-1,34
 316 542 316 542 299.5 558 c 128,-1,35
EndSplineSet
EndChar

StartChar: igrave
Encoding: 236 236 173
Width: 300
GlyphClass: 2
Flags: W
LayerCount: 2
Fore
SplineSet
162 0 m 1,0,-1
 54 -3 l 1,1,-1
 46 37 l 1,2,3
 94 41 94 41 103.5 45.5 c 128,-1,4
 113 50 113 50 113 71 c 2,5,-1
 113 325 l 2,6,7
 113 375 113 375 63 375 c 0,8,9
 51 375 51 375 44 374 c 1,10,-1
 35 403 l 1,11,12
 100 419 100 419 118 426 c 2,13,-1
 179 450 l 1,14,15
 192 450 192 450 195 447.5 c 128,-1,16
 198 445 198 445 198 434 c 2,17,-1
 198 71 l 2,18,19
 198 53 198 53 207 46.5 c 128,-1,20
 216 40 216 40 251 37 c 1,21,-1
 260 -3 l 1,22,-1
 162 0 l 1,0,-1
112 716 m 1,23,-1
 199 535 l 1,24,25
 199 531 199 531 193 524.5 c 128,-1,26
 187 518 187 518 176 515 c 1,27,-1
 18 681 l 1,28,29
 18 688 18 688 56.5 702 c 128,-1,30
 95 716 95 716 112 716 c 1,23,-1
EndSplineSet
EndChar

StartChar: iacute
Encoding: 237 237 174
Width: 300
GlyphClass: 2
Flags: W
LayerCount: 2
Fore
SplineSet
162 0 m 1,0,-1
 54 -3 l 1,1,-1
 46 37 l 1,2,3
 94 41 94 41 103.5 45.5 c 128,-1,4
 113 50 113 50 113 71 c 2,5,-1
 113 325 l 2,6,7
 113 375 113 375 63 375 c 0,8,9
 51 375 51 375 44 374 c 1,10,-1
 35 403 l 1,11,12
 100 419 100 419 118 426 c 2,13,-1
 179 450 l 1,14,15
 192 450 192 450 195 447.5 c 128,-1,16
 198 445 198 445 198 434 c 2,17,-1
 198 71 l 2,18,19
 198 53 198 53 207 46.5 c 128,-1,20
 216 40 216 40 251 37 c 1,21,-1
 260 -3 l 1,22,-1
 162 0 l 1,0,-1
98 535 m 1,23,-1
 185 716 l 1,24,25
 202 716 202 716 230 706 c 0,26,27
 279 688 279 688 279 681 c 1,28,-1
 121 515 l 1,29,30
 110 518 110 518 104 524.5 c 128,-1,31
 98 531 98 531 98 535 c 1,23,-1
EndSplineSet
EndChar

StartChar: icircumflex
Encoding: 238 238 175
Width: 300
GlyphClass: 2
Flags: W
LayerCount: 2
Fore
SplineSet
162 0 m 1,0,-1
 54 -3 l 1,1,-1
 46 37 l 1,2,3
 94 41 94 41 103.5 45.5 c 128,-1,4
 113 50 113 50 113 71 c 2,5,-1
 113 325 l 2,6,7
 113 375 113 375 63 375 c 0,8,9
 51 375 51 375 44 374 c 1,10,-1
 35 403 l 1,11,12
 100 419 100 419 118 426 c 2,13,-1
 179 450 l 1,14,15
 192 450 192 450 195 447.5 c 128,-1,16
 198 445 198 445 198 434 c 2,17,-1
 198 71 l 2,18,19
 198 53 198 53 207 46.5 c 128,-1,20
 216 40 216 40 251 37 c 1,21,-1
 260 -3 l 1,22,-1
 162 0 l 1,0,-1
172 707 m 0,23,24
 174 707 174 707 178 700 c 2,25,-1
 272 526 l 1,26,27
 272 522 272 522 266 515.5 c 128,-1,28
 260 509 260 509 249 506 c 1,29,-1
 139 631 l 1,30,-1
 30 506 l 1,31,32
 19 509 19 509 13 515.5 c 128,-1,33
 7 522 7 522 7 526 c 1,34,-1
 103 705 l 1,35,36
 151 707 151 707 172 707 c 0,23,24
EndSplineSet
EndChar

StartChar: idieresis
Encoding: 239 239 176
Width: 300
GlyphClass: 2
Flags: W
LayerCount: 2
Fore
SplineSet
162 0 m 1,0,-1
 54 -3 l 1,1,-1
 46 37 l 1,2,3
 94 41 94 41 103.5 45.5 c 128,-1,4
 113 50 113 50 113 71 c 2,5,-1
 113 325 l 2,6,7
 113 375 113 375 63 375 c 0,8,9
 51 375 51 375 44 374 c 1,10,-1
 35 403 l 1,11,12
 100 419 100 419 118 426 c 2,13,-1
 179 450 l 1,14,15
 192 450 192 450 195 447.5 c 128,-1,16
 198 445 198 445 198 434 c 2,17,-1
 198 71 l 2,18,19
 198 53 198 53 207 46.5 c 128,-1,20
 216 40 216 40 251 37 c 1,21,-1
 260 -3 l 1,22,-1
 162 0 l 1,0,-1
14.5 559 m 128,-1,24
 -2 575 -2 575 -2 600 c 128,-1,25
 -2 625 -2 625 15.5 643 c 128,-1,26
 33 661 33 661 58.5 661 c 128,-1,27
 84 661 84 661 100.5 645.5 c 128,-1,28
 117 630 117 630 117 604.5 c 128,-1,29
 117 579 117 579 100 561 c 128,-1,30
 83 543 83 543 57 543 c 128,-1,23
 31 543 31 543 14.5 559 c 128,-1,24
191.5 559 m 128,-1,32
 175 575 175 575 175 600 c 128,-1,33
 175 625 175 625 192 643 c 128,-1,34
 209 661 209 661 234.5 661 c 128,-1,35
 260 661 260 661 276.5 645.5 c 128,-1,36
 293 630 293 630 293 604.5 c 128,-1,37
 293 579 293 579 275.5 561 c 128,-1,38
 258 543 258 543 233 543 c 128,-1,31
 208 543 208 543 191.5 559 c 128,-1,32
EndSplineSet
EndChar

StartChar: eth
Encoding: 240 240 177
Width: 518
GlyphClass: 2
Flags: W
LayerCount: 2
Fore
SplineSet
480 224 m 0,0,1
 480 121 480 121 419.5 54.5 c 128,-1,2
 359 -12 359 -12 261.5 -12 c 128,-1,3
 164 -12 164 -12 101 48.5 c 128,-1,4
 38 109 38 109 38 207.5 c 128,-1,5
 38 306 38 306 102.5 374 c 128,-1,6
 167 442 167 442 262 442 c 0,7,8
 315 442 315 442 356 426 c 1,9,10
 334 494 334 494 295 557 c 1,11,12
 203 499 203 499 189 488 c 1,13,14
 183 488 183 488 172 499.5 c 128,-1,15
 161 511 161 511 158 522 c 1,16,17
 257 583 257 583 271 592 c 1,18,19
 226 653 226 653 175 697 c 0,20,21
 170 702 170 702 177.5 711 c 128,-1,22
 185 720 185 720 192 723 c 1,23,24
 261 680 261 680 316 621 c 1,25,-1
 424 693 l 1,26,27
 433 691 433 691 441.5 681.5 c 128,-1,28
 450 672 450 672 453 662 c 1,29,30
 449 660 449 660 408.5 631.5 c 128,-1,31
 368 603 368 603 345 589 c 1,32,33
 480 402 480 402 480 224 c 0,0,1
274 33 m 0,34,35
 329 33 329 33 362 84.5 c 128,-1,36
 395 136 395 136 395 216.5 c 128,-1,37
 395 297 395 297 356 348.5 c 128,-1,38
 317 400 317 400 253 400 c 128,-1,39
 189 400 189 400 159 353.5 c 128,-1,40
 129 307 129 307 129 228.5 c 128,-1,41
 129 150 129 150 167.5 91.5 c 128,-1,42
 206 33 206 33 274 33 c 0,34,35
EndSplineSet
EndChar

StartChar: ntilde
Encoding: 241 241 178
Width: 577
GlyphClass: 2
Flags: W
LayerCount: 2
Fore
SplineSet
53 369 m 1,0,-1
 38 368 l 1,1,-1
 29 397 l 1,2,3
 99 414 99 414 132 431 c 128,-1,4
 165 448 165 448 169 450 c 1,5,6
 182 450 182 450 184 448 c 0,7,8
 188 444 188 444 190 384 c 1,9,10
 238 413 238 413 274.5 427.5 c 128,-1,11
 311 442 311 442 354 442 c 0,12,13
 493 442 493 442 493 293 c 2,14,-1
 493 71 l 2,15,16
 493 53 493 53 502 46.5 c 128,-1,17
 511 40 511 40 546 37 c 1,18,-1
 555 -3 l 1,19,-1
 457 0 l 1,20,-1
 349 -3 l 1,21,-1
 341 37 l 1,22,23
 389 41 389 41 398.5 45.5 c 128,-1,24
 408 50 408 50 408 71 c 2,25,-1
 408 259 l 2,26,27
 408 323 408 323 383 348 c 128,-1,28
 358 373 358 373 304 373 c 128,-1,29
 250 373 250 373 192 345 c 1,30,-1
 192 71 l 2,31,32
 192 53 192 53 201 46.5 c 128,-1,33
 210 40 210 40 245 37 c 1,34,-1
 254 -3 l 1,35,-1
 156 0 l 1,36,-1
 48 -3 l 1,37,-1
 40 37 l 1,38,39
 88 41 88 41 97.5 45.5 c 128,-1,40
 107 50 107 50 107 71 c 2,41,-1
 107 305 l 2,42,43
 107 341 107 341 94 355 c 128,-1,44
 81 369 81 369 53 369 c 1,0,-1
219 633 m 2,45,-1
 400 629 l 2,46,47
 434 629 434 629 458 659 c 1,48,49
 465 659 465 659 481 644 c 0,50,51
 482 642 482 642 482 639 c 128,-1,52
 482 636 482 636 480 632 c 0,53,54
 433 554 433 554 402 554 c 2,55,-1
 234 558 l 1,56,57
 184 558 184 558 161 519 c 1,58,59
 161 519 161 519 158 519 c 128,-1,60
 155 519 155 519 140 532 c 0,61,62
 138 535 138 535 138 538 c 128,-1,63
 138 541 138 541 146.5 557.5 c 128,-1,64
 155 574 155 574 178.5 603.5 c 128,-1,65
 202 633 202 633 219 633 c 2,45,-1
EndSplineSet
EndChar

StartChar: ograve
Encoding: 242 242 179
Width: 553
GlyphClass: 2
Flags: W
LayerCount: 2
Fore
SplineSet
179.5 91.5 m 128,-1,1
 218 33 218 33 283.5 33 c 128,-1,2
 349 33 349 33 380.5 78 c 128,-1,3
 412 123 412 123 412 204.5 c 128,-1,4
 412 286 412 286 370.5 343 c 128,-1,5
 329 400 329 400 265 400 c 128,-1,6
 201 400 201 400 171 353.5 c 128,-1,7
 141 307 141 307 141 228.5 c 128,-1,0
 141 150 141 150 179.5 91.5 c 128,-1,1
113 48.5 m 128,-1,9
 50 109 50 109 50 207.5 c 128,-1,10
 50 306 50 306 114.5 374 c 128,-1,11
 179 442 179 442 277.5 442 c 128,-1,12
 376 442 376 442 439.5 380.5 c 128,-1,13
 503 319 503 319 503 220.5 c 128,-1,14
 503 122 503 122 437.5 55 c 128,-1,15
 372 -12 372 -12 274 -12 c 128,-1,8
 176 -12 176 -12 113 48.5 c 128,-1,9
235 716 m 1,16,-1
 322 535 l 1,17,18
 322 531 322 531 316 524.5 c 128,-1,19
 310 518 310 518 299 515 c 1,20,-1
 141 681 l 1,21,22
 141 688 141 688 179.5 702 c 128,-1,23
 218 716 218 716 235 716 c 1,16,-1
EndSplineSet
EndChar

StartChar: oacute
Encoding: 243 243 180
Width: 553
GlyphClass: 2
Flags: W
LayerCount: 2
Fore
SplineSet
179.5 91.5 m 128,-1,1
 218 33 218 33 283.5 33 c 128,-1,2
 349 33 349 33 380.5 78 c 128,-1,3
 412 123 412 123 412 204.5 c 128,-1,4
 412 286 412 286 370.5 343 c 128,-1,5
 329 400 329 400 265 400 c 128,-1,6
 201 400 201 400 171 353.5 c 128,-1,7
 141 307 141 307 141 228.5 c 128,-1,0
 141 150 141 150 179.5 91.5 c 128,-1,1
113 48.5 m 128,-1,9
 50 109 50 109 50 207.5 c 128,-1,10
 50 306 50 306 114.5 374 c 128,-1,11
 179 442 179 442 277.5 442 c 128,-1,12
 376 442 376 442 439.5 380.5 c 128,-1,13
 503 319 503 319 503 220.5 c 128,-1,14
 503 122 503 122 437.5 55 c 128,-1,15
 372 -12 372 -12 274 -12 c 128,-1,8
 176 -12 176 -12 113 48.5 c 128,-1,9
218 535 m 1,16,-1
 305 716 l 1,17,18
 322 716 322 716 350 706 c 0,19,20
 399 688 399 688 399 681 c 1,21,-1
 241 515 l 1,22,23
 230 518 230 518 224 524.5 c 128,-1,24
 218 531 218 531 218 535 c 1,16,-1
EndSplineSet
EndChar

StartChar: ocircumflex
Encoding: 244 244 181
Width: 553
GlyphClass: 2
Flags: W
LayerCount: 2
Fore
SplineSet
179.5 91.5 m 128,-1,1
 218 33 218 33 283.5 33 c 128,-1,2
 349 33 349 33 380.5 78 c 128,-1,3
 412 123 412 123 412 204.5 c 128,-1,4
 412 286 412 286 370.5 343 c 128,-1,5
 329 400 329 400 265 400 c 128,-1,6
 201 400 201 400 171 353.5 c 128,-1,7
 141 307 141 307 141 228.5 c 128,-1,0
 141 150 141 150 179.5 91.5 c 128,-1,1
113 48.5 m 128,-1,9
 50 109 50 109 50 207.5 c 128,-1,10
 50 306 50 306 114.5 374 c 128,-1,11
 179 442 179 442 277.5 442 c 128,-1,12
 376 442 376 442 439.5 380.5 c 128,-1,13
 503 319 503 319 503 220.5 c 128,-1,14
 503 122 503 122 437.5 55 c 128,-1,15
 372 -12 372 -12 274 -12 c 128,-1,8
 176 -12 176 -12 113 48.5 c 128,-1,9
312 707 m 0,16,17
 314 707 314 707 318 700 c 2,18,-1
 412 526 l 1,19,20
 412 522 412 522 406 515.5 c 128,-1,21
 400 509 400 509 389 506 c 1,22,-1
 279 631 l 1,23,-1
 170 506 l 1,24,25
 159 509 159 509 153 515.5 c 128,-1,26
 147 522 147 522 147 526 c 1,27,-1
 243 705 l 1,28,29
 291 707 291 707 312 707 c 0,16,17
EndSplineSet
EndChar

StartChar: otilde
Encoding: 245 245 182
Width: 553
GlyphClass: 2
Flags: W
LayerCount: 2
Fore
SplineSet
179.5 91.5 m 128,-1,1
 218 33 218 33 283.5 33 c 128,-1,2
 349 33 349 33 380.5 78 c 128,-1,3
 412 123 412 123 412 204.5 c 128,-1,4
 412 286 412 286 370.5 343 c 128,-1,5
 329 400 329 400 265 400 c 128,-1,6
 201 400 201 400 171 353.5 c 128,-1,7
 141 307 141 307 141 228.5 c 128,-1,0
 141 150 141 150 179.5 91.5 c 128,-1,1
113 48.5 m 128,-1,9
 50 109 50 109 50 207.5 c 128,-1,10
 50 306 50 306 114.5 374 c 128,-1,11
 179 442 179 442 277.5 442 c 128,-1,12
 376 442 376 442 439.5 380.5 c 128,-1,13
 503 319 503 319 503 220.5 c 128,-1,14
 503 122 503 122 437.5 55 c 128,-1,15
 372 -12 372 -12 274 -12 c 128,-1,8
 176 -12 176 -12 113 48.5 c 128,-1,9
188 633 m 2,16,-1
 369 629 l 2,17,18
 403 629 403 629 427 659 c 1,19,20
 434 659 434 659 450 644 c 0,21,22
 451 642 451 642 451 639 c 128,-1,23
 451 636 451 636 449 632 c 0,24,25
 402 554 402 554 371 554 c 2,26,27
 371 554 371 554 203 558 c 1,28,29
 153 558 153 558 130 519 c 1,30,31
 130 519 130 519 127 519 c 128,-1,32
 124 519 124 519 109 532 c 0,33,34
 107 535 107 535 107 538 c 128,-1,35
 107 541 107 541 115.5 557.5 c 128,-1,36
 124 574 124 574 147.5 603.5 c 128,-1,37
 171 633 171 633 188 633 c 2,16,-1
EndSplineSet
EndChar

StartChar: odieresis
Encoding: 246 246 183
Width: 553
GlyphClass: 2
Flags: W
LayerCount: 2
Fore
SplineSet
179.5 91.5 m 128,-1,1
 218 33 218 33 283.5 33 c 128,-1,2
 349 33 349 33 380.5 78 c 128,-1,3
 412 123 412 123 412 204.5 c 128,-1,4
 412 286 412 286 370.5 343 c 128,-1,5
 329 400 329 400 265 400 c 128,-1,6
 201 400 201 400 171 353.5 c 128,-1,7
 141 307 141 307 141 228.5 c 128,-1,0
 141 150 141 150 179.5 91.5 c 128,-1,1
113 48.5 m 128,-1,9
 50 109 50 109 50 207.5 c 128,-1,10
 50 306 50 306 114.5 374 c 128,-1,11
 179 442 179 442 277.5 442 c 128,-1,12
 376 442 376 442 439.5 380.5 c 128,-1,13
 503 319 503 319 503 220.5 c 128,-1,14
 503 122 503 122 437.5 55 c 128,-1,15
 372 -12 372 -12 274 -12 c 128,-1,8
 176 -12 176 -12 113 48.5 c 128,-1,9
149.5 557 m 128,-1,17
 133 573 133 573 133 598 c 128,-1,18
 133 623 133 623 150.5 641 c 128,-1,19
 168 659 168 659 193.5 659 c 128,-1,20
 219 659 219 659 235.5 643.5 c 128,-1,21
 252 628 252 628 252 602.5 c 128,-1,22
 252 577 252 577 235 559 c 128,-1,23
 218 541 218 541 192 541 c 128,-1,16
 166 541 166 541 149.5 557 c 128,-1,17
326.5 557 m 128,-1,25
 310 573 310 573 310 598 c 128,-1,26
 310 623 310 623 327 641 c 128,-1,27
 344 659 344 659 369.5 659 c 128,-1,28
 395 659 395 659 411.5 643.5 c 128,-1,29
 428 628 428 628 428 602.5 c 128,-1,30
 428 577 428 577 410.5 559 c 128,-1,31
 393 541 393 541 368 541 c 128,-1,24
 343 541 343 541 326.5 557 c 128,-1,25
EndSplineSet
EndChar

StartChar: divide
Encoding: 247 247 184
Width: 568
GlyphClass: 2
Flags: W
LayerCount: 2
Fore
SplineSet
280 293 m 1,0,-1
 501 295 l 1,1,2
 518 278 518 278 518 241 c 1,3,-1
 280 243 l 1,4,5
 280 243 280 243 49 241 c 1,6,7
 37 251 37 251 37 269 c 128,-1,8
 37 287 37 287 39 295 c 1,9,-1
 280 293 l 1,0,-1
236.5 371 m 128,-1,11
 220 387 220 387 220 412 c 128,-1,12
 220 437 220 437 237.5 455 c 128,-1,13
 255 473 255 473 280.5 473 c 128,-1,14
 306 473 306 473 322.5 457.5 c 128,-1,15
 339 442 339 442 339 416.5 c 128,-1,16
 339 391 339 391 322 373 c 128,-1,17
 305 355 305 355 279 355 c 128,-1,10
 253 355 253 355 236.5 371 c 128,-1,11
236.5 73 m 128,-1,19
 220 89 220 89 220 114 c 128,-1,20
 220 139 220 139 237.5 157 c 128,-1,21
 255 175 255 175 280.5 175 c 128,-1,22
 306 175 306 175 322.5 159.5 c 128,-1,23
 339 144 339 144 339 118.5 c 128,-1,24
 339 93 339 93 322 75 c 128,-1,25
 305 57 305 57 279 57 c 128,-1,18
 253 57 253 57 236.5 73 c 128,-1,19
EndSplineSet
EndChar

StartChar: oslash
Encoding: 248 248 185
Width: 529
GlyphClass: 2
Flags: W
LayerCount: 2
Fore
SplineSet
412 394 m 1,0,1
 491 331 491 331 491 226.5 c 128,-1,2
 491 122 491 122 425.5 55 c 128,-1,3
 360 -12 360 -12 266 -12 c 0,4,5
 201 -12 201 -12 149 15 c 1,6,-1
 113 -37 l 1,7,8
 109 -40 109 -40 104 -40 c 0,9,10
 86 -40 86 -40 71 -26 c 1,11,-1
 115 37 l 1,12,13
 38 98 38 98 38 202 c 128,-1,14
 38 306 38 306 102.5 374 c 128,-1,15
 167 442 167 442 262 442 c 0,16,17
 323 442 323 442 379 415 c 1,18,-1
 419 473 l 1,19,20
 443 473 443 473 455 456 c 1,21,-1
 412 394 l 1,0,1
129 232 m 128,-1,23
 129 157 129 157 161 102 c 1,24,-1
 341 362 l 1,25,26
 303 400 303 400 254 400 c 0,27,28
 189 400 189 400 159 353.5 c 128,-1,22
 129 307 129 307 129 232 c 128,-1,23
186 69 m 1,29,30
 222 33 222 33 279.5 33 c 128,-1,31
 337 33 337 33 368.5 78 c 128,-1,32
 400 123 400 123 400 197 c 128,-1,33
 400 271 400 271 367 329 c 1,34,-1
 186 69 l 1,29,30
EndSplineSet
EndChar

StartChar: ugrave
Encoding: 249 249 186
Width: 593
GlyphClass: 2
Flags: W
LayerCount: 2
Fore
SplineSet
238 -12 m 0,0,1
 95 -12 95 -12 95 139 c 2,2,-1
 95 361 l 2,3,4
 95 378 95 378 85 384.5 c 128,-1,5
 75 391 75 391 40 395 c 1,6,-1
 33 433 l 1,7,8
 60 430 60 430 106.5 430 c 128,-1,9
 153 430 153 430 180 433 c 1,10,-1
 180 173 l 2,11,12
 180 57 180 57 286 57 c 0,13,14
 314 57 314 57 343 68.5 c 128,-1,15
 372 80 372 80 389 97 c 1,16,-1
 389 361 l 2,17,18
 389 379 389 379 379.5 385 c 128,-1,19
 370 391 370 391 336 395 c 1,20,-1
 327 433 l 1,21,22
 352 430 352 430 400.5 430 c 128,-1,23
 449 430 449 430 474 433 c 1,24,-1
 474 112 l 2,25,26
 474 79 474 79 484.5 64 c 128,-1,27
 495 49 495 49 519 49 c 2,28,-1
 555 49 l 1,29,-1
 562 17 l 1,30,31
 550 15 550 15 518.5 10.5 c 128,-1,32
 487 6 487 6 475 4 c 128,-1,33
 463 2 463 2 441.5 -4.5 c 128,-1,34
 420 -11 420 -11 409 -13 c 1,35,36
 396 -13 396 -13 396 -6 c 2,37,-1
 393 56 l 1,38,39
 377 40 377 40 371 35.5 c 128,-1,40
 365 31 365 31 354.5 23 c 128,-1,41
 344 15 344 15 332.5 10 c 128,-1,42
 321 5 321 5 306 0 c 0,43,44
 276 -12 276 -12 238 -12 c 0,0,1
231 716 m 1,45,-1
 318 535 l 1,46,47
 318 531 318 531 312 524.5 c 128,-1,48
 306 518 306 518 295 515 c 1,49,-1
 137 681 l 1,50,51
 137 688 137 688 175.5 702 c 128,-1,52
 214 716 214 716 231 716 c 1,45,-1
EndSplineSet
EndChar

StartChar: uacute
Encoding: 250 250 187
Width: 593
GlyphClass: 2
Flags: W
LayerCount: 2
Fore
SplineSet
238 -12 m 0,0,1
 95 -12 95 -12 95 139 c 2,2,-1
 95 361 l 2,3,4
 95 378 95 378 85 384.5 c 128,-1,5
 75 391 75 391 40 395 c 1,6,-1
 33 433 l 1,7,8
 60 430 60 430 106.5 430 c 128,-1,9
 153 430 153 430 180 433 c 1,10,-1
 180 173 l 2,11,12
 180 57 180 57 286 57 c 0,13,14
 314 57 314 57 343 68.5 c 128,-1,15
 372 80 372 80 389 97 c 1,16,-1
 389 361 l 2,17,18
 389 379 389 379 379.5 385 c 128,-1,19
 370 391 370 391 336 395 c 1,20,-1
 327 433 l 1,21,22
 352 430 352 430 400.5 430 c 128,-1,23
 449 430 449 430 474 433 c 1,24,-1
 474 112 l 2,25,26
 474 79 474 79 484.5 64 c 128,-1,27
 495 49 495 49 519 49 c 2,28,-1
 555 49 l 1,29,-1
 562 17 l 1,30,31
 550 15 550 15 518.5 10.5 c 128,-1,32
 487 6 487 6 475 4 c 128,-1,33
 463 2 463 2 441.5 -4.5 c 128,-1,34
 420 -11 420 -11 409 -13 c 1,35,36
 396 -13 396 -13 396 -6 c 2,37,-1
 393 56 l 1,38,39
 377 40 377 40 371 35.5 c 128,-1,40
 365 31 365 31 354.5 23 c 128,-1,41
 344 15 344 15 332.5 10 c 128,-1,42
 321 5 321 5 306 0 c 0,43,44
 276 -12 276 -12 238 -12 c 0,0,1
232 535 m 1,45,-1
 319 716 l 1,46,47
 336 716 336 716 364 706 c 0,48,49
 413 688 413 688 413 681 c 1,50,-1
 255 515 l 1,51,52
 244 518 244 518 238 524.5 c 128,-1,53
 232 531 232 531 232 535 c 1,45,-1
EndSplineSet
EndChar

StartChar: ucircumflex
Encoding: 251 251 188
Width: 593
GlyphClass: 2
Flags: W
LayerCount: 2
Fore
SplineSet
238 -12 m 0,0,1
 95 -12 95 -12 95 139 c 2,2,-1
 95 361 l 2,3,4
 95 378 95 378 85 384.5 c 128,-1,5
 75 391 75 391 40 395 c 1,6,-1
 33 433 l 1,7,8
 60 430 60 430 106.5 430 c 128,-1,9
 153 430 153 430 180 433 c 1,10,-1
 180 173 l 2,11,12
 180 57 180 57 286 57 c 0,13,14
 314 57 314 57 343 68.5 c 128,-1,15
 372 80 372 80 389 97 c 1,16,-1
 389 361 l 2,17,18
 389 379 389 379 379.5 385 c 128,-1,19
 370 391 370 391 336 395 c 1,20,-1
 327 433 l 1,21,22
 352 430 352 430 400.5 430 c 128,-1,23
 449 430 449 430 474 433 c 1,24,-1
 474 112 l 2,25,26
 474 79 474 79 484.5 64 c 128,-1,27
 495 49 495 49 519 49 c 2,28,-1
 555 49 l 1,29,-1
 562 17 l 1,30,31
 550 15 550 15 518.5 10.5 c 128,-1,32
 487 6 487 6 475 4 c 128,-1,33
 463 2 463 2 441.5 -4.5 c 128,-1,34
 420 -11 420 -11 409 -13 c 1,35,36
 396 -13 396 -13 396 -6 c 2,37,-1
 393 56 l 1,38,39
 377 40 377 40 371 35.5 c 128,-1,40
 365 31 365 31 354.5 23 c 128,-1,41
 344 15 344 15 332.5 10 c 128,-1,42
 321 5 321 5 306 0 c 0,43,44
 276 -12 276 -12 238 -12 c 0,0,1
312 707 m 0,45,46
 314 707 314 707 318 700 c 2,47,-1
 412 526 l 1,48,49
 412 522 412 522 406 515.5 c 128,-1,50
 400 509 400 509 389 506 c 1,51,-1
 279 631 l 1,52,-1
 170 506 l 1,53,54
 159 509 159 509 153 515.5 c 128,-1,55
 147 522 147 522 147 526 c 1,56,-1
 243 705 l 1,57,58
 291 707 291 707 312 707 c 0,45,46
EndSplineSet
EndChar

StartChar: udieresis
Encoding: 252 252 189
Width: 593
GlyphClass: 2
Flags: W
LayerCount: 2
Fore
SplineSet
238 -12 m 0,0,1
 95 -12 95 -12 95 139 c 2,2,-1
 95 361 l 2,3,4
 95 378 95 378 85 384.5 c 128,-1,5
 75 391 75 391 40 395 c 1,6,-1
 33 433 l 1,7,8
 60 430 60 430 106.5 430 c 128,-1,9
 153 430 153 430 180 433 c 1,10,-1
 180 173 l 2,11,12
 180 57 180 57 286 57 c 0,13,14
 314 57 314 57 343 68.5 c 128,-1,15
 372 80 372 80 389 97 c 1,16,-1
 389 361 l 2,17,18
 389 379 389 379 379.5 385 c 128,-1,19
 370 391 370 391 336 395 c 1,20,-1
 327 433 l 1,21,22
 352 430 352 430 400.5 430 c 128,-1,23
 449 430 449 430 474 433 c 1,24,-1
 474 112 l 2,25,26
 474 79 474 79 484.5 64 c 128,-1,27
 495 49 495 49 519 49 c 2,28,-1
 555 49 l 1,29,-1
 562 17 l 1,30,31
 550 15 550 15 518.5 10.5 c 128,-1,32
 487 6 487 6 475 4 c 128,-1,33
 463 2 463 2 441.5 -4.5 c 128,-1,34
 420 -11 420 -11 409 -13 c 1,35,36
 396 -13 396 -13 396 -6 c 2,37,-1
 393 56 l 1,38,39
 377 40 377 40 371 35.5 c 128,-1,40
 365 31 365 31 354.5 23 c 128,-1,41
 344 15 344 15 332.5 10 c 128,-1,42
 321 5 321 5 306 0 c 0,43,44
 276 -12 276 -12 238 -12 c 0,0,1
149.5 558 m 128,-1,46
 133 574 133 574 133 599 c 128,-1,47
 133 624 133 624 150.5 642 c 128,-1,48
 168 660 168 660 193.5 660 c 128,-1,49
 219 660 219 660 235.5 644.5 c 128,-1,50
 252 629 252 629 252 603.5 c 128,-1,51
 252 578 252 578 235 560 c 128,-1,52
 218 542 218 542 192 542 c 128,-1,45
 166 542 166 542 149.5 558 c 128,-1,46
326.5 558 m 128,-1,54
 310 574 310 574 310 599 c 128,-1,55
 310 624 310 624 327 642 c 128,-1,56
 344 660 344 660 369.5 660 c 128,-1,57
 395 660 395 660 411.5 644.5 c 128,-1,58
 428 629 428 629 428 603.5 c 128,-1,59
 428 578 428 578 410.5 560 c 128,-1,60
 393 542 393 542 368 542 c 128,-1,53
 343 542 343 542 326.5 558 c 128,-1,54
EndSplineSet
EndChar

StartChar: yacute
Encoding: 253 253 190
Width: 473
GlyphClass: 2
Flags: W
LayerCount: 2
Fore
SplineSet
393 430 m 1,0,-1
 462 433 l 1,1,-1
 470 396 l 1,2,-1
 466 396 l 1,3,4
 437 392 437 392 423.5 380.5 c 128,-1,5
 410 369 410 369 398 338 c 2,6,-1
 196 -142 l 1,7,8
 151 -235 151 -235 112 -256 c 0,9,10
 91 -267 91 -267 57.5 -267 c 128,-1,11
 24 -267 24 -267 4 -250 c 1,12,13
 4 -236 4 -236 17 -208.5 c 128,-1,14
 30 -181 30 -181 34 -181 c 0,15,16
 49 -184 49 -184 82.5 -184 c 128,-1,17
 116 -184 116 -184 151 -124 c 128,-1,18
 186 -64 186 -64 210 3 c 1,19,-1
 66 330 l 2,20,21
 47 372 47 372 33.5 384.5 c 128,-1,22
 20 397 20 397 -11 397 c 1,23,-1
 -20 434 l 1,24,25
 32 430 32 430 95 430 c 128,-1,26
 158 430 158 430 210 434 c 1,27,-1
 218 398 l 1,28,-1
 214 398 l 1,29,30
 147 397 147 397 147 374 c 0,31,32
 147 365 147 365 153 353 c 1,33,-1
 252 104 l 1,34,-1
 355 355 l 2,35,36
 361 369 361 369 361 374 c 0,37,38
 361 394 361 394 309 395 c 1,39,-1
 300 433 l 1,40,-1
 393 430 l 1,0,-1
239 535 m 1,41,-1
 326 716 l 1,42,43
 343 716 343 716 372 706 c 0,44,45
 420 688 420 688 420 681 c 1,46,-1
 262 515 l 1,47,48
 251 518 251 518 245 524.5 c 128,-1,49
 239 531 239 531 239 535 c 1,41,-1
EndSplineSet
EndChar

